<mxfile host="Electron" agent="Mozilla/5.0 (Windows NT 10.0; Win64; x64) AppleWebKit/537.36 (KHTML, like Gecko) draw.io/24.7.5 Chrome/126.0.6478.183 Electron/31.3.0 Safari/537.36" version="24.7.5">
  <diagram name="Page-1" id="7mzmADdt-JdkBfdaRma0">
    <mxGraphModel dx="1434" dy="836" grid="1" gridSize="10" guides="1" tooltips="1" connect="1" arrows="1" fold="1" page="1" pageScale="1" pageWidth="850" pageHeight="1100" math="0" shadow="0">
      <root>
        <mxCell id="0" />
        <mxCell id="1" parent="0" />
        <mxCell id="suWifQYxy3RiwfxjetDH-1" value="MQ Service (Rabbit &amp;lt;MQ)" style="sketch=0;points=[[0,0,0],[0.25,0,0],[0.5,0,0],[0.75,0,0],[1,0,0],[0,1,0],[0.25,1,0],[0.5,1,0],[0.75,1,0],[1,1,0],[0,0.25,0],[0,0.5,0],[0,0.75,0],[1,0.25,0],[1,0.5,0],[1,0.75,0]];outlineConnect=0;fontColor=#232F3E;fillColor=#E7157B;strokeColor=#ffffff;dashed=0;verticalLabelPosition=bottom;verticalAlign=top;align=center;html=1;fontSize=12;fontStyle=0;aspect=fixed;shape=mxgraph.aws4.resourceIcon;resIcon=mxgraph.aws4.mq;" vertex="1" parent="1">
          <mxGeometry x="560" y="240" width="78" height="78" as="geometry" />
        </mxCell>
        <mxCell id="suWifQYxy3RiwfxjetDH-2" value=".NET Application" style="outlineConnect=0;dashed=0;verticalLabelPosition=bottom;verticalAlign=top;align=center;html=1;shape=mxgraph.aws3.android;fillColor=#115193;gradientColor=none;" vertex="1" parent="1">
          <mxGeometry x="160" y="240" width="73.5" height="84" as="geometry" />
        </mxCell>
        <mxCell id="suWifQYxy3RiwfxjetDH-3" style="edgeStyle=orthogonalEdgeStyle;rounded=0;orthogonalLoop=1;jettySize=auto;html=1;entryX=0;entryY=0.25;entryDx=0;entryDy=0;entryPerimeter=0;" edge="1" parent="1" source="suWifQYxy3RiwfxjetDH-2" target="suWifQYxy3RiwfxjetDH-1">
          <mxGeometry relative="1" as="geometry">
            <Array as="points">
              <mxPoint x="397" y="260" />
            </Array>
          </mxGeometry>
        </mxCell>
        <mxCell id="suWifQYxy3RiwfxjetDH-5" value="Producer Queue &quot;orders&quot;" style="edgeLabel;html=1;align=center;verticalAlign=middle;resizable=0;points=[];" vertex="1" connectable="0" parent="suWifQYxy3RiwfxjetDH-3">
          <mxGeometry x="-0.1087" y="2" relative="1" as="geometry">
            <mxPoint y="1" as="offset" />
          </mxGeometry>
        </mxCell>
        <mxCell id="suWifQYxy3RiwfxjetDH-4" style="edgeStyle=orthogonalEdgeStyle;rounded=0;orthogonalLoop=1;jettySize=auto;html=1;entryX=1;entryY=0.75;entryDx=0;entryDy=0;entryPerimeter=0;" edge="1" parent="1" source="suWifQYxy3RiwfxjetDH-1" target="suWifQYxy3RiwfxjetDH-2">
          <mxGeometry relative="1" as="geometry">
            <Array as="points">
              <mxPoint x="480" y="303" />
              <mxPoint x="480" y="303" />
            </Array>
          </mxGeometry>
        </mxCell>
        <mxCell id="suWifQYxy3RiwfxjetDH-6" value="Consumer Queue &quot;orders&quot;" style="edgeLabel;html=1;align=center;verticalAlign=middle;resizable=0;points=[];" vertex="1" connectable="0" parent="suWifQYxy3RiwfxjetDH-4">
          <mxGeometry x="0.1087" y="1" relative="1" as="geometry">
            <mxPoint as="offset" />
          </mxGeometry>
        </mxCell>
        <mxCell id="suWifQYxy3RiwfxjetDH-7" value="" style="shape=image;verticalLabelPosition=bottom;labelBackgroundColor=default;verticalAlign=top;aspect=fixed;imageAspect=0;image=data:image/png,iVBORw0KGgoAAAANSUhEUgAABoYAAAGrCAYAAADtiSWOAAAAAXNSR0IArs4c6QAAAARnQU1BAACxjwv8YQUAAAAJcEhZcwAADsMAAA7DAcdvqGQAAP+lSURBVHhe7P0JuBbVlaiPb2aQQQ+oiCIEERRliAOCJO1wjQY1aJs4JJ2/Yie5j40xyNV01L7qw21th76NrcSh/d2OUYzdinaMQytptVHjgANtQAxRVFpB0SDgxCTTn3efWsd9ihpWfV+dj+9w1vs8dep8Vbv2uPauXWvtod2g4ydt6TZguOu6xxDXte9g9/lbL7mNn69wq156wH32xnMOeg4d5wb96Ba37sO33KoX73ftu/V0vQ+Z4O+169TVfbrwKbf03qlu6IW/9n58PG+Wv9dj8GGuY4/e7rOFT7vFv/yJv6Zx02/CX7tOvXb1/0u8xP3adxe45b+70//fZfdBbuj5d/v/P3/zRbfpizX+/8/++IxbNfch/38WRdO1YdX7bt0Hb/r7PfY9zLtZ/M+TfD5p41wmu/3ZmVvD/akP5927LoquGk8++aR7/fXX3TnnnBNdcW78+PHu4osvdtdcc42bNWuWO/300925557rli9f7l5++WW35557ulGjRjV77qKLLnLdunVza9eu9b8bGhrcyJEj/f8nnHCCP8Nuu+3m7rjjDv//iy++2OT+6aefds8//7z7wQ9+4N3APvvs4/bbbz/36KOP+t/z5s3z8bn11lv99aOOOspfB8I//vjjm66JG555//33vV+9e/f2fofP5SF5sWbNGjd//ny3atUqf520Tp061f+viY/wyCOPuBUrVri9997bzZgxw912223RHZebdiDf5d6cOXN8fB588EG3cOFCfx805ZUXZ0k34V977bVeTvifeITXy8yfPNkQyKezzjrLx+X888+PruohLZI3cOihh/qwQ/806RKyyrSIP/wmPyint99+29ehBx54wKe9SJkuWbLEvfXWW/7aYYcd5nbaaSc3adIkN3DgwLotU8MwDMMwDMMwDMMwDMOoV9pjFNpl1HhvyIAeg0c3+w0YPpb/7leuY/cGb4joM/Y09/GC/3QbP1/pjTq9R5/i3fEbeJ5j4+pV7sPHb20y+IDGTc+hhzfdl3jIb+IrrP/TYvfBrBu9nz2HHdHkRos2XQL3uu093Ie1af0aH+8vjWe6OBv1wcyZM93NN9/s/0fxO2TIEG+UuPTSS/01QImNQpj7HBiFFi1a5K644orIRSMotqdPn+4V6aF7YcyYMU3XUDyD/EYRroW4ofDmGZ5dtmxZkyGgCBiiMJCRlrFjxzbFpWvXrpGLYqBox4CA0j00IEBe2iUtck/ig8I/RFNeZVFm/uTJhoChj/wTg0UlYLAQ/9etW+fuu+++ZkamIunKKtMi/tx0001eZilf3AwePNjtvPPO/l6RMp09e7Y78MADfR6uXr3aPxcaDvPYHmVqGIZhGIZhGIZhGIZhGPVKux49emyJ/jdSkBlD83+mV+LXApsxZNxwww3euIKC2jB2NJJm8RiGYRiGYRiGYRiGYRiGUR3to7NhGK0MZogwy4JltgzDMAzDMAzDMAzDMAzDMAxDgxmGWjHsjcRsIfYwMnZ82IeGPU84WBaLfU7Ya+Whh/L30zIMwzAMwzAMwzAMwzAMwzAMMMNQK4b9jVhCbvnv7oyuGDsy4R4y7NXCfikYiNirxTAMwzAMwzAMwzAMwzAMwzA02B5DhmEYhmEYhmEYhmEYhmEYhmEYbQSbMdSK6Tl0nBvw/Wvdbn92ZnTFMAzDMAzDMAzDMAzDMAzDMAwjHZsx1IrBINRvwk/9PkMsKWcYhtHauPXWW6P/Glm2bJmbOnVq9Csf9t4aM2ZM9KuRF154wd12223RL8MwDMMwDMMwDMMwDMMwQkqdMTT0wl+7kX8/L/qVjMZNCMaP/qfplYT1QGuM8/jx4915550X/aoc/Lnzzjvdk08+6Y8bbrghulO/lJX2eqM1lkVZtMYy1cS5lmVaqzzcb7/9XO/evaNf1bHTTjt5/9iPyzAMwzAMwzAMwzAMwzCMZOp+Kbk9xp/neo8+JXG5NK6xlBpLqtUTWXGuVyZPnuxOPfVUrwyulMMPP9xdfPHFrk+fPl5p/eijj7p58/RGwLIQpbnMOiBecu2ii7adWVVG2uuNvLIgreTFsGHDoivFwd/4bA/85XpL5GWRONdDmZI35IWWvDiXUb/qNQ9ffvlld8455/gjPlvo9NNPbzKGPfLII9vcZ2aQPHvXXXdFVw3DMAzDMAzDMAzDMAzDSKPuDUOrfv+oW7tkgfv09WeiK1/SbcBwt8uo8a5r38HRlfogK871CgpXlMxz586NrhTn5JNP9ucrrrjCK2+vvfba7bqc04EHHujPhxxyiD+nUUba6428shg1apQ7/vjj3cCBA6Mr9U+ROLfGMs2Lcxn1q7XlIUapc88913Xt2tUbwpYsWeKOOuqobYxDhmEYhmEYhmEYhmEYhmHoqXvD0NJ7p7pFP/++W/+nxdGV+qc1xvnGG290559/vlu+fHl0pTgNDQ1ecfv8889HV7YfzC5gOSlmRowYMcIruNMoI+31Rj2VxfagNZZpXpxrXab1kIcYseDyyy/3hjBmBb3++uveOGTLxRmGYRiGYRiGYRiGYRhGZbTr0aPHFtnzZ+PnK92yf7/O7XHcua5Tw55Nv1fNfcgv1zboR7d4d1s2rHPrPnjTffz7WW757+7014D9g5i9s/x3v3K7jj3VtevU1W1Y9b776Jl/aXKnccMSbP0m/NT/L8z/2ajoP+eXj2OmUBqh2zy06erQuZv7eMF/Novzyq358uF/3Ozd5MW5JZAwP543y71717ZLpOXBaHyWpgpB4RrCcljs2zF79my/rBT/o5i9/fbbt1FQy7JiKG+TYEmo0047zSt016xZ4+bPn++mTZu2jeKZeLGM1YsvvljRzABZZmv48OFuwYIFXrk8Y8YMd9ZZZ/nrKJg1aQfc8TwzLYC4suwVfoAsFcb16667zs9u2HvvvZt+Sx5p0s4SX8SZ5wXu85ygzcO0siAMUbYnkZQHaZB2ZCEMQ/L1mmuucbNmzfLXqk27Ns5lyTPxvPDCC93YsWP97zlz5rhVq1b5OBTJH8Jiv5usZ7RyCHn16wc/+IGPI/EH4i35XFYeyn38HjlypL923333+bwE8m3hwoX+/6z4hEh9lToVwqwljGFhmvGXuhzKmCDxS/PPMAzDMAzDMAzDMAzDMAznOnTu3Hlql90HOdeunevcey/XoVtPt2ntZ279h2+5bnvt73baenz0zF2uS5+9XbsOHd26D9/097vsOtDtPOIYt3ndarfm3fnesz7jznAde/R2nXvtuvXaq+6Lj95xXffY1/UcdoRb885898WKJSo3Hbr2aAqLeOH+w8f+yYcBnXfp5zat+7Tp3udvveTWLHnVu+f45NXHI5f5aNPF9S59+rs1//1KU5y7f+Wrbu3SP6ji3BJ0HzjK9dxvXOE0C506dXIdOnRwb775ptu8ebPbddddvYI8ZMKECW6fffbxSzn9/ve/dytWrHBf/epXvcL7/vvv94rY73znO+7rX/+6Gzx4sOvWrZt3z2+OlStXuo8++sgbBzCaYBh4+umn3YYNG9yhhx7qDS4PP/xwFFojRxxxhL/3ySefbKP41XD22Wf7NC1evNgde+yx7uOPP/ZhEh+uP/vss6q0i5K5V69e/hkU3mySz9J07du3d6+88orr27evf37AgAGuR48e7rPPPvN+soyd5JEm7Wzyz1Jhn376qXvuuee8HxzMdCIcyPNHUxbr1q3zcZQ0o6x/9dVXm8IjnVrI5y1btjQLgxla/fv3d88884z3r4y09+zZUxXnMuQZ/vEf/9Ffw2D00ksvuT333NPnZ/fu3bfxLwvCSopDSF6ci9SvH/3oR035/N5777mDDz7Y1yXSVVYe7rvvvj7c1atXe3/HjWvc3w0D7AEHHOCfxa+8+IRIfU2Svf/5P/+nv4cs/OQnP2lKB3HgHH9G4pfmn2EYhmEYhmEYhmEYhmEY0VJyzDZZ98Eif2Hj5yvc27f+yC3+5U/cug/f8jOH4LM3nvPuOLj/1j/9wF/vse9h/hyy9N+u8M9zfDDrRn+tYXTj/hhClpswLIlXCLN5wnuf/eGpJvccwGwaZkKlHcw6giLpWj77tqY4fzTnPj9zaOdRx/l7eXGuRzB0MKqe4+23346uJnP99dd7dzJbQGZ2oOBnVoDMDOCQ3xyyl8kxxxzjz7IkFEtUoXhHIR/fCJ99Uy655BJ35ZVXRlcqg71RmBHy2muvRVe+RJN24g/hni5nnnmmn6kge7uEzzOrhPzBLWmTPNKkfciQIf588803N8WLI9xDJs8fTVlgaONZiTOzNcLwihIPQ2bZCGWkXRvnMuSZ9BA34sgsFdykzdApg7w4a+sXRiiZYYVfyCAzeUjX4YcfXnoecm/mzJn+//fff3+bpRrz4lME6pXMPjrllFOiq4ZhGIZhGIZhGIZhGIZhVMo2ewytfXdB9J9zb0z7dtNyaMwq6n/aVL+sGsfAM6f565167+XPIRhJhHBJthCNm2rAqMUSa2mHpLNIusJ4Lnvo//pz+87d/HlHB4WxgKJWQOnLUlMcKNM55DeHzPgRZXvojyiekzbCZ1mv+JJTRcEP4lDJcnSAwYI4x5fMS5vFFCrHMSYQNmjSzuwGZldcffXV7s477/RxZtZFSJ4/2rIok3gYGM1Cykp72aTJM7PBQOIoJBkXa4G2TDG4YDTC4CMHy63Bzjvv7M+1pMz4MEvqwQcf9PXrhRdeiK4ahmEYhmEYhmEYhmEYhlEp2xiG0tjnhze7hq8e7zasfM/PiNHOimk4ZEL0XzoaN0ls/mJt9N+2hDN4kg4x8lSaLsMoE2ZfTJw40e+FxLJbLEXHEmwYSloClgKrF7Rpr6c41yMYTjDMxQ9mzgm1zENNfPLAYNivXz9vyGO2GbPIWNoPWCrSMAzDMAzDMAzDMAzDMIziqAxDLMvGknJ/euoOv4wahhXt/jm7jvuuP3/2x2f8OQmNmyTWf/CWP3fcZQ9/LkrRdOFe6HvcudF/hgZmOjB7JFw2jr1S4J133vHnEJabYsbB9mTRokU+zkWXvoqjTTszpFB8s7wZS3AxyyJceqtoHmbBHiwgSvYsqimLstIOReJcKRKneBgYq9KoB1ldsmSJn+GG0YVZROERzryrRR6CNj55SB0M5WfMmDH+PHv2bH82DMMwDMMwDMMwDMMwDKMYHfY65odTd/2z77uuewxxHXv0du06dnI99/+a27x+jftixZJGR117uIaDv+U6dm9w7Tt23nr/627PEy9wm9d9tvVeT78c26d/eNL1GXeG94PfO4881u11yv92XXYb6D5b+LRb9sj13i+Nm34T/tr1Hn2yvy/xEvedd+nn1rw737vbtDX8PqP/3O3U/wDXfeAo1+vAo7wblndbt+wN7yaLounquvtXXM8hY13DQSdsfe5E165DR7fs4Wk+n7RxLhPS3HO/cW7dh2+6T159PLqqh307jjvuOL9ZO8p6Nprv27ev/80m7yiRkzbQ5z5K3/im+riFhx9+2J9D2Otn9OjRXqlLWCwVhrIdw8Evf/nLyFUjxOvCCy/0CmEUyUVJ2sw+vim9Ju2ffPKJ31yfvU32339/v8wY90nn448/7saPH+++853vND3fsWNH72blypXuo48+ikLWpf2iiy5yxx57rHcjYbBZ/4YNG/xyYlAkD7PKAkjbt771LXfAAQf4spRwN2/e7JYuXRq5yi4L8nnFihXNwpB8fuaZZ3welpV2yItzGfJMuWHoIY4HHXSQ3+OHJdBYzqx79+7byHxW/khYEofwkPho4ixklenatWvd0Ucf7fNnxIgRTbJKvmJkE6rNQ+B/4kU9krr24YcfNruujQ8k1dcQnhP5oSzIa/x45JFHIhdfEq/nhmEYhmEYhmEYhmEYhmFsS/tuA4a7XUaNd137DvYXegwe3ew3sCzb8t/9yhtQ+k34qesz9jT38YL/dBs/X+kNIL1HN24Izm/geY6Nq1e5Dx+/1c/GETRueg49vOm+xEN+E19h/Z8Wuw9m3ej97DnsiCY3WrTpErjXbe/hPqxN69f4eMteSdo41xMoW2UTe5StIL9RiJcJy4XdfPPN/n/8RynNpv+XXnqpvxbCZvYsIRXu/VI2mrSzt9AVV1zhl8QaOXJk0/3BgxvLF3fh82PHjvW/43smadLe0NDg94yRMAiP2RKELxTJwzyYtTF9+nRv2AnDjVNtWZSVdsiLc1nyTNwocynfZcuWuZdffjm62xxN/kgcwkPiU1acMUqxTBv5JnLI0bVr18hFI7XKQ2188sAf5GfdunX+eWaRYRSqdN8wwzAMwzAMwzAMwzAMwzCca9ejR48t0f9GCkMv/LU39sz/mV4xWgtY2g6D1sfzZvll8AzDaBluuOEGbxjBmGKUC4YeDFbMtAMMcUUMP8xywqAFzFDDePToo482m21mGIZhGIZhGIZhGIZhGMaXqPYYMgzDaKuwfxAzndg3xygflhUUo1C1MHsL/4rsY2QYhmEYhmEYhmEYhmEYbQ2bMaSgXmcM9Rw6zjWMPtmtfXeBW/67O6OrhmFUAzNQMAYBy9yxtB0zUVjSjKXxDMMwDMMwDMMwDMMwDMMwWjNmGFJQr4YhwzDK56KLLvL72QAzT9hHiKXJ2O/GMAzDMAzDMAzDMAzDMAyjtWOGIcMwDMMwDMMwDMMwDMMwDMMwjDaC7THUimEpuQHfv9bt9mdnRlcMwzAMwzAMwzAMwzAMwzAMwzDSMcNQK4bl7XYZNd51GzA8umIYxo4Ay9mdfvrp0a/tT73FxzAMwzAMwzAMwzAMwzCMyinVMMRePCP/fl70KxmNmxBmw/Q/bWr0q3XQGuNsGEYjt956q3vyySejX7UHAwx7HPXo0SO6sn1pqfho8rloWYwfP96dd9550S/DMAzDMAzDMAzDMAzDMJKo+xlDe4w/z/UefUricmlcYyk1llSrJ7LibNSGYcOGuWuuucY98sgjXrHMccMNN7jDDz88clEeKKOZUUGYLU0twyqLeotzvefhMccc45YvX+5uu+226Ep5VJL2loxP2UyePNmdeuqpPp1x8tIu7cTUqY1GfdoKucZzAoane++911+nfaGd2W233aK7hmEYhmEYhmEYhmEYhlH/1L1haNXvH3Vrlyxwn77+THTlS1hCjaXUWFKtnsiKs9HyoPidNm2aGzt2rFu0aJF79NFH3Zw5c9yoUaPcN7/5zchVeeAvMyoGDhwYXWk5ahlWWdRbnOs5DzFe7Lfffu6pp56KrpRL0bS3dHzKBkPNvHnz3Ny5c6MrX6JN+4EHHujPhxxyiD+HYBTC8AS0K/Pnz/ftzHXXXeevGYZhGIZhGIZhGIZhGEZroO4NQ0vvneoW/fz7bv2fFkdX6p/WGOcdiSlTpriddtrJzZgxw51//vnu2muvdRdffLGbNGlS02wAw6hHjjrqKLdmzRp3zz33RFe2L/UWnzxuvPFGX+eZ4VQJzAJi9g/G5REjRngjU8gJJ5zg/T733HOb2hUMRHvvvbf7wQ9+ELkyDMMwDMMwDMMwDMMwjPqmXY8ePbbInj8bP1/plv37dW6P4851nRr2bPq9au5Dfrm2QT+6xbvbsmGdW/fBm+7j389yy393p78G7B/E7J3lv/uV23Xsqa5dp65uw6r33UfP/EuTO40blmDrN+Gn/n9h/s9GRf85v3wcM4XSCN3moU1Xh87d3McL/rNZnFduzZcP/+Nm7yYvzi2BhPnxvFnu3bu+XOqoLYNC95ZbbvEzhFDaZsHeKaeddppXBKP8ZvQ/M41Eqcz+JhiYZs+e7WcJ8P/rr7/ubr/9dvf888/75aWYgZAGSnUBpTFuZckp4tdSYeWB8hsIm5kOKLlRbMtvwoO8/IEsN2XGOSl/lixZ4h566CE3c+ZM70bKHoiLzBabNWuWv6aND2ExSwbDYlJZhDCjhuXLXnzxxaqNjhJ/yifuVyWyGuZPJWWRFh+N/OSVBSTlM3G+6667mtxp3FAG8boepkebdtJFHIcPH+4WLFjgnyHcs846y1/HSCSGIIxCQpE2xzAMwzAMwzAMwzAMwzDqgQ6dO3ee2mX3Qc61a+c6997LdejW021a+5lb/+Fbrtte+7udth4fPXOX69Jnb9euQ0e37sM3/f0uuw50O484xm1et9qteXe+96zPuDNcxx69Xedeu2699qr74qN3XNc99nU9hx3h1rwz332xYonKTYeuPZrCIl64//Cxf/JhQOdd+rlN6z5tuvf5Wy+5NUte9e45Pnn18chlPtp0cb1Ln/5uzX+/0hTn7l/5qlu79A+qOLcE3QeOcj33G1c4zTsyhx56qPv617/ulbQo69NA0Y5CG6X1008/7TZs2OCfZbmphx9+2LuZMGGC22effVzXrl3d73//e7dixQr31a9+1Suq77//ftezZ0/32Wefuc2bN7tdd93Vh/nqq6+6N9980x/PPvus94ewfvSjHzWF9d5777mDDz7YHXHEEd4fKCssDX379vX+DBgwwPXo0cP7ix8soSXhafInz02ZcZb82XPPPX3+/Pd//7cbMmSIz6P/+q//ch999JE3mnTo0MH7/emnn/olw1g68IMPPvDXtPEhLO6nlUUIZUiaP/nkk2ZGj0pgmbKvfOUr3uhAeoQispqWP+vWrStcFmnx0chPXlmA5HPv3r29IUbifPTRR7sXXnjBh6lx06lTp6awJH0Y8QRtuZ999tn+9+LFi92xxx7rPv74Y5/ftCdcX7t2rRs9erT7t3/7N/9bIA48u3r16qbyMAzDMAzDMAzDMAzDMIx6xhuGMCp03+dgb+zAwPLfv5zsPv79o27nkcd5gwgGDowfuONYNfdB9+nCp92u477r3OaN3i2I0efdu37mPnzi//PXt2xY740XGE14VuMmDEviFRpZMNiE91Y8+69u2cPTmp4BZtPse96dru+xkxIPjGG4LZKuD397k3vvgWv89Q7dG1z3QQe7LZs2uE//8GRunFsCMwxty7777usVuQ8++GAz5W0cZnmgJP7pT3/qfvOb33ilPpvNo9iOK6Uvu+wy7+bxxx93+++/v1eAo3gWpTK/UVb/6le/cnfccYe/FiramUXwxRdf+BkfXGdmQpcuXbxRgZkoS5cuLS0sDaE/KMj/z//5Pz5OpB/jAuFp8ifPDQr4suIs+fPzn//c/fM//3NTHmIgweiBEZA4id/kH24wqmzcuNH/r83DpLI46KCD3NChQ5sZHOCVV17xZYg7DDeVgiEFQwx749x9993R1UaKyGpa/vzLv/yLKu1CVnxCf9LkJ68sQOJM/bjvvvv8dYxw1F8MPTyrcROGJfEKy0lb7mIYQm6ZLfTSSy/5uimGoYaGBv/8M88843+H8CzxMsOQYRiGYRiGYRiGYRiG0RrYZo+hte8uiP5z7o1p325aDg1DSv/Tpvpl1TgGnjnNX+/Uey9/Dvnsjeei/1yzJdlCNG6qYd2Hb/kl1tIOSWeRdIXxXPbQ//Xn9p27+bNRXzCbIguU6ij0Fy5cGF1x7u233/bn+Ob0oZtVq1ZF/+lhmS0U7Si15WB5Kth55539Wag2rKKEe6icc845TctqafKnSB6WRTgr57bbbvPn7t27+7MYM1h+jOPKK6/01/v16+fPRQnT9f7770f/bQtLp4XL61XCGWec4ZdJe+CBB6IrX1Ikn7PypwhZ8QlJk58iZRGmK4x/iMZNWVCepCO+nF+1ZWwYhmEYhmEYhmEYhmEY9cI2hqE09vnhza7hq8e7DSvfc+s+WOQPDQ2HTIj+S0fjJonNX6yN/tsWDE/su5N2iJGn0nQZ9ck777zjzyypVStYQioPFOjXXHPNNgczMoqgCaveqFWc2d/mhBNOcMuWLfOGEzGexKnHPDzyyCO98Se+h1HZaNNebXy0ZRGHWUd5aNwkUW25i3EwbnTGCAa1MOQahmEYhmEYhmEYhmEYRhmoDEMsy9apYU/3p6fucIt/+RNvWNEuk+aXZdvKZ398xp+T0LhJYv0Hb/lzx1328OeiFE0X7oW+x50b/WfUE8wsQKGN8vYHP/hBdHVbcMNMDDaOF1gGC8S4pEWWlUozRrFZPktQYQRitkN4FJ2FkBdWWWjyR5uHZcZ5/Pjx0X+Ne+8IXGdmFkuIMdODfXFkxkycsvMQQ4UYByoBOeX5J554IrrSnCKympY/gibtefHJo0hZxPnudxvfBeztk4bGTRLVljv1leUCWZ4vLG9pZ9544w1/NgzDMAzDMAzDMAzDMIx6p8Nex/xw6q5/9n3XdY8hfh+ddh07uZ77f81tXr/G75vjHXXt4RoO/pbr2L3Bte/Yeev9r7s9T7zAbV732dZ7Pf1ybOyzI3vx8Hvnkce6vU75367LbgPdZwufdsseud77pXHTb8Jfu96jT/b3JV7ivvMu/fweQ7Bpa/h9Rv+526n/AX6/nV4HHuXdsLzbumX5Srqi6eq6+1dczyFjXcNBJ2x97kS/JxJ7G5FP2jiXie0xlAx7fYwbN84rcI855hi/Nwz7hKAoZw8i9qNhmSw2kh8zZoxXsnOPPUhQwv/yl7/0/sj+JuF+JfgT38Pkk08+cd/61rfcAQcc4O/hJ+7Y7J49Sti0ns3ycTNixAh3yCGH+PtscM+yclBWWHmgtP/Od77j00x4HTt29PFZuXKl36tF0OSPxg1UG2eQ/GHpNIx+LPV14oknuk6dOvnZKRJGr169/D42Bx98sN+b59NPP3U9e/Z0ffv29eUOefHRlgVgFLjwwgu94QbDQSVccMEFfg+q+NJlQhFZTcsfKVtNWWTFRyM/hKkpC4kzv4nDlClTvL/UCfYBAo0byuC4447z9yVe4p7wxCCUl3bZYyjcd0j2LJPr/fv39/lLfSYs4sf/GH8vv/zy6CnDMAzDMAzDMAzDMAzDqG/adxsw3O0yarzr2newv9Bj8Ohmv4Fl2Zb/7lfegNJvwk9dn7GnuY8X/Kfb+PlKbwDpPfoU747fwPMcG1evch8+fqufjSNo3PQcenjTfYmH/Ca+wvo/LXYfzLrR+9lz2BFNbrRo0yVwr9vew31Ym9av8fGWvZK0cTZaHpa/QlnPJvJdu3b1G8lz9O7d24/4h5kzZ7qbb77Z/889FMW4v/TSS/21IjDrZ/r06d4ghUJewhMwGLBs3KJFi9zYsWOb7hO3ouSFlQdKbdxjyACJT3yvGk3+aPOw2jiHzJ492xtF8IelwQifWWIcM2bM8GV88cUXu9NOO827xWDB7I5TTz018qHc+LC8GDJV6TJiMrvm0Ucfja5sizafIS1/hLy058VHIz/aspA8kzhwn/iGBimNGww8cl/iJb+Jr1BGuTP76b777vP/8+zIkSN9WWBMMwzDMAzDMAzDMAzDMIzWQrsePXpsif43Uhh64a+9sWf+z5rvLbG9YWk7DFofz5vll8EzjB2VW2+91Sv9UejvSNxwww3e0DNx4kRvuKiUsvKnrPi0BZi1hAENY5FhGIZhGIZhGIZhGIZhtCZUewwZhmEY5cOMI5anqxcjTL3Fp56R/YbCvZ8MwzAMwzAMwzAMwzAMozVghqFWzLoP3/Kzhda+uyC6YhhGa4LZJiwVVy/UW3zqGZaUY2m8W265pWmvMMMwDMMwDMMwDMMwDMNoDZhhqBXD/kYsIbf8d3dGVwzDMIxacNttt7lJkyb55eSy9ogyDMMwDMMwDMMwDMMwjHrD9hgyDMMwDMMwDMMwDMMwDMMwDMNoI9iMoVbMsEGb3E9OX++OHbMhumIYhmEYhmEYhmEYhmEYhmEYhpGOzRhqxWAQmvK99W7Wc53cz2d2ia4ahmHsWNx6663Rf40sW7bMTZ06NfpVX/zgBz9wY8aMiX418sILL/il5wzDMAyjrcF7ccCAAf7/en13G4ZhtAS0f0OHDnVLly5199xzj1u+fHl0xzAMwzDqg1JnDP3jBWvcv1//efQrGY2bEIwfPzx5ffTLMAzDaGvst99+rnfv3tGvdMaPH+/OO++86Ffl4M+dd97pnnzySX/ccMMN0Z1i7LTTTj7uu+22W3TFMOqTsuqO0TYx+TGS4N3Hu/Sss85yRx11VHTVMAyjbTFy5Eh36qmnujvuuMOdfvrp0VXDMAzDqA9KnTGE0WfogM3uxCk9oivbonETct+1q123Llvc9f/axT32QqfoaiMYjfYfuNk9/lJHt3Bxh+hq26HaGUN8sF144YW+s4ICc82aNe7FF190N910U7PRLHRgJkyY4Pbee+8mN+GIP60/KA24JyPnUbi+/vrr7pxzzvG/teTFBy666CJ36KGHNilk582b5+6++273/PPP+99atGkfPHhws7CuvPLKQiOChg0b5o455hg/04CwkvKlrLBAUxZl5KHEOUs2NG40aPIQ5dXFF18c/fqSuNsyZYz7+CXxeuqpp9y1114b3a2drILGjYZahgXI56OPPtos35J45JFHvAxdc801btasWdHVYhx++OHu6quvborz2rVrvRxWMuNH5E0T90opI5+1dbCsdqOWMt+WQf5GjRrlHnzwQbdw4cLoajJl1J2yoAxRIlOmJ5xwQnS1EWROzriT+gphPUNWjzzySC9j+DN//nw3bdq0JnlmFiJG25BK5XBHpbXKTx7WZtauzZR6lvQOzOuzyfszDfL5tNNOU5dFHpo+JNRTWUjaq/0u0PqTl/Yi8eE+6U/rG4PGTb1g8ly7djWPtLxOyoM0GWuJ8sLPyZMn+/95Ju+9ahiGYRi1ou73GHr0uY5u3qIObv7WIw5GofHjNrj+u2+Orhha6MgwamXs2LFeYcJH25IlS7wy5sc//nHkqrETc+6557quXbs2cyOdPa0/wEgZlAzVkBcfoJN7/PHHu5UrV3o3c+bM8eFedtllPr5aNGFdd911Pu3vv/++d0OHmrAuvfTSyIWOk046yecPcU6jrLAgryzS8vCCCy6IXOSjkY0i8pOHJg8FPg4ISw6W+hKqkbF4/qC0vPnmm/1oWWa8kMbwQ6FIPpNXxI2PvTiaOGvcaKhlWEVBOUm9mDt3bnSlOCeffLI/X3HFFT6+fCBWYhRqKZADacfKyOcidbDSdiNse2vZPifVlbYE+UpeDxw4MLqSThl1pywOPPBA30ajZKGck8ANHHLIIf4cgjIeWQVkA7lGvnmHxuG+yOGQIUO8HLZ1uRFaq/zEsTazkVq3mYSHUYj4JinztX22eH8NOYOXX365UFnkoYlPkT5bFmXIIZT1XaDxR5N2bXzy+sagcVMGZcm8yXPt2lUtWd96oJGxMsuLQRPTp0/3fZuJEydGVw3DMAxj+1P3M4ay+Mnp671hKGk2UVug2hlDrHnLaJVwVNC9997rz4yCAZZQopM4adKkppEtMgIQN3SgNP7QaYyPnE8aOZmHJj4oKFasWOHOPPNMfx9EUUQHcObMmdHVbDRh8UGxyy67NEs7y2Yw6oiOoRb8+eijj7yfaflSVliasiCd+BuO1qaDTziXXHKJeiSZRjY0bjRo8jAp7XE05a7JH/lgAD4EkkZRF8nnrLhr4qxxo6GWYQmUZ1aZlQnx5KMtbD8qRSNvWvALueADVEbll5XPZbXhmra3lu2zlOXs2bPdQw89VFjuWjui9GkNszgEmQGELJx99tnbjDpG5jioC5T9lClT3Lp167wsiGwiY6tXr/aKKilzyYsZM2Z4Q6/ICv4IIuP4X0ShtaPSGuUnxNrM5tS6zZS+TBheSF6fLSn/gLKkTMXfWvYhyZ8y+sZlyWFZ3wUafzRp1/ij6Rtr3JRFWTJv8lybdlVDWl6H5MlYS5YXdaJPnz7N8t0wDMMwtid+xhB7/nDMmLrajR2x0d16SeM+QPIbhg3a1OSO5d2u+vFab5hI4i/Gf+Hd4Ba/ktxlueF/CUuOEAxCXMMoBBhH4m7Fj8t/tM6HwyFhcpAe6Nt7s3cjz/K/+L+jg3Ik3ulj1BCdJYERtHQmpaMHMuJGRupq/Nlzzz39WUbaVIomPnTwFyxY4P8X3nzzTX8eNGiQP2vQhBXvDJJmRkwx6qoI+JPXcS4SFh1alAlJyi1NWaxatcqfwzIEpsjHyzorLI1saNxo0ORhCPHmiKMpd03+8LGALGZ91BbJ5yw0cda4EbLKtOywqoW48tEbHnH4QOVDjDIhXbjhGkroJMj/NFgug48+/MAvPhKLyqoW/EUBSHh8oPIxSr195513/P2y8rmsNlzT9tayfX711Vd9G8loUBQAlFVamWeBgkVkizJHCZLUdnCNe+KWckO5HqJxg5yKjHHEZSxJnvmNbAL+cQ2lPiA74heHUFbdIW7EUfzgf4lDUaTsUNIxAldmBoWwvCOjchkRjeIplEnShIwxmjd8H7AcGrABdBrSTvfr18+ftWjKNK/d0OSzxg3kyQ9kxblM+YEy0q4Ff63NTKaWbSZQj6iDYXghXM/qs1FmKGXj+ceSTdR/8beWfcha9tk08HwYLvGq5LtA448m7Rp/qOfIdFbfWOOmLMqS+Tz5MXnOp0jas+Q5BHcccfJkrCXLi/acsCttWw3DMAyjbLxhiBknb7zb3vXZZYs7bsxG997y9m723I7+919+6wvvEHDHwbJu/Xfb7A0ySUafIw/a6OYs6NDkB+7EECNkuVn6p/ZNYRGvOH98p/G+3HthQccm9xwhDb02u1892tnvUzR88Cb31Nbw+P8boxsNXud8+ws3ZvhG7xfPdt16b/QBjffaIkylpnMn0HGh40gHB2UBnSuWCABGB6UR92fAgAH+XO0yI9r47LPPPtF/jWTFNY0iaUdxSCeTZRToELKXQUuhCQuFBPFvaGiIrnyJpizwk44vo1FJOwokFHS333575OJLssJKIi4bSWjcVAMKL5RGHHxYkJ+Cptw1+YMM8lHWq1evJqUY5zCsIvmchSbOReQ5q0zLDqta5OONI0tmGBXJGuKsH46SAoUyMwqA+BFPDmSPQ35zUOcABac8Q3iLFi3yikfWzy8TwkM5gbwwKpy8Y6YDow/PP//8pg/SlsznSttwTdtbq/b5xhtv9HlGXmJk4IOe2SihEUWLyBj+UD9oOwhT4H+uoSChruOWmSy0NVLnNW6IFwoq4D7uiDftfQjyzHPMqMENo0+ZYYPsoMjgWSk/5J3fcghl1B1A/qkH+IFftBvsWVAJI0aM8P7Qdr7xxhu+fKX+haB0Yg8h3Em5A+0txJU5Ume07ykt2jLVtBt5+Qx5bjTykxfnMuWnzLRnYW1mPrVuMylT+qiVQpkxUj9U2hIH0iFK5zRaqg9Zyz5bEZB/6m6l3wVClj9F0p7lj6ZvrHFTFmXKfBYmz5WRlnaNPPNO413HEf/Wy5OxliwvwoWdd97Znw3DMAxje+MtKyxD9vbSxj18Vn3azv3tP3d1/3BnV4expH/fxv17Fi7u4N1xcP+vp3fz10cNbW7wgevv7uKf57j11539NTHECFluwrAkXiEsGxfee/7VL91zhODmN082GouWLW/vjUoCs4XEKPS/rtvJP/s3N3VzK7bmQVuEDg+duniHh84eHSU6WKecckp0NZ0kfxg5yAgk6QzFoRNJpyztoKMp5MWHzhhKBUac8hydffmoZnmZMsMCPoBuueUWr4xh1Nnbb78d3SkfbViMYGIZgCSFdV5ZAPcYRQeknY79a6+91nQtJCusOGkyFqJxUymffPKJl4/77rvPywWKIyA/w5FbeeWuyR9kEGUbm5oyeh3Z6t69uw+LcoQ8f0JZ5cMGcFeprGrrcl6ZlhlWtcjHG0de3bv++uu9O/IS5SOKKyDfiScHsschvzlkjw028oXLL7/c+4PCUdobKdMyIDyUp3ywUw6EQ5kk1dmWyOdK2nDIa3tB40aLNu182FPmbPZLnlLuUpYaQhnDH1FYU0YCcYBwbyqWfiJ9lB1o3NBekMcoqriPO9or4hwfXfqLX/zC3xc3KCxIF+nlWakPtBX8lkMoo+4gJ5Qn5coyNbiJL1ejRfySuMgo3KSyQtlOemkvQ4rMoIiD3MOyZcv8WYOmTIu0G2n5HJLlRiM/eXEuU37KTnsa1mbqqFWbCdTPsvna177mz0888YQ/J9GSfUjKMq/vp6UsOSzjuwDy/NGmPc8fZDmvb6xxk0eRbz0oQ+aLYvKcTVbas+RZ861XiYyVVV5iNDMMwzCMemGb6Tih4QRjiewFhBHlhyev93sEcVx89jp/fa/dGg1HIRh2hLS9fzRuWpqRQxqNWnHjU5IxakeHjhKjjekMizJD6Natm1+GhVGkeR3TNH/ogHEtjXDkadIRjv7Niw+bnHKPMOmg0vGTTi7Lb5QZFqAcYT1mFDE8zyhmjZGkEoqEhVItSSGRVxZAR5q1jxntJ+HxgcfosqQOc1pYIVkyJmjcVAPxRGnJCEE+AglDRsYdccQR/gx55a7NH66xiSvKLhRwEhZLIEGeP6GsoigDPnbkWlFZLVKXs8q07LBqBfVH4CNWoHzIfw7yl0N+cyArQN3hXuiPKD00G7RrQenNBy2yICNXWR4pqe6Vnc+VtuGQ1/aCxo0WTdr5QEdZQR6irGJmDXWpyIhY/CD/UcxySJuL4leQpVTEmCGI7IDGDcoowgsVWCgqID66NHxOygrFRkuQVndkmZi48i9usNFw9NFH+zMjgFHa0U6iWCff4pCH1E3a1ZC891AcwhFlOwY/wrvnnnuiu/loyrRIu5GWzyFZbjTyo4lzWZSd9jSszdRRqzYTitbFPIgXimvyNJSVkJbuQxbtG2dRlhySFxKXSr8LIM8fbdo18eG5rL4xaNxkUeRbryyZL4LJczaatKfJM9c133pFZKzM8tp3332j/wzDMAyjPtjGMJTG356zzh0/rnGZOQwnWuOJ7FGUhcZNEmvWR/8YVUFH5rLLLvOb29JBCkFJgvKLTpCMwGT6NixevNifhTR/ws6lKGE4gOnWdMbxn45Z2iEKC0186CRyj04uB509Pkx4Fn/KDCuEcHHD0j58wBftVBeh0rA0ZQGMvMVvURwRHgomGZFelCwZEzRuqoURhIQTwl4WIZpy1+YPS2hwT4iHledPKKtcB5RqlchqUXlOo5ZhtVWQg3B5k/fee88vj4TCAsWF1OOy87maNhyIN/FIa3u1bjRo0o7fLA2CYhwFAKNGJ06c6EcFS53TgNIE5QkzSah/cSNI2aBYodzjR96SVHGKzibY3hx88MH+TLuIApyDthBljJa05WtQ6kDc4CDhsHwQ+c4sGmSqNdMW5cfazHxq2WYC/Z8is77yYGQ/xPtRQi36kGX1jcuWQyAu+FP0uyBOmj9F054Vn7y+MWjcZEHeSl856ZC6U6bMF8HkOZ1q06751oMiMlZmeckAHmY2GYZhGEY9oDIMsY8QS8qxVw9Lv7Hk2szHdbN8TjqicQ+ilxamG5I0bpJ494PG6O/WsMWfi8JeRtAvNuupoVdl/rU2UJTwocroSka30JEJO0jAevDxDj3rwIN0jvL8Yc8AwB9RwnAAz4p/GjTxCcF/1kzmzPrCRSgallD2HgZZZIVFJ5V0hxQpCzr5IbJ3QxJJYQHX8mRM4yYkLSwNkydP3qbDLp19UYJpyz0vf0gDCqAwrvGwoEg+p6GJc1F5TsvnlgirtcDI93i6ZEkfRqe2BCgvUFBMmjTJj3JFcSEj7csq07w6WEkbzvW8tlfjpho5pG4x6hdFMQpjlBVZbUsSKBhQbjKSFAUSCiX8iSPxIb5paNyQ/8zoQIlP2YdHPO7ETWD5kjgym0AUNC2ByH08DPYpKIoYZ0QBzsHeB5CUviTIJ5RU7HEUyo0o4tm3KETCwfCHQquoIlBTprVsNzTyo4kzlCE/1ma2vTZTwJCOgjlPzrSIsfehhx7yZ4G01qoPCWX0jcuSwySKfhekkeRPJf3VuD+UTV7fWOOmLMqU+SKYPG/rT1lp13zrFZWxssoLhg8f7vspLWl4NAzDMIwitDvlmC5b9h+42e3Tf5MbOmCze2FBR7/P0OMvdWxa7m3YoE3uH85f69iL55FnO7nu3Zw7/vBGY063LlvcU690dL94oItfYg4/Zj3XaDQafcBG12eXLW723I7eoAQaN38x/gvXJzLOSLzEPUvdydJzLG9300Vr/f9zFnRw69c37g2EgannTlvclO+t989hyPr36z/3//N8eF3iQ9qYBYVRiCXmSJcso1evYLAL01IUPi7p6NA5YcPfEJQzfFyjeOIDm04Oa/DyQU/njxFFKMlA408S+IHSoMh+BJr40DFlGrjcg/C+Fk1YfEiAjEKms4cSsWi6UFpJ5xTlgYQJTM1nFFaRsPCP0W/kP8quPOJlwXJJpJVrjI5niYDDDjvM32P9beIjZIWlkY0i8pMVliYP6bxzLyldjBDkGU25a/JHwhJ/ksIqks98ALFEAUs0xBXTmjhr3AhZ+Vx2WBp4DgUfSvk4YblLOLgFkR/JZxTAgpRPeA1wC0n1F+U0y01JulCYIrth3QmRfEiLe6WQXuJQVpmW1YZr2t4i7XO1clgGxJdZB6Tz/vvv90oTUR6gcCa/mKlA/WS0KIpQlEzSTqMUI56gcSPpoizYCFvc0DZIukSeUUK89dZb/hrtBv6iDJd2Azm54447/P+MCl67trG/9PTTT3uFRFl1R9zwDDN28EsULvH6lQZ5g2KF0drx9o0yJb/IF/6P16d4PYu3veQvI6PJL/bSgaR0VYKmTDXtRpF8znKjkR9NnKEM+Skr7dVCPImDtZkt32YKUqeT4gKh/IT1FaTPJuCOWR3VlkVW/mjiI7JKGVbTNy5LDsv6LtD4o0m7xp94+xz6I31jjZt6QyM/gslzsj9lpV3kJyldlchYWeUFklfSpzEMwzCMeqA9RqHx4zZ44wiMGb7R/+6/+5ezaDAQ3TWrszfWYIj49lFfeGPQik/beaPOt49uNBKt+rRxBg7Pc3D///2mS5PBBzRuMBbJfYmX/Ca+wocr27tbf93Zrfi4nTv6kC+fKcI1t3f1xjDC4dmuGLrmdozu7tig1AKUA3SOwoNODtChYcQua5pznQ5+vKOn8acsNPEB7hEf7qEoq+SjVxMW9xjlLOklL1CMsCZ8ERhZJX4AnVD5LSNdi4SFco5OqnycFQU/SSvKPcJCOcOIsKRldrLC0shGEfnJCkuThygNybOkdMlHgKbcNfkjYUHoho8tCatIPqOI48M6abaCJs7augNZ+Vx2WNUSljsfoiC/y25/Zs6c6dMF+M/IfD7uitb3aikiq0K19VQLz+S1vRo3UK0clgH1EGMFdZSPeEYUMwKWJUhoY1iuCqif1FsUAWE7PXjwYH8fNG5IF8o12oFwSTUpoxDiwcwc2g1GuJIfYbuBnEyfPt0vbYIb8Usoq+4g/6SJZ3iWmQKigNJyRLTuP3kUB+VOmEd50Pay3wwQH/KaehofQVwGmjKtZbuhkR9NnKEM+bE2Mx+e2ZHaTAE5k3YBmRQltaDpswlijMe/OLXsQxbps5VVFln+8HxYh8mLSr4LNP5o0q7xR9M31ripN0yea9uuZvmj+dYrImNllRfGLGYzEW8ZdGEYhmEY9UC7Hj16tI110wrwk9PXeyPRjj5jyDAMozXAByYfaijjAcVzSymzqoUPPz7IgQ9FPpD5+OQj1DDKIGmGRb0ho2i3dxxpO6z+Gcb2AWX0lVde2WQ4DGeOGIZhtAVkdhJgFMJAlTQIxjAMwzC2F43TdwzDMAyjTkGZJEah1gQfgMS9Xke4GkZLgDKYmSEs3ba9oQ6y3xDLcRmGUVt492EIYsYQBlqWwjUMw2hLMNOI9o/Z5yxTZ0YhwzAMo96wGUMJtJYZQ+z99I3RG5vtu2QYhmEYxo5Lvc0YYpYcxiBgnxqWEmK2HEvLsJTY9kT2IRDqeZaVYRiGYRiGYRiGYdQSmzHUimHvJ5aQM6OQYRiGYRjbg3DvAvapYZ1+Zghsb6MQsCcbe7IwWpfDMAzDMAzDMAzDMIxGbMaQYRiGYRiGYRiGYRiGYRiGYRhGG8FmDLViWEqOZe+OHbMhumIYhmEYhmEYhmEYhmEYhmEYhpGOzRhqxWAQmvK99W7Wc538knKGYRg7IuypErJs2TI3derU6Fd9wZ4mY8aMiX41wobbLGllGIaxo0LbN2DAAP9/vbbPhmEYLQHt39ChQ93SpUvdPffc45YvXx7dMQzDMAzDqJyLLrrILV68uEWXaS91xtA/XrDG/fv1n0e/ktG4CcH48cOT10e/DMMwjLYGG+337t07+pXO+PHj3XnnnRf9qhz8ufPOO92TTz7pjxtuuCG6Uww24CfusjG/YbRmyqpfxo4F7Rvt5VlnneWOOuqo6KphGEbbYuTIke7UU091d9xxhzv99NOjq0ZLg8KMvnqltLW+DYPtqsmvlqQ1l0W1clg29RafesPyp3VTz+1Y2dCfYB/fHj16RFdahlJnDGH0GTpgsztxSnqkNW5C7rt2tevWZYu7/l+7uMde6BRdbQSj0f4DN7vHX+roFi7uEF1tO1Q7Y4iP+QsvvNB3ZFFgrlmzxr344ovupptuajbSCWGcMGGC23vvvZvchKNBtf7woueejJynMr/++uvunHPO8b+15MUHaOwPPfTQJoXsvHnz3N133+2ef/55/1uLNu1suB2GdeWVVxYaLTZs2DB3zDHH+JkGhJWUL2WFBZqyKCMPJc5ZsqFxo0GTh3Q4L7744ujXl4RutfHJyx/xJ6+8aiWroHGjoZZhAfLJxvHXXnttdCWZRx55xJcZG9/PmjUrulqMww8/3F199dVNcV67dq0vr0pm/Ii8aeJeKWXks1bmy2o3ainzRjbI6KhRo9yDDz7oFi5cGF1Npoz6VSusXtSuXvBxhgE8qZ3Ley+nvZMF8vm0005Tl0Uemn4C1FNZSNqr7ftp/clLe5H4cJ/0S34/9dRT28iIxk29YPJcu3Y1j7S8TsqDNBlrifLCz8mTJ/v/eSbvvdrWkDwvs1+MfKM0q3RgQhl9m5ZIV6UQl6x+nbyzazWQIy8+IbXoZxaJTxGqlcOyqbf4VEpbKa/WQEuVRSXUczuWB34VeV+QVgZI0x8JKepPHnW/x9Cjz3V08xZ1cPO3HnEwCo0ft8H1331zdMXQQieXEU1jx4518+fP9wK1ZMkSX7l+/OMfR64aBe7cc891Xbt2beZGPgS0/gCjqKhQ1ZAXH5CGfuXKld7NnDlzfLiXXXaZj68WTVjXXXedT/v777/v3fCxRViXXnpp5ELHSSed5POHOKdRVliQVxZpeXjBBRdELvLRyEYR+clDk4cCH46EJQdLfYE2Ppr80ZRXkXwmbsgkioA4GlnVuNFQy7CKwgcF+Tx37tzoSnFOPvlkf77iiit8fHnRVmIUaimQAw4oI5+L1MFK242w7a1l+5xUV4zmkPeUx8CBA6Mr6ZRRv1oKqxeN1LpeEB4fZsQ36aNE+16Ov5ORM3j55ZcLlUUemvgUeS9nUYYcQll9v7L6JNr4MMji5ptv9jPJ+KCl7OJKdI2bMihL5k2ea9euaknrzwsaGSuzvFBmT58+3Su3J06cGF016pl67ttUAvWbOq/p19WCIvGpRVnUW/4Y2Vh51Q9tuSy2V9rlO4sBLS1N3RuGfvFAF/c3N3VzH66s+6i2KugU33fffe6SSy7xlkY+6BlhxfUDDzwwcuV8BYDLL7+8yQ0daDrEdJa1/iDUwIdkNeTFB4488kjfaecebogXcaSTfvTRR3s3GjRhXXXVVT7t559/vnfDmbBpPIqA9RkrMM+nUVZYmrLYZ599/Ii4MA8ZBU26+cjSoJENrfxo0OSh8Pbbb/uw5BDFvzY+mvzRlFeRfD7kkEP8fRQBcTSyqnGjoZZhFeXGG2/0+Ux5VUpDQ4Mvp6IjaVsa6i0j6O69914vC1BGPmtlXtNuaNreWrbPU6ZM8UtcsfZ/S8pdW6GM+lU2Vi+aU+t6gbIUUJwmoX0vx9/JzNQEnteWhQZNfMro/0BZ78Gy+n5l9Uk0/uAeo2b37t19/STP8SscZKFxUxZlybzJc23a1SKk9edBK2NllxfGIeoEM4yM+qce+zZtFSsLwzCML6GPRR+OvQtbGm9tYc8fjhlTV7uxIza6Wy9p3AdIfsOwQZua3LG821U/XuuXMkviL8Z/4d3gFr+S3GW54X8JS46Qn5y+3l9jthCwnFrcrfhx+Y/W+XA4JEwO0gN9e2/2buRZ/hf/d3ToGMeVn4woCzv4Q4YM8R3/cMqcjMYSJYzGnz333NOfZRRWpWjigyJlwYIF/n/hzTff9OdBgwb5swZNWNwL006aGU3HiLwi4E9eJ6hIWCirGHWTNJJPUxarVq3y57AMgYYpXtZZYWlkQ+NGgyYPQ4i3KPVCNPHR5I+mvIrkcxYaWdW4EbLKtOywqoW4ouQIjzhMwRWlEOnCDdfSlCLkfxospYISGj/wC2VDUVnVgr8sU0V4KCRQwlJv33nnHX+/rHwuqw3XtL21bJ9fffVVX+cYKYzimrIqoggLQc7Ya0pkjDJhJHZInmxo5FArq9yXsDiS5DArzpy5Jso+URbKIWjqF5SRdi1WL9Kpdb3o16+ff++G4YVwPeu9TJmFI/QFFKooVsXfWvYTavle1sDzYbjEq5K+n8afsvo21HNkmpkTacsBadyURVkynyc/Js/5FEl7ljyH4I4jTp6MtWR50Z4TdpKcadOVBu9OjpCka7znee+G72/emyF5fYnwOdIi/snvomTVdWb2SXjkD/2XeLkSN+Io7uJ5iHuu4wY/OKTfwSGzB8VdeMQhP7X9lmrbME3ak8o4vKbt1wl56cqTDZ7Jyp+y+5m4y+qH5+VhkfzJS3ueHGrRlnueHJYVn7g//C/5Jsi9rDahjHS11vKCPFkFjZu8dAHPSBmEfoVo3GRRpCyq1ZNQ/jwbL6O061n1AjTxycqfImnXon1fIG9847J0bVJfr+y+szcMsUfNG++2d3122eKOG7PRvbe8vZs9t6P//Zff+sI7BNxxsKxb/902e4NMktHnyIM2ujkLOjT5gTsxxAhZbpb+qX1TWMQrzh/fabwv915Y0LHJPUdIQ6/N7lePdvb7FA0fvMk9tTU8/v/G6EaD1znf/sKNGb7R+8WzXbfeG31A4722CNPs6fgLdGr5qKACUTFoxGRkbNZoxbg/AwYM8OdqpwZr48MIuZCiIyuhSNqpuDRMLLHBx8K0adOiO+WjCQtlFfFn9kMcTVngJx9FLL9A2nlxMTLu9ttvj1x8SVZYScRlIwmNm2qgcadh5+AlQX5mEY9PkfzJKq8i/mShkdUi8pxVpmWHVS3yYc+RJTOsK8/68kzFRYHFtFyWRQHiRzw5KGsO+c1BGQKdC3mG8BYtWuRf2OytUCaER8eFTgnLxJB3M2bMaBoZLMqKlsznuMxr23BN21ur9pmRh+QZeckSMCh72D+Kzh9lqQW/aStQjNEJpOzXrVvn2xFpO7SykSWHQp4bwkLBCYRFnEgbbYyQF2cUYVyTMiYcfsshaOpXmWnPwupFPrWsF0CZ8l6rFMqMEfjhxw1xIB2idE4jXhZlUcv3chGq7fsJZfVJsvxBlvmI7dWrV9MHOWdpL0HjpizKlPksTJ4rIy3tGnnO6s/nyVhLlpcocXbeeWd/Din63VQJDJ4QRZa8w+UQSGteX4LrpJNyZ6nl9957z7vjd5H3txaJI/WUfKJckTWBfgX9C+KEOwYnsH9WHPIWGSefkU/6Hfwvqy6U8e1QNnlpz0PbrxOq7WdCVv6U2c8kH7L6tIL4k5SH2vho0q6VQw0Sfla558lhWfGJ+0M9ivvDde7ntQnVpqu1lpdGVjVuNOnStPMaN3kUKQspP65XoidhEAZ9FvopId/85jf9+be//a0/C3ntWF588vKnaLtaJmeccYY/12K2EHTkz89ndvGzZIYO2OxWfdrO/4a9dlvjr8HCxR38ITDT5rbL17hRQze5x15oboy5/u4uTW4xHGH0wRATPp/lRg6QeIUQ3mNb+2ty7/lXO2wTB+HtpR3cb57s5P7nn693y5a390al8eMa75EGMQr9r+t2ary4lX+8YI03VrU1qDw06nEh50OARopKQyf7/vvvj+4kk+QPDTCj05KsnSANZBr4Recd8uJDxaVhwGrM8gC81KTzvXr16lLDAj6Ob7nlFv8/6YuP+i0TbViMbuODR0Ych+SVBXCPEZYsbyONJS8krsXJCitOmoyFaNxUyieffOLlg3QQX17oKBh58ZKGpNGTSfHR5k9eeeX5kySruBO3RWVVW5fzyrTMsKqFeHIAygrqfhrXX399k1sURHQOgI9GyVMh/E2ngOfY5BlYSkX8oZ0hTMparlUL69cSN1HmZI3qbYl8rqQNh7y2FzRutGjTjtKHgzL6m7/5G/8hQlnOnDkzcpGNyAL7ToVlQf0UhVIR2UiTw5AsN2yiTTmg6BTIB9oxRkoRR02cOUudod2R6yHEQeKRVr/KTnsaVi901KpeAIq2svna177mz0888YQ/J9GS/YS893IRypJDyqjavh/k+aNNe54/yDL1lLaKfVq6devmDjvsMN9GUW+Jo8ZNHkX681CGzBfF5DmbrLRnybOmP1+JjJVVXmI0S6LId1OloHCErHelpi9B/ZF3P+Uv9Une8ZXA0jhJkCdhmZDHGPJ471Nv+U2YlDvL+Qm4icN7lHqNUpCyoB8v8g9hWJV+O8RJS5eGvLRrkPYtr18nhOnCYBwaeDWyIaTljzY+YdrTykLKLqtPG/oD8TzUxicv7dRbntfIYR55cQ5Jy+ci9SILrT+aNqGMdLXW8tLIqsaNpg5q2nmNmzyIE0deWRT5HsyCgRm8z8P8wFDE+zyehqx2TBOfvPzRpr0oee8LZIv+CoaorHyr5r0TZ5vpOBhOBIwlJ07p4f/HiPLDk9d7ownHxWev89f32q250QZCA1CawUbjpqUZOaRxhhLGo5D477YADczZZ5/tKxwd1hA60qyzTKcqbwRVmj9UJK6lEY4WSToIW8iLDxvgco8waXixwMsHEC+HMsMCKiuVkoab5/n4KmIZL0KRsGjceKHEySsL4MV8wgkn+FEJEh7LcDDykIY0TlpYIVkyJmjcVAPxpFPA6FEadcKQUZNHHHGEP4ekxUebP3nlledPKKu8GICOjVwrKqtF6nJWmZYdVq0IX6x0ZgU6teQ/B/nLIb85pANA3eFe6A8fn1DmZoTMPmBNe2RBRjUzoiWp7pWdz5W24ZDX9oLGjRZN2ulY0ZEmD1Fk9unTx9elIqOl6TRS7vEOY9gxLCIbaXIYkuUGZSbponMqBx8KIKOTNXEui7LTnobVCx21qheQ994vCvHio448DWUlpKX7CUX7P1mUJYfkhcQlqS8RkvXuzvOnrL4N8NwFF1zg368s/SGyFe6TqHGTRZH+fFkyXwST52w0aU+TZ65r+vNFZKzM8tp3332j/5LJqqdl8Oyzz/pBC/KuJO0YtEI0fYmQsD6R98hTmRAX3uko7jikTWEABsiShdK/EF577bXov5YhlIWi/RYteWlvCcJ0xQ2ZRWSjFvmj6dOWlYd5aS9TDovEOS2fy4pPJf6ktQllpEtLvZWXRlY1bjR1UNPOa9yURZHvwSxkhozIE+9d8iKp35HVjmniU8v8KQKzhRh898ADD0RXWp5t12lL4W/PWeeOH9e4zByGE63xRPYoykLjJok166N/jKqgsrE554oVK3znOYSKQmNHhWKpFjrBjMqCxYsX+7OQ5k/44YG1VQ5gKj4favhPpz3tkIZSEx862tyjMeGggvPRyrP4U2ZYIYSLG9aBpCEq+sFVhErD0pQFMPIBv+WFRXi8kGigxPpehCwZEzRuqoWRB4QTMnv27Oi/5mTFp2j+pJVXnj+hrHIdeKFVIqtF5TmNWobVVkEOwqVvmKbPyBmUWXRaRH7Kzudq2nAg3sQjre3VutGgSTt+M5KLjjTKIZYdmzhxoh9hHu+Mtzb4GEM24kfekmZxis5G2Z5Yvcin1vWCJcT4eC0LRkhCJe/lsiir/1O2HAJxwZ94X6Ioaf6U1bcBZIP7QlKZatxkQd5KfyjpkLqzvd4FJs/pVJt2bX++iIyVWV7du3f3Z2Y21QLKM2TmzJlexpF13pWMtmb2DO/KkLL6EmWA8RIj5rJly/y3TlyRuyNTadrj5Q5l9etaWz9Tm4ea+NSqXuyoMl9mutpyeeWlS9POa98FGmpVl3lnk3aWzgNZRi5rJm+laPOnVmkX+AZMMh62JCrDEEu99e/buFfPP9zZ1S81N/Nx3Syfk45o3IPopYXphiSNmyTe/aAx+rs1VLbsG3sZQb/YrKeGXm1jGTksrygxsJAy8olObth5BtZijH/ssZYjSMc5z58RI0b4M/4wElYO4FnxT4MmPiH4z7RCzqw9XYSiYQmy/EstyAqLDxjSHVKkLPgADGGN7jSSwgKu5cmYxk1IWlgaJk+evM3HnHwISoOvjU+R/BGSyqsSf+JoZLWoPKflc0uE1VrgBR1PF8upACOXWwIUWyivJk2a5EdAo9SSUS5llWmezFfShnM9r+3VuKlGDqlbjAinE40xAUVWVtuShoRFXNKopWxQRow248MA+QgPSZ8mziCzUUTBVwlWL9pmvQA+jlFM5cmZFlkC4qGHHvJngbTWqp8AZfR/ypLDJIr2/dIoq08S94eywTgaxiPe19K4KYsyZb4IJs/b+lNW2jX9+aIyVlZ5wfDhw70xLU2pU22ZhgYB/Eky0BNHZJ13JXKPQRB3hA2kJa8vUSsw9BE3ZnRhyMWwS9xDpD8R76+gyGvNaNIuaMq9jH5dmbJRRnzy+rRF8jAvPnlpL0sOi8Q5i7LiU2/pElpbeeXJKmjcaOsg/xOPtHYeNG405JVFmd+DGIZo75i9Q1nxm4EpRdDGR5M/ZbRjWhhYSPveEoawLNqdckyXLfsP3Oz26b/J79fzwoKOfp+hx1/q2LTc27BBm9w/nL/WsRfPI892ct27OXf84Y3GnG5dtrinXunofvFAF7/EHH7Meq7RaDT6gI1+r57Zczt6gxJo3PzF+C9cn8g4I/ES9yx1J0vPsbzdTRet9f/PWdDBrV/fzv+PgannTlv8vkU8hyHr36//3P/P8+F1iQ9pYxYURiGWmCNdsoxevSJ7M0laioLigU4wHVc27Qqh8tHw0AhSSagwrM9MZaKCUWFoFEHjTxL4QYUN1/vMQxMfKj9LBMg9CO9r0YTFRybI1Fc+BGhIiqZLGgBAsSRhAss20BAWCQv/GBlJ/jOyL494WTA9lrRyjdEQLB/BOpdw4YUXNmuYs8LSyEYR+ckKS5OHfNhxLyldjBbgGU18NPmjKa8i+czLieUrmEYb74hoZFXjRsjK57LD0sBzKH/phMUJy13CwS3Ey4uR+ILIQngNcAtJ9ZfOCaNIJF10DpCVsExDJB/S4l4ppJc4lFWmZbXhmra3SPtcrRyWBXWPUcJ0UFEuSp1GGUocQCMbGjnUuJG0U15sfirxof2QtGviDMjSHXfc4f9nVPnatY19qqefftortDT1q6y0V4vVi9rWC0DOUJYmxQVC+aGsJV4g72UBd8zqqLYssvJHEx+RVcqwmv5PWXJYVt+vrD6Jxh+p25L20B/pa2nc1Bsa+RFMnpP9KSvtIj9J6apExsoqL5C84t3LOU5WujRQB5kJxvMsnUNZAEYw4sfMWtJOeuWdzrtfRl8z4h0knqQrqS/BfdItZS19ibislwHvQGb/Up7sXYXxUox4DPyQdIk8h2kX4x99CUmT9LuRT/7HfXg9rDuSvnjfphb9FtCmXVPuQLqy+nWadOXJBmjzJy8+mrLI69Nq8xDy4lMk7WlyqKGozGflcxnxgTx/NG1CmemC1lZemu8vjRtNusgvfme18xo3WvLKoqieJA8GxzFDlz4mM3pC/ZdGfjTx0eZPXtrLhNlKyBRGqlrSHqPQ+HEbvHEExgzf6H/33/3LWTQYiO6a1dkbazBEfPuoL7wxaMWn7bxR59tHNxqJVn3aOAOH5zm4//9+06XJ4AMaNxiL5L7ES34TX+HDle3drb/u7FZ83M4dfciXzxThmtu7emMY4fBsVwxdcztGd3dsEDigUaIShQeVBngZsxkX691znYoZ/wjQ+FMWmvgA94gP9xhRHL+vQRMW92g8JL3kBZ0Z9gsoAqPuxA+g8ZHfMgq6SFi89HiRyEukKPhJWnlpEhYNLKMb2CQv/jGQFZZGNorIT1ZYmjzkY4A8S0qXfCBq4qPJH015FclnXjq8xOJGIdDIqrbuQFY+lx1WtYTlTgcB5HfZ7Q/TjUkX4D8jeejQJdXBlkRktawyLVIH8+CZvLZX4waqlcOyoO5RJ/mgCOv04MGDIxe1lQ3SjoKAtgIlgcRHyhE0cQZkafr06b7jTfsj7gRN/bJ6kQ/P7Gj1ApAzZIz8QCZ574Zo3suCfGDjX5wiZZGVP5r4FHkvl1UWWf7wfBl9P40/mrRr/JG+FoT+YIiQeqpxU2+YPNe2Xc3yR9OfLyJjZZUXSm5mMxFvUSLFyUqXBvaHknaX5WZQUgLlz/KqgHKL9Eo8qbOSP0JeXwL/+S3vfnETl/UyQBZR/FGeKENRiDETjaUAw3Qhz5J24sKsVTGGFkHTt6kV2rRryh2Q7ax+nYY82ShCXnw0ZZHXp9XmIeTFR5P2MuSwSJzzKKte5Pkj17PahDLTBa2tvDTfXxo3mnRp2nmNGy15ZTGz5O9BDGL0NXhfJum/8tDER5s/ZbSrGjAIkmbpu9SSdj169Ggb66YV4Cenr/dGoh19xpBhGEZrAOUDL2Q6X0CHrqUUndWCUoCPHECJIC93FBSGYRg7GnwQswGvKAoqHRloGIbRWpGRyoASC6USyj/DMIzWjMyYRBluGEbLQn3DgLU9Zs43Tt8xDMMwjDoFRaMYhVoTKAeIe61f7IZhGLWC9g1DECMbMYKz3KlhGEZbgpHftH+MKEehY0YhwzBaOwz8QUnNfjeGYbQ8zChmH6vtoTuyGUMJtJYZQ+z99I3RG5vtu2QYhmEYhmEYhmEYhmEYhpFHuN+T7LXC6hcsx8WyXIZh7LiYYSiB1mIYMgzDMAzDMAzDMAzDMAzDqIRwSUxmLDB7gZmQ7HdjGMaOjRmGDMMwDMMwDMMwDMMwDMMwDMMw2gi2x1ArpufQcW7A9691u/3ZmdEVwzAMwzAMwzAMwzAMwzAMwzCMdGzGUCsGg1C/CT91H8+b5d6966LoqmEYhmEYwq233hr918iyZcvc1KlTo1/5sOb2mDFjol+NsMH+bbfdFv0yDMMwDMMwDMMwDMNoXZQ6Y2johb92I/9+XvQrGY2bEIwf/U/TK3DqgdYY5/Hjx7vzzjsv+lU5+HPnnXe6J5980h833HBDdKf1gTKRNGShcRNSVj7v6LDGbZF83ZExOawey8O2zX777ed69+4d/aoONmHFP9mc1TAMwzAMwzAMwzAMozVS90vJ7TH+PNd79CmJy6VxjaXUWFKtnsiKc70yefJkd+qpp3plZ6Ucfvjh7uKLL3Z9+vTxClY2q5s3T28EbAtk5TPXMIgMGzYsutIc8pRDRrqT33KN5wSU1ffee6+//sgjj7hrrrmmsBJTlOThgZGPMA0d8fyrpzxsLXIo/oaH5WHzPCQMrnNf/LC6ui0vv/yyO+ecc/wRny10+umnNw1oIB/j95kZJM/edddd0VXDMAzDMAzDMAzDMIzWS90bhlb9/lG3dskC9+nrz0RXvqTbgOFul1HjXde+g6Mr9UFWnOsVlGEYcebOnRtdKc7JJ5/sz1dccYVXrF177bW21E6MrHweNWqUO/74493AgQOjK8kceOCB/nzIIYf4cwiKZJTVgGFu/vz5buzYse66667z14qCHxxz5sxxQ4YMcZdddlmqstvYluXLlzflIUrnesnD1iSHlofpeUgeTJs2zV9ftGiRd0ddJfxvfvObkSsjC4x45557ruvatavPvyVLlrijjjpqG+OQYRiGYRiGYRiGYRjGjkTdG4aW3jvVLfr59936Py2OrtQ/rTHON954ozv//PO9ErZSGhoavFLt+eefj64YcarNZxTjzBhAITxixIhtZmSdcMIJ3m8UnRjmmMGFsnPvvff2+2QUBT/En+nTp/tllM4444zorpHHypUrm/IQRfN9993n8/CYY46JXGwfWpMcWh6m5+GUKVN8XsyYMcPHRdxNmjTJDBtKMODB5Zdf7vOPWUGvv/66Nw4VneFmGIZhGIZhGIZhGIbRWvCGIfb84Tjg8tmu4ZAJbtgljzb7DSzXJu5G/N0LbshP7kpdKq3fhL/2bnCLX0nustzwv4QlRwjLx3GN2ULQb8JPU93moUkX+yIRx3ic+x53buQiP871CCOlUU6GRxyWFGOJHRSRjJDHDdfSlilas2ZN9N+2sFyPZmkp4sX9ShWbkhbCIp6yRJD8BpSx4o6wWHopaUkoCNOOX0nustzk5TNLR3FNFJQodtPcrl271hvfTjrpJL/PRahMJhyUxCyZFCqrH3zwQX8eOnSoP1fKrFmz/Llfv37+LPHLymfIK3f+55r4l1TuyBxHSNI18oCyFL8IN1yaCygriQ9HPD7hs1npqoT333/fn7t37+7PJofFsTxszEPSzXPMEIrPzFy4cGH0XyN5dZB6RFrDtHMtLu+kD3dhmvBXSKqT4TXJP8InHA4Jk4M0CVyvRT1lBhqGoDDPXnjhBX9OmsllGIZhGIZhGIZhGIaxI+ANQx/Pm+XWffiW69ijt2s49GS3fuV77rOFT/vfewTGD9xxrH73VdepYU9vkEky+uwy/H+4z998sckP3MX3AcpyQ1wkLP6Ps/bdBc3uff7WS03uOYoiz2Wli+sNB53QLM67HzlRHed65J133vEj0DlQjKXBCPUxY8a4p556yishUUYyih1Q9KEs5GBzbw75zSGKPhST8gzhsewRyx9deeWV/lrInnvu6ZWizECqBEkPSkSWt3vvvfe8wpDfEgeQtLNEE2GixA2VwMLRRx/tXnzxRe8H+yfhLlRgQpabvHxGIRzeI4/FPUcclJZHHnmkVxiLkhx69erlz/GZB6LwrDQ/05A4Z+Wzptz5n2v4hRsMT4ceemh0Vw9lR76j6CUe+LVu3TqvpEfJDMTnrLPO8v9zH3cjR45stjyXJl2VImW0evVqfwbC4zA51GF52JiHskzd0qVL/TkNbdub1c4DS9uJwStMU1K68iD+t99+u2/nWfaOMPkfIxnUsp4S7qpVq/xzvLOQGykL4mYYhmEYhmEYhmEYhrEj4g1D7951kVv3wSJ/YePnK9zbt/7ILf7lT7yBA4MIfPbGc94dB/ff+qdGRWuPfQ/z55Cl/3aFf57jg1k3+msNoxv3nxGy3IRhSbxClv/uzmb3PvvDU03uOSBpBk94MOsIiqRr+ezbmuL80Zz7XLtOXd3Oo47z9/LiXI+gZJQlmt5+++3oajLXX3990zJFKA1RIoLspcGBYo1DfnOI8lKWfZLlelj2CKUeyse4YpbR75dcckmi0UhDmB4UfsSZWSiEJ/EO0859USSiMI1z1VVX+ec5WE4NRIEpZLnJy2dm4oT3UG6Ke4447GmCMvO1116LrjQyaNCg6L+WAWUtLFu2zJ/DOKflc165Iy/8zzWWcMIN50pA3iDc4+rMM8/0Mw1kRsWECRO8Ev60007z93HH0mTEV2YZaNKlJTSU4sfZZ5/tZ9Xdc889/r7JYT6Wh9m8+eab0X/JFGl709p5wOAKN998c7M0VbKPHPkzc+ZM/z9GmLgBrNb1lOcxHtOGnHLKKdFVwzAMwzAMwzAMwzCMHZdt9hhiNo7wxrRvu/k/axwx22X3Qa7/aVP9smocA8+c5q936r2XP4dgJBEw4iShcVMN4QyepEPSWSRdYTyXPfR//bl9527+vKODQlRAiSagnGMvBg4Uchzym0OWHxPlf+iPKPWSNmhnnyIUg9USKhwxOBAnwCDBCHhZ5kiMULJMWkgYZ0lPHI2bsiBvSAdK0JAy8iuOKOQxrqBwDxXyIWn5nFfuslSTXBPiinINsiRUfI+rsDxQGFP2KOzlkJkJO++8sz+HpKVLS2go5VlmuWC4krIyOczH8jCbvFktRdre0E3YzsOzzz7r6//VV1/tl20jzmIsLpta19Nu3br5ZfrwR5aRMwzDMAzDMAzDMAzD2JHZxjCUxj4/vNk1fPV4t2Hle35GjHZWjOxRlIXGTRKbv1gb/bct4QyepEOMPJWmy2jdsCQRm7sz+wUladwwkYZm74oi+1uEhEtjVULa8kcoWCGu6NUgCnmWcUJpikI+VB5vT5hpUQmkA0NX/GD2RtmEhlJmYFAWH3/8cXTX5FCD5eGXhHnIsnbA0nm1gBk+EydOdDNmzPDLth144IHeWIyRKIt6r6cYuzAi0q4xm4oZUJKnixcv9mfDMAzDMAzDMAzDMIwdDZVhiGXZWFLuT0/d4ZdRw7Dy4WP/FN3NZtdx3/Xnz/74jD8noXGTxPoPGvfy6bjLHv5clKLpCvcd6hvsvWTkg3I3vnTRPvvs48+i4AxBIStK0LJhDwlGpLPHBaPeiyyH9N3vNsrq008/7c9JaNwkIUtCVaroZXYDSk725wnzTvbXeeONN/w5JC+fRSGP4h2laXw2Th555Z6m3EbpHCdUMBPn+HJR7J1CWFnKfDb7Z2YRymXyKzwqnemilVVmPQDKdTA5/BLLw+Zo8hBDBvUL45FcT6Jo25sFdYT8Zdk2lnmjPMj/sM7l1VMNLVFP05B2I8wf9lqC2bNn+7NhGIZhGIZhGIZhGMaORoe9jvnh1F3/7Puu6x5DXMcevV27jp1cz/2/5javX+O+WLGk0VHXHq7h4G+5jt0bXPuOnbfe/7rb88QL3OZ1n22919Mvx/bpH550fcad4f3g984jj3V7nfK/XZfdBrrPFj7tlj1yvfdL46bfhL92vUef7O9LvMR95136uTXvzvfuNm0Nv8/oP3c79T/AdR84yvU68CjvhuXd1i3bVvkYp2i6uu7+FddzyFjXcNAJW5870bXr0NEte3iazydtnMuENPfcb5xb9+Gb7pNXH4+u6kGZeNxxx7mvf/3rXlG46667ur59+/rfPXv29MpN9nrgOopXgfso7cJrgFt4+OGH/TkEZeHo0aO9wo2wWIII5T9Ky1/+8peRq0aI14UXXuiVdSgCi4Ci+Dvf+U5Tejp27OiXK1u5cqX76KOPvJtOnTq5b33rW36D940bN7qDDz7YTZ482X366ac+3eQBm89L2iVPpkyZ4v1FGfqrX/3K+6Vxo8ln+OSTT3y8DjjgAJ+/5BVuNm/e7DeYZ28V3LKkk7Dvvvt6N3K9f//+XlHMBvqERfz4H0Ure4yEZOVzUrmHaPIZ8sodtyiVuXbQQQf5uLNkFEs7de/evSl80hi6IewVK1b4/WekvMi/cePG+RlO+++/v48Pz5GWxx9vrB9r1671+UE+jxgxosnNscce68tMmy4hKw8pL+Io9YEyIq1f/epX/XJVUt4mh5aHUEkekjfIPAYk9hIaOnSo94N6hn+kXdP2Stqz2nmWlKSeSFp4hvzesGGDN8gB17PqKfUoTKPkw4cfftjsetn1NCm/Q/Bb8of2B1kknEceeSRy8SXxcjIMwzAMwzAMwzAMw2iNtO82YLjbZdR417XvYH+hx+DRzX4Dy7It/92vvAGl34Sfuj5jT3MfL/hPt/Hzld4A0nt042bN/Aae59i4epX78PFb/WwcQeOm59DDm+5LPOQ38RXW/2mx+2DWjd7PnsOOaHKjRZsugXvd9h7uw9q0fo2Pt+yVpI1zPYEiTJYKQxEG8hulXpnMnDnTb1oO+I/CkWWhLr30Un8thGWUGC1fydJnxDtMDxvQ8zvcS4OR9iyHhLJSRr4zMhylIiPcTz31VO9Owpc84T5pCPcD0bjR5jMj4dnsHkUqs3TETRFQ0LJJO/AsS8CRzxdccIG/FtLS+Qyacud/lo0SP1kS7OWXX47uNjJt2rQmN0ceeaS7//77/fWwvJjNxFJ3uCPd+MUxePCXbRmGB5ajYpaAxJmja9eu/r42XULRPJR4M+PF5LARy8NkNHmIzGNU4zoyLOGQH+QpFGl7s2hoaGiWFuJDPaLOCZp6qqHsepoFYZE/69at834wwwmjUFjuhmEYhmEYhmEYhmEYOxrtevTosSX630hh6IW/9sae+T8r11hSLSxth0Hr43mz/DJ4hhGCcvPRRx9tGs1vGNsDk8PqsTysDvIPYx3GPsD4XMTww0wxjILADCyMR1YehmEYhmEYhmEYhmG0ZlR7DBmG0fpgxgBLTIV7ZxhGrTE5rB7Lw+pg2TwxClULZYF/Ze91ZBiGYRiGYRiGYRiGUUtsxpCCep0x1HPoONcw+mS39t0Fbvnv7oyuGkYjjHJnvwyBZaAMo9aYHFaP5aFhGIZhGIZhGIZhGIZRJh06d+5sC+nn0GfcGX7PoQ8f+6foSn3wxYol7pNXH3dr3p0fXTGML3nllVf8Bv0dOnSwjdKN7YbJYfVYHhqGYRiGYRiGYRiGYRhlYjOGDMMwDMMwDMMwDMMwDMMwDMMw2gi2x1ArhqXkBnz/Wrfbn50ZXTEMwzAMwzAMwzAMwzAMwzAMw0jHlpJrxex8wFFutyPOcpvWfeqXlDOMloAN78877zz3ve99z+2+++5+WSvDMAzDMIxaQD/ksssu8/ur9e7d27322mvRHcMwDMMwDMMwDKNSSp0xNPTCX7uRfz8v+pWMxk0Is2H6n9a6bFetMc6GkQTKmGnTpnllzE477eSPWnDRRRe5J598MvpltBSWz62X8ePH+7KT49Zbb43uGG0J5ADDvWHE2ZFkY+DAgd4gNHLkSHfuueeazBuGYRiGYRiGYZRA3S8lt8f481zv0ackLpfGNZZSY0m1eiIrzobRmkAZgzHo0UcfdWeeeaa78cYbozuNoIwWw4IYGVBGCXI/6ShKXlgaZPbTnXfe6Z9PUqbvtttu7pprrnH33ntvU1xvuOEGf70oleQPYR1++OGRi9YL6STN5HkSkvZQwZeUR7WkDBmDsvzJ4p133vH1kmP58uXRVSNOnhxCrcpd7odHtfV98uTJ7tRTTy1dvkLKyB9N26vl9NNPb/LnkUcecVOnVjYQR5Mu4izvAsLi3VDJu6AsiB9xzZJnIUs2iviTRa1kY9asWb4PMnHiRP97xIgR/mwYhmEYhmEYhmFUTt0bhlb9/lG3dskC9+nrz0RXvqTbgOFul1HjXde+g6Mr9UFWnA2jNfHJJ59E/1XGCy+84BXXc+bM8b9ff/31JmX29uCkk07yirKVK1dGV7bluuuuc2PHjnXvv/++j+e8efPcqFGj3KWXXhq5KB/JE/JpyJAhfsmcahV22xvy7Pjjj/fGxSzGjBkT/WcUYeHChe7aa6/1R5Y8t3W0clhLyqzvGCtoo+bOnRtdqU80ba8GjA7MGOnatavPwyVLlvgZrZUah7LAWEGcgbDmz5/v3w28I7YXReQ5SzbqqV5UIhvLli2L/jMMwzAMwzAMwzAqpe4NQ0vvneoW/fz7bv2fFkdX6p/WGGfDSOL555/3sxGGDx8eXSnGbbfd5hXXMqL47bffblJmbw8efPBBd9ppp7nzzz8/urItV111lbvkkku8G+LJGeUjirSWQvLk4osvdtOnT/eztM4444zo7o7LmjVr3N57771DzJAyDC1l1ndmcdJG1fusMU3bqwFjBlx++eU+D8855xw/4ADjUNkzeU444QSfrxiipLwwENFm/eAHP4hc1S87omxIPfntb3/rz4ZhGIZhGIZhGEbleMMQe/5wHHD5bNdwyAQ37JJHm/0GlmsTdyP+7gU35Cd3pS6V1m/CX3s3uMWvJHdZbvhfwpIjhOXjuMZsIeg34aepbvPQpIt9kYhjPM59jzs3cpEfZ6M2MJoYIwTLvTBalgMFjvwfjsrmerhcWNISMSyNIsubyMEzIXluCFOuEweWDoovtSLLl4k7/pdlWUI0cQb8J6wyRlEzihdFmBaWfClCPO1F4pwUVlbamWWRpyTDDQYxgfgxOl1mPVVLXv7I/X79+vmz5AvljgFFZE1+CyyvJLJB+uOyoclnlvCJL+OTdI08Ro7FL8JFXkHkVhS4KFPFHUcIBjeUuieffHJ0pTl5dYf/uUe6uM9RTX1PoqiMpRH3JysPQdNu5EGaeZ5ziPgt8ad8kSvJO+7xG5kScCPxiR8heXKoIUnm4tfy8qeIHCaRV0+1tER9F7kPjyTyZAxqVS80ba8GZljRZuCfwMxUOOSQQ/y5GiRdpAWD3csvv9ws3hgxYOjQof5chqwC7uN1kGtS5lp5zpMNjT/adiONlpQNWUIufEcbhmEYhmEYhmEYleENQx/Pm+XWffiW69ijt2s49GS3fuV77rOFT/vfewTGD9xxrH73VdepYU9vkEky+uwy/H+4z998sckP3MX3AcpyQ1wkLP6Ps/bdBc3uff7WS03uOYoiz2Wli+sNB53QLM67HzlRHWejtjQ0NLjbb7/dK3aY6fHUU0/5/1myBFBennXWWf5/RgCj7GBT43CJGJaREeUJbsJD0LgBucZSNHvuuadXxoSKoSuvvNIvUSNLrRH/Qw89NLrbiCbOAmGQXvypFMJDSbjffvv55WhainjaUZDG016EMtIOKMFQjJG/GMemTZsW3akt5Al5g7IWA8p7773ny57fjGQHykr+x/2iRYt8npK3Qln5jNwivyhoiQd+rVu3ztcD8gtZkTgDBjV+yxEHpS5ynIY8l1Z3oIz6XoRqZSwvDwVN2rNgxh6zsuLL9R1zzDH+HI66x/hL+C+++KKPU58+fdzZZ5/t6wHIspBySJuAcU/QyGGZSFyS8qeoHNYLEues+h7uLyXpi6ORsXqrFxrwf9WqVT4/MHKQTpb9hDJndfbq1cuf4+8+MUgVTaOUV1Zdpg5SV2m/kFfevVLmWnnOkw2NP0XaDS1lycYTTzzhzxjNkGNpnwzDMAzDMAzDMIzitOvRo8cW/mEWDjNwMGy8e1fjiFJmyrB/z/yfbfux3WX3QW6/n/7GG0kW//In/pq4X/zPk9xnbzznr2FgwdAi/mrchEi8kuIg95Y99A9u+e/ujK42In6mkRQWZKUrDIfZQ7v92f/PrXzpfr90XEhWnMskK9/aKqIMQ8HB0i+iEEMZEl5nZC6zQFi+REDJgJKMZcQYjcqoXhRN8jsJjZs4KLRkhDajZ+U3ihqWxRG4xj2WyAFNnEMYafzmm29WPEqb+KEcQpGFUaSa0d7xchG0aS+KJu2kLx6ugLLplltu8f/jB6PGUZZVkwdJoNxC+RemU5TrIh+AAhSFbph/4bPy/6RJk5oUl+G1jz76SJXPPAOhm/i1NJmnjMOR4hJnjItJI8hDfxlJft999/m4ZD0j8iJ5U2Z9L0o19UubhyHxtIcklZuAW8o3lA3Cx2DAUlkgshLmu+QP5cKSVCHE5Y477vD/X3jhhYkyl3SN/UwolzSkvJLSk5VGSMufPDmsJZIX1db3EHEbv66Rse1VL0hrWtubh9RxIN34c//99ye+X6ohS27C+Jclq1K+Yd0hbAyrYdkWkec02YA8fzTtRlHKkg1k9Oijj/aGtDLL3DAMwzAMwzAMo62xzR5DzMYR3pj27SbjBgaT/qdN9UYSjoFnNo6e79R7L38OEYMPxA02gsZNNYQzeJIOSWeRdIXxXPbQ//Xn9p27+bPRukChgHIGJYQcKMNg55139udnn33WG0auvvpqr0BDUYISL0TjhnCYWYTih0NGz8vSQbL8DfvvhLz22mvRf41o4hyCUq8aQwZKIWZhDB48uOIR5Hlo016UatOOIoz0ozBF8XTkkUe22KwHQEnHgZIOJTEydc8990R3vyQcvY7iTBR+KBRRpokCDyRPUcaXmc8oBgkrrjSuRumO8REldpy8uqOlaN3RUI2MafKwrLSLHIV72JDX5HmcMHwModC9e3d/FoiXtAdXXHFFM5nLk8NwNkPSEcp3HmXlz/ag2vquQSNj9VYvtHTr1s0v6Ub+yDJyZVNmGorIalh3mBm1vSjSbmgpQzaoN8go5c772YxChmEYhmEYhmEYlbONYSiNfX54s2v46vFuw8r33LoPFvlDg+xRlIXGTRKbv1gb/bctGJ6YRZN2LI+MPJWmy2j9oFRCMRc/5s6d6+/PnDnTTZw40c2YMcMv53PggQd6JR4GIEHjBiUqI2yXLVvmlaRx5XwR8uJcNqSv6B5DOxIosVCQs7wWSu+WWraGkdscLONEGccV7tsTlv+phNWrV0f/5fPAAw94pWN8maHWXHeqpay0I0ek/bDDDvO/xXD9X//1X/5cBDEKscwcMho3OuRBXFDkph1ZxsW4HGrzp4gc1op6qu+trV5gRMOgQn6df/75vn1mmTJYvHixP5dB2vJ01AHIMtpUKqsaypLnPH/KbDfKRMqaWYwtbYA0DMMwDMMwDMPY0VEZhliyjD12/vTUHX55NQwrHz72T9HdbHYd911//uyPz/hzEho3Saz/oHEvn4677OHPRSmaLtwLfYO9l4zWB/tiMKIa5RfKyPAIlQ1iGGCZGkanMqIaIwlLoghZbli2h/+ZecNsIpSfMhJfYBQ9iMJDwMgUoo2zQPiixKoG4h/uI1Im2rQXpay0Cy25ZwYwE4AD5SHKzqIKd2YGxA1X++yzjz+Tx0XyOVRqkodxoyD7xhBWWAeSYMkgiIeZhIwkD/ca0tQdLUXrjoZqZCwvDytJO/6lwcxGypUlmA4++GCvXMfoG4dwhaSZjyi4idf06dMTZTRPDouQJYdF8qeIHNaKauu7Bk09rbd6EZLmj6QrlDHZC2f27Nn+XAbkAfWEfdjCeFCH4I033vBnKEtWNZQlzxp/tO2GljJkA2MVxNsnwzAMwzAMwzAMozgd9jrmh1N3/bPvu657DHEde/R27Tp2cj33/5rbvH6N+2JFozK4Q9ceruHgb7mO3Rtc+46dt97/utvzxAvc5nWfbb3X0y/H9ukfnnR9xp3h/eD3ziOPdXud8r9dl90G+v16lj1yvfdL44b9e3qPPtnfl3iJ+8679HNr3m1cymLT1vD7jP5zt1P/A1z3gaNcrwOP8m5Y3m3dsi8/2tMomq6uu3/F9Rwy1jUcdMLW50507Tp0dMsenubzSRvnMiHNPfcb59Z9+Kb75NXHo6ttm3333dd9/etf90oPlBpsns7/H374YbPra9eu9WvUf+tb33IjRozwS21x/9hjj/WGHWDJEn6jdOLehAkTvHJkw4YNXrmjcdOpUycfBhtZb9y40d+bPHmy+/TTT13Pnj1d3759/f4qKExQ0h900EF+hDJLpbBcDss4oVACTZwFFDns/YECDQVXpaDUIszHHnvMz5opCvE47rjjvBKvf//+bvPmzT6dxJtyYO8bTdqLkJV2iQ/hoxDdsmWLV1zzm5lRxIfR8t/4xjea8vev/uqv3NChQ73S+5e//GXkUyPkzz//8z+7r3zlK9uUgQbkZdddd01NJ/5/5zvf8XHEXceOHX28JK4CyrvRo0d7OcQtSjPyVOKszWfSG7oh7BUrVrjevXt7WUUGPvnkEzdu3Dg/42H//fdvyifS8vjjX7ZDuENWDzjgAJ/XUkeQgaVLl3r38PDDD/sz/svo/GeeecYbEvLqDvmAn2XU9yJUW7/y8lDTboT1EeU1MihljD/MCCCfgSUDTzzxRD/TZ6+99nJ//OMfm5WVyCHLvVEGGC1wTzwwBiE/P/vZz/w9jAnt27f38ZWDPIY8OdSCn1ly+Morr6jzJ08Oi1Av9T1sx8QtaeY36UfuNfW0lvVC0/YKefWLZ0TGaMdwR3x5l4ZUW168s5A/8oiwyDv+pw5cfvnl3g1xKUNWk2RD8iq8lifPGtnQ+AN57UYRypIN4ka7smnTporjYhiGYRiGYRiGYTTSvtuA4W6XUeNd176D/YUeg0c3+w0sy7b8d7/yBpR+E37q+ow9zX284D/dxs9XegNI79GneHf8Bp7n2Lh6lfvw8Vv9bBxB46bn0MOb7ks85DfxFdb/abH7YNaN3s+ew45ocqNFmy6Be932Hu7D2rR+jY+37JWkjbNRH6CYwADA6GM2d5alfdiIW2CWCApSucdsBtyz7I+Q54blWGbMmOGVRDKjiFHNKDsYOXvqqad6d5deeqkfCYtiCX9Ycubll1/29wRNnAWWwWF0b1l7FOBXJaBsIo7EF1AKSbwFTdqLkJV2iY+ETxnIb5TisG7dOl+Ocp38Zf8T4plGqLgqE8kT8g2k3CWuAqO4b775Zv8/91GuzZkzp1mcNfk8bdq0Jjfsq8Sm7hDKKrMbkG/chfnEXlQhzDhgZglK0rCOpBHfY0VbdzQUqTsaqq1feXlYNO033XST90vqF/7E94ihrLnP8+FshxDCQMlNeWFYQqaIC8h+KMx+kPjKIWjkUEOeHBbJn6JyqGF71/ewHRO38hs/QFNPa1kvNG2vkOUPcUbGaKd5FnnE6MNsnDQqLS8Gd9x3333+f8IiH5HnCy64wF+DMmVVQ548a2QDtPVC025oKEs2hJaexWsYhmEYhmEYhtEWaNejR48t0f9GCkMv/LU39sz/2babo29PWNoOg9bH82b5ZfCMHYsbbrjBK3JQ2mwvmOmD4gsYJc2Gz9Usg7OjwYwxlFcoV1FYGkY9g5yi3GZftHCpMDbER/m7Pdua1oDV99ZFmeWF8YkBAjJbuC2R1m7UEmZDMiMUAxuGo7ZaFoZhGIZhGIZhGGWi2mPIMIzaguKD0fYYY7YnjHZmVDEjymHAgAH+bDTHlMRGvcNyTcwKeeqpp7abcndHwep766KM8mK2C0s2hnsbtQXqrd1gppUZhQzDMAzDMAzDMMrBZgwpqNcZQz2HjnMNo092a99d4Jb/7s7oqtEaQfmCMQhYIoXRuezXwZI5LM9k1CfMtGAEM8sDGUa9wR4rzAJifxCW3MLQfOaZZ0Z3v8RmDOmw+t66KLO8eEezn5GwI9cVbbthGIZhGIZhGIZhtG5sxlArhv2NWELOjEKtn3BNffaAYIYOy7eYUai+YWk9Ri8bRj3CUpQYmZntwF4pptytDqvvrYsyy4slVCdNmuT929FlwNoNwzAMwzAMwzCMtoHNGDIMwzAMwzAMwzAMwzAMwzAMw2gj2IyhVsywQZvcT05f744dsyG6YhiGYRiGYRiGYRiGYRiGYRiGkY7NGGrFYBCa8r31btZzndzPZ3aJrhqGYexYsFdIyLJly9zUqVOjX/UFe5GMGTMm+tUIS1qxFJVhGIZhtBZ4nw0YMMD/X6/vXMMwDGPH46KLLnKLFy+2ZfWNqqEvM3ToULd06VJ3zz33uOXLl0d3DMMQSp0x9I8XrHH/fv3n0a9kNG5CMH788OT10S/DMAyjrbHffvv5TeTzYNP08847L/pVOfhz5513uieffNIfN9xwQ3SnGDvttJOPO3uIGTsuyIvICkfckNmSlCXzRtvE5MdIgncW78CzzjrLHXXUUdFVwzAMoyWg30j/0Wjk9NNP9/su9+jRI7pi1DMY8aqR31r0Rdk789RTT3V33HGHly/DMJpT6owhjD5DB2x2J05Jb8Q1bkLuu3a169Zli7v+X7u4x17oFF1tBKPR/gM3u8df6ugWLu4QXW07VDtjiA+/Cy+80DeUKDDZaPjFF190N910UzNLOo3nhAkT3N57793kJhw5qPWHBp97MnKeF8jrr7/uzjnnHP9bS158gBfUoYce2qSQnTdvnrv77rvd888/739r0aZ98ODBzcK68sorC41GGDZsmDvmmGP8TAPCSsqXssICTVmUkYcS5yzZ0LjRoMlD0KQrL380caaTc/HFF/v/Q8SftPsC/px22mnRr3w09ULjRkMtwwLynw3fr7322uhKMo888ogvj2uuucbNmjUrulqMww8/3F199dVNcV67dq0vi0pm/EgZa+JeKWXks7YOltVu1Kp9rhW0PSeddJL/n3StXLkyse1pCcqQ+bIg71EiUxYnnHBCdLURZEXOuJN6BmH9QMaOPPJILxv4M3/+fDdt2rQmOUR5grE1pFL52VGh3Rk1apR78MEH3cKFC6OrydST/ORhbV3t2jqpZ0nvrry+lrZvoy2LPMrs+2koUw6r7c9r/clLe5H4cJ/0S34/9dRT28iIxk29YPJcu3Y1j7S8TsqDNBmrdXmVhbS5tTLEk0/afkIZSLlov4fIDwYExr+Di/pjbEtL5CHtEYa8SuW3jL6oJl24mTx5sv+f+l8L2TeM1kLd7zH06HMd3bxFHdz8rUccjELjx21w/XffHF0xtNAhwmI+duxYr3ihEV2yZIlv0H/84x9Hrhob0HPPPdd17dq1mRvpNGr9Aaz0dEKqIS8+IC8nlHO4mTNnjg/3sssu8/HVognruuuu82l///33vRs65oR16aWXRi50oFQkf4hzGmWFBXllkZaHF1xwQeQiH41sFJGfPDR5qJWNrPwpGmc+aHAjB8uKhcTvU67w8ssv+7NAuMgkH41xNLKqcaOhlmEVhY4l+Td37tzoSnFOPvlkf77iiit8fOlcVmIUaimQA5HVMvK5iDxX2m6E9auW7XNSXWkJ+LBATjiy2p+WoAyZL4sDDzzQt2d83FE+SeAGDjnkEH8OQRmPjAFlijwil7z74nBf5GfIkCFefmpV3vUO9Yk6NnDgwOhKOvUkP3GsrWuk1m0d4aGgJL5JyhVNXwuy+jZFyiKPavp+Rfq0UIYcQln9eY0/mrRr44NB/+abb/YzyVDaUnZxJbrGTRmUJfMmz7VrV7XkfTdpZKxW5dVaQV6QIU0/odbIOwhjn9E2qFVfFKPT9OnT/XfKxIkTo6uGYUDdG4Z+8UAX9zc3dXMfrqz7qLYq6EDdd9997pJLLvHWdT7+GI3DdVHcAJ0GuPzyy5vc0Nmi80THSusPL3ngo6Ma8uIDjDamg8c93BAv4shL4Oijj/ZuNGjCuuqqq3zazz//fO+GM2HT4SoCI3YYFcPzaZQVlqYs9tlnHz96KsxDRsySbjrkGjSyoZUfDZo81MhGXv4UjfPbb7/t3cgRNzLE7zNDBUhPCIpUwuOjMY5GVjVuNNQyrKLceOONvvwpi0ppaGjwMlJ01GVLg1wykuree+9tUqqXkc9aeda0G5r6Vcv2ecqUKX45JNaWbkm5256UIfNlwHuBPH7iiSf8uwOFSxx5h6DQGzFiRJOiRmCWEelAUSWygcKG0cCUYQj3xY185J1xxhnRXUNLvchPiLV1zal1Wyd1F8VpEpq+FmT1bbRloUETnzL6tFBW36as/rzGH03aNf7gHqNm9+7dff0kz/Er7NNq3JRFWTJv8lybdrUIWd9NWhmrVXkZ5YP8Id/sBWO0DWrZF8U4xPuN2YKGYXyJt7aw5w/HjKmr3dgRG92tlzTuAyS/YdigTU3uWN7tqh+v9UuZJfEX47/wbnCLX0nustzwv4QlR8hPTl/vrzFbCFhOLe5W/Lj8R+t8OBwSJgfpgb69N3s38iz/i/87OnSi4spPRh+FnUFG4tJJDKdaysgd+WDX+LPnnnv6c1wRVBRNfPjoXrBggf9fePPNN/150KBB/qxBExb3wrSTZkZeMXqrCPiT9zIsEhaKDUZfJI360pTFqlWr/DksQ6CjFi/rrLA0sqFxo0GThxrZ0ORP0TiTR6JsEt55551mo9gEOip0WEK5y0Mjqxo3QlaZlh1WtRBXPojDIw5LEogCgXThhmtpH9DIeRosu4HCEj/wiw/TorKqBX+ZRUF4fLyisENekB0oK5/LasM19auW7fOrr77q20hGlaLkpKyKKE1CkDP2mhIZo0wYtVsUjfzgL/IqYUl4QlkyT7iEL37wP2En+ZeH5Pns2bP9CNwk5QqKGdo2jNuMBg1liTQhG4zmDdtxlDjAprFpyLIT/fr182ctmjLNKy9NPmvcAPclLI4k2ciKs5SdKPtEWSiHoJEfKCPtWvDX2rpkat3WUY+og2F4IVzP6mtp+za17PsV6dNmUZYc8nwYLvGqpD+v8UeTdo0/1HNkGkN82lI/GjdlUZbM58mPyXM+RdKeJc8huOOIkydjtS6vPJBJ3o3x9KZdz3ufVtuH1PYTBG155aFtDxg4xPufZf2S6kFLtytAvnOEJF3LymeB8pTy4oiXV/gcZS3+ye+QWpQF+S9xIiz6m/F6SPxJh7iLxwf3XMcNfnCIXHPIbE9xFx5xyHNtP7OIbNA3ox1J8scw2ireMMQeNW+829712WWLO27MRvfe8vZu9tyO/vdffusL7xBwx8Gybv132+wNMklGnyMP2ujmLOjQ5AfuxBAjZLlZ+qf2TWERrzh/fKfxvtx7YUHHJvccIQ29NrtfPdrZ71M0fPAm99TW8Pj/G6MbDV7nfPsLN2b4Ru8Xz3bdem/0AY332iJMyaaTKNBo0gHlJcALkEZcRlFmjWyL+zNgwAB/rnaKqDY+jKYKKToKD4qknZccLy2WY6BjyZ4ILYUmLBQbxJ/ZD3E0ZYGfdKCZqk/a6Rig6Lv99tsjF1+SFVYScdlIQuOmUvJko1JZTYsznW863hzSOQI+ThilFnZk6PCTl/JhpkUjq0XkOatMyw6rWuQjkCNLZph1wFrkLE2AsgPFNDMTgPgRTw7KkUN+c0gnlvKRZwhv0aJF/gOGdfjLhPDoUPNhwJIi5N2MGTOaRpHKh21L5nNcnrX1QtP21qp9ZgQaeUZeYqxAMcC+NnxkUJZa8Jv6ixKFjxLKft26db5uS33WoJEflOPywS5yLYdQhswD4RI+fuAX9Z09CyqBGUD4w4f8G2+84ctF6k0IbRszKXAn5QW9evXy57gyR2Rd+37RoilTbX3Py2fIc0NYKDiBsIgT8sp7XsiLM3nHNZEJwuG3HIJGfspMexbW1uVTy7YOKFP6lpVSTd8mrR9VLUX6tFmULYfV9ueFLH+KpD3LH2SZdpu2WhSdnKW9BI2bsihT5rMwea6MtLRr5DntuwnyZKzeygvjE2UVHyzzzW9+059/+9vf+rOQ10/Iey/n9SG1/QSh6Dd+tcjM73qfLaTpq1Neef06rlMW1EGWMn/vvfe8O37H+1K1KgtJB+0qYVIPaRuE+LcDg0mSvh2IJ20ScaY9Qa75X1Y+KetbphJoQ2DnnXf2Z8MwIsPQz2d2cW8vbdzDZ9Wn7dzf/nNX9w93dnUYS/r3bdy/Z+HiDt4dB/f/eno3f33U0OYGH7j+7i7+eY5bf93ZXxNDjJDlJgxL4hXy2Audmt17/tUv3XOE4OY3TzYai5Ytb++NSgKzhcQo9L+u28k/y7J1K7bmQVuEFxgvonjHiU4jHS5egKecckp0NZ0kf3hpMJJJGuI4vHB4EaYddFiFvPjwcuGlwYgCnuOjQT7OV69eXWpYwIfULbfc4l/+jF5j+npLoQ2LkVBMkY8rcSCvLIB7jMYD0s4L/bXXXmu6FpIVVpw0GQvRuKmUPNkATf7ESYrzJ5984sNjuQLCQdkFlF3aCJWvfe1r/sxyTBDKKh0zoDwqlVVtXc4r0zLDqhb5COTIq3vXX3+9d0de0rmkswnIN/HkoBw55DeHrMHNhsAgy26guBSZom6WBeHR6eZjknIgHMokSSZbIp8racNBU780brRo046CgDJno1HylHKXstSA/xDuO3XmmWf6uFMuWjTyg9IfUPjgRo4wnDJknvIlXMKX5Wg4V4L4JXGRUbhJeYyynQ9D3ichRWZQxEFeYdmyZf6sQVOmRep7Wj6HZLlhE23qFopO3BAn3h24kfdFXpyRc65JOfCO4LccgkZ+yk57GtbW6ahVWwfUz7KJ922SaMm+H2Wp7dPmUZYcltGfhzx/tGnP8wdZxhBNW8XMTtoXlvPCvbQJGjd5FPlGgzJkvigmz9lkpT1LnjXfTZXI2PYuL/zE71C5jqEIeY3PWgrfpxhxwvep5r2c14fU9hOEvPanCCwRlxSGQB4ddthhvh9BPyWNPH9qgaavrunXcV3KgrpIueOOco33pWpRFmH/kLiIAYZ+GlBGyBvxy/t2IF0zZ870/2NwThr4JWHF3zdxtP1MrWyIAdwwjC/ZZjpOaDjBWHLilB7+f4woPzx5vfvHC9b44+Kz1/nre+3WaDgKwbAjYMRJQuOmpRk5pNGoFTc+JRmjdnR4QZ199tm+kxK+1KBbt25+ORca9LwOU5o/vES4lkY4aiDpCF8mefFhs1TuESYdXTqQ0llmGY8ywwJebLyIePHzPKOhy3hpJ1EkLDqbSYqNvLIAOuTs98CoFgmPD0VGqSV1vNPCCsmSMUHjphryZAM0+ROSFmfyhM4SoxrpiHNPRvMdccQR/hxCZ4uPO/yRDnEoq3SEgM6YXCsqq0XqclaZlh1WrZB8BTrgAp1I5JyD/OWQ3xyUHyAb3Av9kc5smRu4ojzn44E6JyNgGZ2WVPfKzudK23DQ1C+NGy2atFOvUHqQhyi9+vTp4+tSkZG1fABS7vEPeJELLRr5efbZZ71SWsqdD0QUFpWSJvOyTEz8YyxusNEg+6UwOhClHaMBSYN8OIeQh9Qp0hWS9/6IQziibOfDlfCKjDDVlGmR+p6WzyFZbvjIRVZDBSiKLpARjWXJoYay056GtXU6atXWQdG6mEdS3yZOS/f9ivZpsyhLDskLiUul/XnI80ebdk18eO6CCy7wfSbacJGtcO9LjZssinyjlSXzRTB5zkaT9jR55rrmu6mIjNVDeUnfhLICwiNeSfkdxjGuvNa8l8vuQ0JW+1MmzBZiYMIDDzwQXalfNPms6deFhG0b9UDkJaSly4L40gdjQAuHvAMYMANlfjsUIZT5ov3MJPbdd9/oP8MwhG0MQ2n87Tnr3PHjGpeZw3CiNZ7IHkVZaNwksWZ99I9RFXRQ2MhxxYoVvqMVwkuPlwENsozkZFopLF682J+FNH/CTqoocziAadt06vGfDl7aIYoPTXx4YXKPFyoHL2s+cHgWf8oMK4RwccO6uHTeinbOi1BpWJqyAEaG4DcdECA8OjR02CoZiZclY4LGTbXkyYY2f4SsODMyjPsh7L+RBiOLIHQTyir5D3TGKpHVovKcRi3Daqsgp+EyKSwtwDJLKD74ABE5LTufq2nDIa9+ad1o0KQdv1lihA8xFAmMPp04caIfcSZtW70xc+ZMH0fiSrkzqhTDB+Verxx88MH+zHsDBTgH7wqUMVrSlq/hIxXiH4ISDsty8DHNLBpkoTVDOqjv8SNvSbM4RWejbE+srcun1m0dS4iljcathKS+TUgt+n5l9WnLlkMgLvhT7bdDmj9F054VH2SD+0JSmWrcZEHeSh836ZC6s73e7ybP6VSbdu13UxEZq4fyIq683+mvgCwjlzWDqVJmKvuQ9dhP4P2YNPilHqBuhWjzuax+Xa3A2IzRmRn46BviBqAdBWYZArMUDcNoRGUYYh8hlpRjrx6WfmPJtZmP62b5nHRE4x5ELy1MNyRp3CTx7geN0d+tYYs/F4W9jKBfbNZTQ6/K/GttoHDhg5fRDoySoUMUdrSA9WvjHwas8wnSycrzh70HAH9EmcMBPCv+adDEJwT/WXuZM+sUF6FoWEKt1uGFrLDo7JLukCJlwcdCiOwBkURSWMC1PBnTuAlJC6so+BGXDW3+aOI8efJkfz1EPlCSOuSiEH3ooYf8uQgaWS0qz2n53BJhtRb4YImnS5YGYpRrS4ASBEXHpEmT/GhZFCAyMrCsMs2T50racK7ntb0aN9XIIW0Yo4f5CEPxjNIjq21JQ8IiLhpwm4RWfogjcaXciTcKHxS12vA1SHiiBBLi6+BrEOOMKMA5WF4DtCNVkXOUVKxTHpa3KOLZtyhEwuEDFoVWUUWCpkxrWd+pd8wIQllAXoSHyKxWDmU2Srxsi2BtXdts6wCFEEqwstqbtL4Naa1l36+MPm1ZcphE0f58Gkn+FEm7EPeHssE4GsYj3qfVuCmLMmW+CCbP2/pTVto1301FZays8qoW+ki0q/SJ6GfxG4NcEcrsQxbpJ1Qrqxro6xFGSxjLKiE0BBGvpMESefmMXOX164rSkmWBYZb4MwMPwzuGeNIXUua3w/Zk+PDh/pujHo2QhrG9aHfKMV227D9ws9un/yY3dMBm98KCjn6focdf6ti03NuwQZvcP5y/1rEXzyPPdnLduzl3/OGNxpxuXba4p17p6H7xQBe/xBx+zHqu0Wg0+oCNrs8uW9zsuR29QQk0bv5i/BeuT2SckXiJe5a6k6XnWN7upovW+v/nLOjg1q9v3BsIA1PPnba4Kd9b75/DkPXv13/u/+f58LrEh7QxCwqjEEvMkS5ZRq9ewWAXpqUofKTSYaJhZEO3EDosvLh4SfDC4wXGWr50QOiU8PLjpQEaf5LADzo5aWuTJqGJDx0mppPLPQjva9GExQcJyGhmXjS8VIumSzpEgBJCwgSm+NN5LBIW/jGKjvxHaZZHvCyYPkxaucZoEZYaYN1fYB3vsDObFZZGNorIT1ZYmjysVDbi+aOJMx8cxCMpDxllRPwE4s3Ix6R0CXQGWeqApQfiHTWNrGrcCFn5XHZYGngORSGd1DhhuUs4uAUpC5FnFMmClE94DXALSfWXDzpGhEm66BgjB0l1ECQf0uJeKaSXOJRVpmW14Zr6VaQOViuHZUHdY0QpH4oooqQNRnFGHEIIG5mSeo8blsXg40MjP8glbcXatY19G56XUaYYQaAsmRc3PMOMHfwShUu8XqRB3qBYYdRkvF2iLMgv8oj/4/UgXj8kfpI/pJ2R0Xxcs5cOJKWrEjRlqimvIvmc5UbygjrIhr8SH2RB5Fkrh5TfHXfc4f9nVLnI0tNPP+3lUCM/ZaW9Wqytq21bB1Knk+ICofyE9RWkryXgLq1vU8u+n8iqtMuV9mnLksOy+vMafzRp1/gTb5+T+rQaN/WGRn4Ek+dkf8pKu8hPUroqkbGyykvyqdo2l0EBzEyibsX7TJr3aVl9SCBvsvoJQlZ5lQkzbRgMgoGlWqotL9pD+p6kWfrGQP8YWWGWsyafJR7IWFK/jvuUn9Q76dfF2x2hpcuCPguztZGn+++/3xubxehK2UjaRVbD/Am/HSTd0renHPgf9+F10iNtneRBvC+qqRdFkfjJ94lhGI20xyg0ftwGbxyBMcM3+t/9d/9yFg0GortmdfbGGgwR3z7qC28MWvFpO2/U+fbRjUaiVZ82zsDheQ7u/7/fdGky+IDGDcYiuS/xkt/EV/hwZXt36687uxUft3NHH/LlM0W45vau3hhGODzbFUPX3I7R3R0bGnlAyUADGx68qIBGmZG/rI3OdToz8Retxp+y0MQHuEd8uMfo00o6BpqwuEdHQNJLXvBSY235IjBCS/wAXpTyW0bMFgmLFzUdEemEFAU/SSsvesLi5cvIsqTlerLC0shGEfnJCkuTh8DvamVDE2c6PZRPUh6GHy4gHS86QmnQUafjH1e+gkZWtXUHsvK57LCqJSx3Oo8gv8tuf1g6gHQB/jMSjI5l0fpeLSI/ZZVpkTqYB8/k1S+NG6hWDsuCuke9pX6GbfDgwYMjF19y0003eXfIoriRtcQ18sPHJW2FhEF40m4IZck84RJXnuFZZgqIAkrLEdG6/6EiQeDjMimP0qDNZL8ZID6knfyJjyAuA02Z1rK+I88oIyhrFBISH6mboJVD2ofp06d7BVQoS4JGfqyty4dndrS2DpAzaReQSVHcCNq+FmT1bWrZ90NuybNq+7RlySHPh3WYvKikP6/xR5N2jT/Sp4XQHwwRUk81buoNk+fatqtZ/mi+m4rIWFnlJXz00UfRf5WBcYA8Jv1J33J5lNWHBPIqq58gZJVXWaCoJ1+kXMui0vJiry55B7K8HUYSoC6y1C1o8jmvX4f//JZ+mLiJtztCS5cFbQcGS+ofBhOMdMwcZOnGMO3Im+QP8a3k2wE0fdGywRjFzETyUQyjhmE00q5Hjx5tY920Avzk9PXeSLSjzxgyDMNoDfChykcMnVOgE9pSSrFqodNJZxf44JSPHT5mDaPekVG0fPBuT6jzVm8MY/uAEohNp0VZE45INwzDaEvIDAWU/Cj7jXKh34mRq6xZhVZeRhyRCcAohAEvaUCbYbRlGqfvGIZhGEadglJKjEKtCTqfxL2MDx3DaGlQBvNxztJt2xvqDvsNsbSFYRi1hXcWhiAUaxhoWcLWMAyjLWNGhpaBmTDsa1P2t5KVlyEww4m+DDOiMECaUcgwtsVmDCXQWmYMsffTN0ZvbLbvkmEYhmEYRh7h+t6yPjqz3FiqhCVLtieylrqwvWcwGYZhGIbR9mCfE5bXKmP/G6PlsfIyDMMoTofOnTvX53o825ExB25y++692f3LrM7Rlfrko4/buxdf6+jefq9DdMUwDMMwDCOf4447zi+twCyhLl26uHfeeceP2nzggQciF9uPV155xc9S6NChg3vzzTfds88+G90xDMMwDMOoDbvvvrvvh9AvMeofKy/DMIzi2IwhwzAMwzAMwzAMwzAMwzAMwzCMNoLtMdSKYSk5lr07dsyG6IphGIZhGIZhGIZhGIZhGIZhGEY6NmOoFYNBaMr31rtZz3VyP5/ZJbpqGIaxY8F60SHLli1zU6fW5yqo7I0yZsyY6FcjLIl12223Rb8MwzAMo+3Ae3HAgAH+/3p9dxuGYbQEtH9Dhw51S5cudffcc49bvnx5dMcwDMMw6oNSZwz94wVr3L9f/3n0KxmNmxCMHz88eX30yzAMw2hr7Lfffn4j0TzGjx/vzjvvvOhX5eDPnXfe6Z588kl/3HDDDdGdYrCRP3GXDf4No14pq+4YbROTHyMJ3n28S8866yx31FFHRVcNwzDaFiNHjnSnnnqqu+OOO9zpp58eXTUMwzCM+qDUGUMYfYYO2OxOnNIjurItGjch91272nXrssVd/69d3GMvdIquNoLRaP+Bm93jL3V0Cxd3iK62HaqdMcQH24UXXug7Kygw16xZ41588UV30003NRvNQgdmwoQJbu+9925yE4740/qD0oB7MnIehevrr7/uzjnnHP9bS1584KKLLnKHHnpok0J23rx57u6773bPP/+8/61Fm/bBgwc3C+vKK68sNCJo2LBh7phjjvEzDQgrKV/KCgs0ZVFGHkqcs2Sj1ukCwqFcJb+feuopd+2113rl1sUXXxy52hbic9ppp/n/NflTq3wGTb3QuNFQy7CAfHv00Ud9GWXxyCOPeDm75ppr3KxZs6KrxTj88MPd1Vdf3RTntWvX+nKvZMaPyJMm7pVSRj5LHcyqp2l1I5RnTTsmpNXBIpQpYzsilNmoUaPcgw8+6BYuXBhdTaaMulMWlCFKZMr0hBNOiK42QlsgZ9xJfYWwntH2HnnkkV7O8Gf+/Plu2rRpTfLMLESMtiGVtr07Kq1VfvKwNrN2babUs6R3YF7a0/JPkP6Ypiw0aMuiln22PCTt1faftf7kpb0sf6C1vd9NnmvTrmpIy+ukPCDMpHa1JcoLPydPnuz/55m896phGIZh1Iq632Po0ec6unmLOrj5W484GIXGj9vg+u++ObpiaKEjw6iVsWPHeoUJH21Llizxypgf//jHkavGTsy5557runbt2syNdPa0/gAjZVAyVENefIBO7vHHH+9Wrlzp3cyZM8eHe9lll/n4atGEdd111/m0v//++94NHWrCuvTSSyMXOk466SSfP8Q5jbLCgryySMvDCy64IHKRj1Y2apkuQJF48803+xGszEIhbvHOOx8PxEUO4gQvv/yyP2vzp8x8Jj+RST724mhkVeNGQy3DKgrKScpq7ty50ZXinHzyyf58xRVX+PjygViJUailQA6kHSsjn7X1VIjXDZbJEzTtGGjqYB6atCfVlbYEbQnty8CBA6Mr6ZRRd8riwAMP9HKGkoVyTgI3cMghh/hzCEYh5BCQDeQL+eZdE0fkmLZ3yJAhvp/Q1uVGaK3yE8fazEZq3WYSHkYh6laSAUub9qz+WNGyyEITnzL6xlCGHEJZ/WeNP5q0l+VPWfmjoSyZN3mubbuqIavthWq/B4vGmUET06dP932biRMnRlcNwzAMY/tT9zOGsvjJ6eu9YShpNlFboNoZQ6x5y2iVcFTQvffe688yK4IllOgkTpo0qWlki4wAxA0dKI0/dBoZeUOnST4Q02ZzZKGJDwqKFStWuDPPPNPfB1EU0QGcOXNmdDUbTVh8UOyyyy7N0s6yGYw6omOoBX8++ugj72davpQVlqYsSCf+hqO16eATziWXXKIeSaaRjVqmSzrxQOc8PrI5yQ9gFDQdf5EFTf6Unc9pcQONrGrcaKhlWAL5lpTuloB48tEWth+VklVmRcEv5AI5lFH5ZeVzpW14HE07llcHtWjSLmU5e/Zs99BDDxWWu9aOKH1awywOQWYA8a4+++yztxl1jFxxUBco+ylTprh169Z5WRDZpA+wevVqr6iSMpe8mDFjhjf0iqyE7xiRcfwvotDaUWmN8hNibWZzat1mSl8mDC8kL+1p+Rfvj2nKQoOmLMifMvrGZclhWf1njT+atJflT1n5owF/y5B5k+fatKsaNG1vWd+DlcSZOtGnT59m+W4YhmEY2xM/Y4g9fzhmTF3txo7Y6G69pHEfIPkNwwZtanLH8m5X/XitN0wk8Rfjv/BucItfSe6y3PC/hCVHCAYhrmEUAowjcbfix+U/WufD4ZAwOUgP9O292buRZ/lf/N/RQTkS7/QxaojOksAIWjqT0tEDGXEjI3U1/uy5557+LCNtKkUTHzr4CxYs8P8Lb775pj8PGjTInzVowop3BkkzI6YYdVUE/MnrOBcJiw4tyjE6+HE0ZbFq1Sp/DssQmCIfL+ussDSyUVYeatJFBx75SFOuvPPOO/4jIO4HSwQwCkxkQZM/ZedzFhpZ1bgRssq07LCqhbjy0RsecfhA5UOM8idduOEaSugkyP80WC6Djz78wC8+EuPlVxb4i1Gb8PhA5WMUeUJOoax81tTTEPKcIw7xyGvH8uqgFk3aX331Vd+WMBoUBQBllVbmWaBgEdmizFGCJKWfa9wTt5QbyvUQjRvySGSMIy5jSfLMb2QT8I9rKPUB2RG/OATiEl4P7wmaukPciKP4wf8Sh6JI2aGkYwSuzAwKYXlH2mNGRKN4CttY0oR8MZo3lEWWQwM2gE5D5LFfv37+rEVTpnnthiafNW4gT34gK85lyg+UkXYt+GttZjK1bDOBekTawvBC8tKu7Y8VLYs0NGVRyz6bBp4PwyVelXwXaPzRpL0sf8rKHw1lyTxxNXmurryKpD1LnkPS2t68drUlywsdBWFX2rYahmEYRtl4wxAzTt54t73rs8sWd9yYje695e3d7Lkd/e+//NYX3iHgjoNl3frvttkbZJKMPkcetNHNWdChyQ/ciSFGyHKz9E/tm8IiXnH++E7jfbn3woKOTe45Qhp6bXa/erSz36do+OBN7qmt4fH/N0Y3GrzO+fYXbszwjd4vnu269d7oAxrvtUWYSk3nTqDjQseRDg7KAjpXLBEAjA5KI+7PgAED/LnaZUa08dlnn32i/xrJimsaRdKO4pBOJsso0CFkL4OWQhMWRgni39DQEF35Ek1Z4CcdX0Ztk3YUSCjobr/99sjFl2SFlURcNoRq81CTLuSCD6VevXo1Kao4Ey7Q0WdkWPiRgFKL9MlHDmjyp+x8zkIjq0XkOatMyw6rWuTjjSNJrgRGRbKGOOuHo6RAocyMAiB+xJMD+eSQ3xzIJiAL8gzhLVq0yCseWT+/TAgP5QSyyUxH8o6ZDow+PP/885s+SFsyn9PqKcpiFK4cfJRL3dGSVwe1aNJ+4403+jwjLzEy8EHPbJTQiKJFZAx/qB+knzAF/ucaChLShFtmspBfkjaNG+KFggq4jzviTbsYgjzzHDNqcMPoU2bYIDsoMnhWyg9557ccQhl1B5B/6gF+4BftBnsWVMKIESO8P8jIG2+84ctX6l8I7TF7COFOyh2QK4grc6TOaN9TWrRlqmk38vIZ8txo5CcvzmXKT5lpz8LazHxq3WZSpvTlKkXbH0sirSyqpZZ9tiIg/8hDpd8FQpY/RdJerT8tWU/jlCnzWZg8V0Za2jXynNX2lvU9mEReeREu7Lzzzv5sGIZhGNsbb1lhGbK3lzbu4bPq03bub/+5q/uHO7s6jCX9+zbu37NwcQfvjoP7fz29m78+amhzgw9cf3cX/zzHrb/u7K+JIUbIchOGJfEKYdm48N7zr37pniMEN795stFYtGx5e29UEpgtJEah/3XdTv7Zv7mpm1uxNQ/aInR46NTFOzx09ugo0cE65ZRToqvpJPnDyEFGIElnKA6dSDplaQcdTSEvPnTGUCow4pTn6OyLoYjlZcoMC/gAuuWWW7wyhlFnb7/9dnSnfLRhMYKJZQCSFNZ5ZQHcYxQdkHY69q+99lrTtZCssOKkyVgZeahJF3KBAoyNRhlRTnl3797dh0sckvja177mz0888YQ/gyZ/ysjnUFb5sAHcVSqr2rqcV6ZlhlUt8vHGkSc3119/vXdHXqJ8RHEF5Dvx5EA+OeQ3h+yxwUa+cPnll3t/UDhKe5MmP5VAeChP+WCnHAiHMkmSpZbI56R6+sknn/i03nfffb5NRekK1J0iox4rqYNpaNPOhz1lzma/5CnlLmWpIZQx/BGFNWUkEAcI96ZiOULyirIDjRvyhXJGUcV93JHnxDmez7/4xS/8fXGDwoJ0kV6elfpAHvNbDqGMuoOcUKbIBsvU4Ca+XI0W8UviIqNwk8oKgzvppb0MKTIrOA5yD8uWLfNnDZoyLdJupOVzSJYbjfzkxblM+Sk77WlYm6mjVm0mUD/LJqk/Fietn1kGeX22IpQlh8hAtd8FkOePNu1l+VNt/hT51oMyZL4oJs/ZZKU9S541bW8l7WpZ5SVGM8MwDMOoF7aZjhMaTjCWyF5AGFF+ePJ6v0cQx8Vnr/PX99qt0XAUgmFHSNv7R+OmpRk5pNGoFTc+JRmjdnToKDHamM6wKDOEbt26+WVYGEWa1zFN84cOGNfSCEeeJh3h6N+8+LDJKfcIkw4qHT/p5LKkXJlhAcoR1mNGEcPzjGLWGEkqoUhYKNWSlCJ5ZQF0pFn7mNF+Eh4feIwuS+owp4UVkiVjZeShJl1AOthYFQUUSjEZGceyRHHo3POhhL/EUdDkTxn5HMoqijLgY0euFZXVInU5q0zLDqtWhGXIR6yALJD/HOQvh/zmQGEAlCn3Qn9E6aHZoF0LSm8+aJEFGbnK8khJda/sfE6rp8gDCn9G15If3JO6c8QRR/izliJ1MAtN2qnDKCvIQ5RVzKyhLhUZEYsf5D+DDTikbcL4K8hSKmLMEER2QOMGZRThhQosFBUQH10aPidlhWKjJUirO7JMTFz5FzfYaDj66KP9mRHAKO2QB4zr5Fsc8pC6ifyE5L2H4hAOB20xBj/Cu+eee6K7+WjKtEi7kZbPIVluNPKjiXNZlJ32NKzN1FGrNhOK1sU8iFdSfywkq59ZBkX7xlmUJYfkhcQlr/+MTKaVS54/2rSX5U+1+VPkW68smS+CyXM2mrSnybO27S3SrpZZXvvuu2/0n2EYhmHUB9sYhtL423PWuePHNS4zh+FEazyRPYqy0LhJYs366B+jKujIXHbZZW7FihW+gxSCkgTlF50gGYHJ9G1YvHixPwtp/oSdS1HCcADTremM4z8ds7RDFBaa+NBJ5B6dXA46e3yY8Cz+lBlWCOHihqV9UIYU7VQXodKwNGUBjLzFb1EcER4KJhmRXpQsGQtp6XQBy1oQjsBeFmkwkgzibvLyp6x8DmWV64BSrRJZLSrPadQyrLYKchAub/Lee+/55ZFQWKC4EPkqO5+z6imjb7kfklV3sihSB9PQpJ22n6VBZOQyo0YnTpzoRwVLndOA0gTlCTNJqH9xI0jZoFih3ONH1rKUSTBDtjVx8MEH+zPtIoM6OGgLUcZoSVu+BqUOxA0OEg7LB5HvzKJBplozbVF+rM3Mp5ZtJhDnIrO+8kjrjwnafmY1lNU3bok+EnHBn6L95zhp/hRNezX+lJE/PCt95aRD+s9lynwRTJ7TqTbt2ra3jO9BoUicZQAPM5sMwzAMox5QGYbYR4gl5dirh6XfWHJt5uO6WT4nHdG4B9FLC9MNSRo3Sbz7QWP0d2vY4s9FYS8j6Beb9dTQqzL/WhsoSlBWM7qS0S10ZMIOErAefPwDg3XgQTpHef6wZwDgjyhhOIBnxT8NmviE4D9rJnNmfeEiFA1LKHsPgyyywqKTSrpDipQFnfwQ2bshiaSwgGt5MpZES6WLsDHMhM9LZz9JCSbKxYceesifQ7Lyp6XyOQ2NrBaV57QybYmwWguMfI+nS5apZHRqS4DyAgXFpEmT/ChXFBcy0r6sMuVaXj2dPHnyNh+7WXUnjaJ1sBo5pG4x6hdFMQpjlBWa9icEBQPKTUaSokBCoYQ/cSQ+xDcNjRvynxkdKPEp+/CIx524CSxfEocZsiAKmpZA5D4eBvsUFEWMMzKog4O9DyApfUmQTyip2OMolBsxxrNvUYiEg+EPhVZRRaCmTGvZbmjkRxNnKEN+rM1se22mgCEdBXOenGlJ649pyiIkLX+0lNE3LksOkyjaf04jyZ9K+quV+FM0f6qhTJkvgsnztv6UlXZN24u/ZXwPFo0zDB8+3PdTWtLwaBiGYRhFaHfKMV227D9ws9un/yY3dMBm98KCjn6focdf6ti03NuwQZvcP5y/1rEXzyPPdnLduzl3/OGNxpxuXba4p17p6H7xQBe/xBx+zHqu0Wg0+oCNrs8uW9zsuR29QQk0bv5i/BeuT2SckXiJe5a6k6XnWN7upovW+v/nLOjg1q9v3BsIA1PPnba4Kd9b75/DkPXv13/u/+f58LrEh7QxCwqjEEvMkS5ZRq9ewWAXpqUoGEzo6NA5YcPfEJQzfFyjeOIDm04Oa/DyQU/njxFFKMlA408S+IHSoMh+BJr40DFlGrjcg/C+Fk1YfEiAjEKms4cSsWi6UFpJ5xQDgoQJTM1nFFaRsPCP0W/kP8quPOJlwXJJpJVrjI5niYDDDjvM32P9beIjZIWlkY1apovOe5i/YboYIch1gfJgFGFSWEXyJ6SafOYDiCUKWKIhrpjWyKrGjZCVz2WHpYHnUPChlI8T1h0JB7cgMib5jAJYEFkIrwFuIS57gHKa5aYkXShMke8kWQXJh7S4VwrpJQ5llammnkp+Jcmq1J2wLNLasSJ1sFo5LAPeJ8w6IN3333+/V5qI8gCFM/nFTAXqJ6NFUYSiZJL2DKUY8QSNG0kXZcFG2OKGfJJ0iTyjhHjrrbf8NfIQf1GGS7tBWdxxxx3+f0YFr13b2F96+umnvUKirLojbniGGTv4JQqXeP1Kg7xBscJo7Xj7RpmSX+RLUlsQr2dxGSN/GRlNfrGXDiSlqxI0ZappN4rkc5Ybjfxo4gxlyE9Zaa8W4kkcrM1s+TZTkDqdFBfQpF3AXVp/rMg3SFb+aOIjsppUpkX6xmXJYVn9Z40/mrSX5U+tZbUMNPIjmDwn+1NW2jVtb5F2tazyAskr6dMYhmEYRj3Q4ZSj208dP26D67NzoyGm/+6b3b57b3Z/WNzBvf1eo2Hoo48bZ9aMHLzJ/Y/RG91X9tjsnni5k+vZfYsbtNdmN2zQZvcvszq7MQduanqegxk5v57d2d324JdGC42bH5y03o0Zvsnfl3iJ+48/a+9efK2jv7Z6bTu36rN2blC/zW7UkEb3HE+/0tF16eTc2BGb3JtLOnj33x//hf//o0/aNbv++9c7uD36bGl6fsXW+wve7OD/J031zOD+m5ulpShsDrnrrru6Tp06+RGm4fHZZ5+5Z5991o8YpbMzePBgv5cAigSuhx09jT9JoORmyvXDDz8cXclHEx86cFOmTPFKjFdeecUrilh7viiasL7+9a/75W8OOOAAn94vvvjCK01Yn5lntfzVX/2VV1zhBzDNXPJwwYIFPi5Fwurbt693i9KQjnke8bLA+LD77rv7UbZ0eL/yla+4P/zhD370NnkakhWWRjZqmS7Cww9RTkm6rrrqqm1GL3/3u9/1bv7jP/5jmzQXyZ+QavJ56dKl/rkk/zWyqnEjZOVz2WFpIN/wEz/ihHUHWYO4jKHI5164Xjxyh5v4GvKi9E9ql9g3hXQxG4LywkjAyPy/+7u/89fjsI444aTFvVIkrLLKVFNPOfCDsOKyysc3aNox8UdTB6uVwzL46KOPXPv27f1slm9+85s+vo899pjfrwXlB+0WMkT9RAHB+4dr0p516dLFKxRA44Z0ffDBB96wwqwXyT+uPf74496NyPMDDzzgxo0b5+Xx448/9kr8UDFB/tDeIIfktfjFxsnEpay6QzuGEkjCoKzffffdZm7y+P73v+/d/9M//ZPP8xAUzHvttZfPo6S2IF7POHr06OHLijiRl9RTZEPqTlK6KkFTppp2Q5PPGjca+dHEGcqQn7LSXi0SVpF2w9rM6kBGDjroIB/n/fff3ytJpRxAk3Yhqz9W5BskK3808Smrb1yWHFJPuCd1uNL+s8YfTdrL8qfWsloGJs+1aVeFLH9wx/2stlfcVPs9WCTOGLP+8i//0m3YsMH9/d///TZ9HcMwDMPYXrTb+vHcNtZNK8BPTl/vMJbt6DOGDMMwWgN89DF6j/XAgSVq6lVBwIefLKHBxzGjZcueMWS0bZJmWNQbMop2e8eRtsPqn2FsHzA+Xnnllb69ApSy8ZkshmEYOzIyOwkwoLGXoS0jZxiGYdQTqj2GDMMwDGN7gTJJjEKtCT4AiXu4JIVh7OigDGa0LEu3bW+og8ycCfc+MAyjNvDuwxDEEmMYaJmhYBiG0ZZgtiTtH0vlskydGYUMwzCMesNmDCXQWmYMsffTN0ZvbLbvkmEYhmEYOy71NmOIWXIYg4B9alh2j9lyLNsyc+ZMf317IfsQCPU8y8owDMMwDMMwDMMwaonNGGrFLFzcwS8hZ0YhwzAMwzC2BxiFWCaFgzX9Fy1a5GcIbG+jENx2221u0qRJfrQuh2EYhmEYhmEYhmEYjdiMIcMwDMMwDMMwDMMwDMMwDMMwjDaCzRhqxbCUHMveHTtmQ3TFMAzDMAzDMAzDMAzDMAzDMAwjHZsx1IrBIDTle+vdrOc6+SXlDMMwdkTYUyVk2bJlburUqdGv+oI9TcaMGRP9aoQNt1nSyjAMY0eFtm/AgAH+/3ptnw3DMFoC2r+hQ4e6pUuXunvuucctX748umMYhmEYhlE5F110kVu8eHGLLtNe6oyhf7xgjfv36z+PfiWjcROC8eOHJ6+PfhmGYRhtDTba7927d/QrnfHjx7vzzjsv+lU5+HPnnXe6J5980h833HBDdKcYbMBP3GVjfsNozZRVv4wdC9o32suzzjrLHXXUUdFVwzCMtsXIkSPdqaee6u644w53+umnR1eNlgaFGX31SmlrfRsG21WTXy1Jay6LauWwbOotPvWG5U/rpp7bsbKhP8E+vj169IiutAylzhjC6DN0wGZ34pT0SGvchNx37WrXrcsWd/2/dnGPvdAputoIRqP9B252j7/U0S1c3CG62naodsYQH/MXXnih78iiwFyzZo178cUX3U033dRspBPCOGHCBLf33ns3uQlHg2r94UXPPRk5T2V+/fXX3TnnnON/a8mLD9DYH3rooU0K2Xnz5rm7777bPf/88/63Fm3a2XA7DOvKK68sNFps2LBh7phjjvEzDQgrKV/KCgs0ZVFGHkqcs2SjVumis3nxxRf760kQ1mmnneb/zyt3TXnluSkSHw2aeqFxo6GWYQHlyMbx1157bXQlmUceecTLGRvfz5o1K7pajMMPP9xdffXVTXFeu3atL4tKZvxIGWviXill5LOmnqbJayjXmnohECbxFrdPPfVU4TwqU8baKpTrqFGj3IMPPugWLlwYXU2mjPpVK6xe1K5e8HGGATypnSvrPagpCw3asqhVH1KDpL3aPpLWn7y0l+UPtLY23OS5Nu2qhrS8TsoDwkxqV1uivPBz8uTJ/n+eyXuvtjUkz8vsFyPfKM0qHZhQRt+mJdJVKcQlq18n7+xaDeTIi09ILfqZReJThGrlsGzqLT6V0lbKqzXQUmVRCfXcjuWBX0XeF6SVAdJxvWBRf/Ko+z2GHn2uo5u3qIObv/WIg1Fo/LgNrv/um6MrhhY6uYxoGjt2rJs/f74XqCVLlvjK9eMf/zhy1Shw5557ruvatWszN/IhoPUHGEVFhaqGvPiANPQrV670bubMmePDveyyy3x8tWjCuu6663za33//fe+Gjy3CuvTSSyMXOk466SSfP8Q5jbLCgryySMvDCy64IHKRj1Y2apku4KORcOQgPHj55Zf9WVPumvLSuIG8+AjkJ3FDERBHE2eNGw21DKsofFCQf3Pnzo2uFOfkk0/25yuuuMLHlxdtPS0DhxxIO1ZGPmvrqRCXV5bJE7Qyj/Ht5ptv9jMM6OgQbhGFEGjSnlRXjObQXtLWDxw4MLqSThn1q6WwetFIresF4fFhRh8h6aOkjPdg0bLIQhOfMvo/UIYcQll9JI0/mrSX5U9Z+aOhLJk3ea5tu6ohq+0FTbtaZnmhzJ4+fbpXbk+cODG6atQz9dy3qQTqt7ZfVwuKxKcWZVFv+WNkY+VVP7TlstheaZfvLAa0tDR1bxj6xQNd3N/c1M19uLLuo9qqoFN83333uUsuucRbGvmgZ4QV1w888MDIlfMVAC6//PImN3Sg6RDTWdb6g1ADH5LVkBcfOPLII32nnXu4IV7EkU760Ucf7d1o0IR11VVX+bSff/753g1nwqbxKALWZ6zAPJ9GWWFpymKfffbxI+LCPGTWBunmI0uDVjZqmS54++23fThyMCMEKAPQlLumvDRuIC8+wiGHHOLzEUVAHE2cNW401DKsotx4440+v5GxSmloaPDyV3QkbUuDfDOC7t577/WyAGXks7aeCnF5DY1mGpknXhjpu3fv7tODe8ItanzTpH3KlCl+iSvW/m9JuWsrlFG/ysbqRXNqXS9QlgKK0yTKeA8WLYssNPEpo/8DZb0Hy+ojafzRpL0sf8rKHw1lybzJc23bVQ1ZbS/x0rSrZZcXxiHqBDOMjPqnHvs2bRUrC8MwjC+hj0Ufjr0LWxpvbWHPH44ZU1e7sSM2ulsvadwHSH7DsEGbmtyxvNtVP17rlzJL4i/Gf+Hd4Ba/ktxlueF/CUuOkJ+cvt5fY7YQsJxa3K34cfmP1vlwOCRMDtIDfXtv9m7kWf4X/3d06BjHlZ+MKAs7+EOGDPEd/3DKnIzGEiWMxp8999zTn2UUVqVo4oMBaMGCBf5/4c033/TnQYMG+bMGTVjcC9NOmhlNx4i8IuBPXieoSFgoyxh1kzSST1MWq1at8uewDIGGKV7WWWFpZKOsPMxL1zvvvNNsJKDAhxsfcFLO2nLXlFeWG218NGjirHEjZJVp2WFVC3FFyREecZiCK0oh0oUbrqUpRZDzNFhKBSU0fuAXyoZ4PSkL/GV5RMJDIYESFnlBdqCsfNbU0xDynCMO8cirF5QBbTQjaqtZJkKT9ldffdW3JYwURnFNWRVRhIWQXvaaEhmjTBiJHZInGxo51Moq9yUsjiQ5zIozZ66Jsk+UhXIImvoFZaRdi9WLdGpdL/r16+fTFoYXkpd27XuwaFmkoSmLIv2fLMqSQ57X9pGQP+pX0rtb448m7WX5U1b+aChL5omryXN15VUk7VnyHJLW9ua1qy1ZXnyHEnaSnGnTlQbvTo6QpGu853nvhu9v3psheX2J8DnSIv7J76Jkvd+Y2SfhkT/0X+LlStyIo7iL5yHuuY4b/OCQfgeHzB4Ud+ERh/zU9luqeW+DJu1JZRxe0/brhLx05ckGz2TlT9n9TNxl9cPz8rBI/uSlPU8OtWjLPU8Oy4pP3B/+l3wT5F5Wm1BGulpreUGerILGTV66gGekDEK/QjRusihSFtXqSSh/no2XUdr1rHoBmvhk5U+RtGvRvi+QN75xWbo2qa9X7XsnjjcMsUfNG++2d3122eKOG7PRvbe8vZs9t6P//Zff+sI7BNxxsKxb/902e4NMktHnyIM2ujkLOjT5gTsxxAhZbpb+qX1TWMQrzh/fabwv915Y0LHJPUdIQ6/N7lePdvb7FA0fvMk9tTU8/v/G6EaD1znf/sKNGb7R+8WzXbfeG31A4722CNPs6fgLdGr5qKACUTFoxGRGRtZoxbg/AwYM8OdqpwZr48MIuZCiIyuhSNqpuDRMLLHBx8K0adOiO+WjCQsjCfFn9kMcTVngJx9FLL9A2nlxMTLu9ttvj1x8SVZYScRlQ6g2D/PSxQceI/3CRpSXBXGXj1soUu7VoI2PBk2ci6Qrq0zLDqta5MOeI0muBNaVZ315puKiwGJaLsuiAPEjnhzIJ4f85kA2gfKRZwhv0aJF/oXN3gplQnh0XOiUsEwMeTdjxoymkcGirGjJfE6rp3SM6BRx0MGizhaBtpnOTa9evZo6apyL+qNJOyMPyTPykiVgUPawfxSdP8pSC36TXhRjxJeyX7dunc8LibdWNrLkUMhzQ1goOIGwiBNpo+0U8uKMIoxrUsaEw285BE39KjPtWVi9yKeW9QIoU97XlVLNezCtLKqlSP8ni7LlsNq+n5DlT5G0V+tPS9bTOGXKfBYmz5WRlnaNPGe1vXntakuWlyhxdt55Z38OKfrdVAkMniBvQN7hcgikNa8vwXXSSbmz1PJ7773n3fG7yPtbi8SReko+Ua7ImkC/gv4FccIdgxPYPysOeYuMk8/IJ/0O/pdVF8r4diibvLTnoe3XCdX2MyErf8rsZ5IP5EdWPxzEn6Q81MZHk3atHGqQ8LPKPU8Oy4pP3B/qUdwfrnM/r02oNl2ttbw0sqpxo0mXpp3XuMmjSFlI+XG9Ej0JgzDos9BPCfnmN7/pz7/97W/9Wchrx/Lik5c/RdvVMjnjjDP8uRazhaAjf34+s4ufJTN0wGa36tN2/jfstdsafw0WLu7gD4GZNrddvsaNGrrJPfZCc2PM9Xd3aXKL4QijD4aY8PksN3KAxCuE8B7b2l+Te8+/2mGbOAhvL+3gfvNkJ/c//3y9W7a8vTcqjR/XeI80iFHof123U+PFrfzjBWu8saqtQeWhUY8LOR8CNFJUGjrZ999/f3QnmSR/aIAZnZZk7QRpINPALzrvkBcfKi4NA1ZjlgfgpSad79WrV5caFvBxfMstt/j/SV98tlKZaMNidBsfPDJTKiSvLIB7jLBkWT5pLHkhcS1OVlhx0mSsjDzUpCvO1772NX9+4okn/FkoKvNlEY9PkqwSJymTorKqTVdemZYZVrUQTw5AWUHdT+P6669vcouCiM4B8NEoeSqEv+kU8BybPANLqYg/tDOEiQzLtWph/VriJsqcrFG9LZHPSfX0k08+8W0rbQByQWcY5TydVtKtHXlMXpEuNoJm/f5u3bq5ww47zPuDH0XyUJt2lD4clNHf/M3f+A8RynLmzJmRi2xEFth3Kkwn9VMUSkVkI00OQ7LckHe0cyg6BfKBPGSkFHHUxJmz1Bnad7keQhwkHmn1q+y0p2H1Qket6gWgaCubtPdySFpfogyK9H/yKEsOKaNq+36Q54827WX5U23+FOnPQxkyXxST52yy0p4lz5q2t5J2tazyEqNZEkW+myoFhSNkvSs1fQnqj7z7KX+pT/KOrwSWxkmCPAnLhDzGkMd7n3rLb8Kk3FnOT8BNHL7/qdcoBSkL+vEi/xCGVem3Q5y0dGnIS7sGad/y+nVCmC4MxqGBVyMbQlr+aOMTpj2tLKTssvq0oT8Qz0NtfPLSTr3leY0c5pEX55C0fC5SL7LQ+qNpE8pIV2stL42satxo6qCmnde4yYM4ceSVRZHvwSwYmMH7PMwPDEW8z+NpyGrHNPHJyx9t2ouS975AtuivYIjKyrdq3jtxtpmOg+FEwFhy4pQe/n+MKD88eb03mnBcfPY6f32v3ZobbSA0AKUZbDRuWpqRQxpnKGE8Con/bgvQwJx99tm+wtFhDaEjzTrLdKryRlCl+UNF4loa4WiRpIOwhbz4sAEu9wiThhcLvHwA8XIoMyygslIpabh5no+vIpbxIhQJi8aNF0qcvLIAXswnnHCCH5Ug4bEMByMPaUjjpIUVkiVjZeShJl0hNLi8PHgm3uAWkfmySIpPKKu8GICOjVwrKqtF0pVVpmWHVSvCcqYzK9CpRf44yF8O+c0hHQBkjHuhP3x8QpmbETLrjTXtqXMyqpkRLUl1r+x8TqunyAMdakZekx/ckxHHRxxxhD9rIV1sfE2+MyVc/EnaPysLTdqpV3SkyUMUmX369PF1qchoaTqNlHu8wxh2DIvIRpochmS5QZlJuuicysGHAsjoZE2cy6LstKdh9UJHreoF5L33i5L1Xhay+hJlULT/k0VZckheSFzy+khZ7+48f7RpL8ufavOnSH++LJkvgslzNpq0p8mztu0t0q6WWV777rtv9F8yWfW0DJ599lk/WE7elaQdg1aIpi8REtYn8h55KhPiwjsdxR2HtCkM/ANZslD6F8Jrr70W/dcyhLJQtN+iJS/tLUGYrrghs4hs1CJ/NH3asvIwL+1lymGROKflc1nxqcSftDahjHRpqbfy0siqxo2mDmraeY2bsihLTyIzZESeeO+SF0n9jqx2TBOfWuZPEZgtxOC7Bx54ILrS8my7TlsKf3vOOnf8uMZl5jCcaI0nskdRFho3SaxZH/1jVAWVjc05V6xY4TvPIVQUGjsqFEu10AlmVBYsXrzYn4U0f8IPD6ytcgBT8flQw3867WmHNJSa+NDR5h6NCQcVnI9WnsWfMsMKIVzcsA4kDVHRD64iVBqWpiyAkQ/4LS8swuOFRAMl1vciZMlYSEunK4SRGDB79mx/FoqWe1kkxSeUVfIfeKFVIqtlpauWYbVVqAfh0jdM02fkDMosOi0i72Xnc1Y9ZdQO90PidUcLyw6RRqESfzRpp+1nJBcdaZRDLDs2ceJEP8I83hlvbfAxhmzEj6LLtTKLtrVg9SKfWtcL4szHa1mkvZcFbV+iGsrq/7TEe5C44E+1/cw0f4qmvRp/ysgfnpX+UNIhfaTt9S4weU6n2rRr294i7WqZ5dW9e3d/ZmZTLaA8Q2bOnOllHFnnXcloa2bP8K4MKasvUQYYLzFiLlu2zH/rxBW5OzKVpj1e7lBWv6619TO1eaiJT63qxY4q82Wmqy2XV166NO289l2goVZ1mXc2aWfpPJBl5LJm8laKNn9qlXYB3XWS8bAlURmGWOqtf9/GvXr+4c6ufqm5mY/rZvmcdETjHkQvLUw3JGncJPHuB43R362hsmXf2MsI+sVmPTX0ahvLyGF5RXmOhZSRT3Ryw84zsBZj/OOTtRxBOs55/owYMcKf8YcZPHIAz4p/GjTxCcF/phVyZu3pIhQNS2jJNaPjZIXFBwzpDilSFnwAhrBGdxpJYQHX8mQsiZZMl8CoQHjooYf8Wai03KslLT4aNHEumq60Mm2JsFoLvKDj6WI5FWDkckuAYgvl1aRJk/wIaJRaMsqlrDLV1NPJkydvowgRJUqRzhL+YqwN45HlTzVySBvGiHA60RgTUGRp2p84EhZxSaOWskEZMdqMDwPkIzwkfZo4gyxlIwq+SrB60TbrBfBxjGIqT860pL0HNWURkpY/Wsro/5Qlh0kU7SOlkeRPkbQLlfhTNH+qoUyZL4LJ87b+lJV2TduLv0Xa1bLKC4YPH+6NaWlKnWrLNDQI4E+SgZ44Iuu8K5F7DIK4I2wgLXl9iVqBoY+4MaMLQy6GXeIeIv2JeH8FRV5rRpN2QVPuZfTrypSNMuIj7Y/IbpwieZgXn7y0lyWHReKcRVnxqbd0Ca2tvPJkFTRutHWQ/4lHWjsPGjca8sqizO9BDEO0d8zeoaz4zcCUImjjo8mfMtoxLQxop31vCUNYFh0x+uw/cLPbp3/jsmqHj9jkfz/+Usem5d7EgHLkwRvc6rXOde/m3PGHb3BLP2zv+vTa4peY+8UDjfsSAXv/wOgDNvq9embP7ejmvOq3M2oiy81fjP/C+wsSL3HPUney9Nz8RR3c2vXt3LeP3uD23G2zW7/1f9AamEgf+wuNGrLJL4/HLCiMQrLE3I4OS67RCabjisU7nFVB5aPhQeGCm7/927/16zNTmahgVBhplPL8wRLLEQc/qLBMPdWiiQ+VnyUC5B5wn5HGRdCExUcmyNRXPgRoSEhXkcZLGgCBDxk+QoBlG/CrSFj4x8hI8p+RfYK2LKQhZZosZcryEaxzSRnHG6m0sEAjY7VMl0BeEy/8kbIUNOWuKS+NGyErPoKsp550XxNnjRshq0zLDqtawnwmHJB8FhkrC2SfdEi66BzwO0lWywb/JQxJb1llqqmnbOyIsTWpTZAp3xqZJ574w1q+/J/kj1CtHBZ5t2Rx9913+845SiGUi9JWoQylEwm1lI277rrLh3vHHXf4zU8lPuQlHyugiTPwwUHeM/NmwIABbu3arZ28rTz99NNeoaWpX1Yv2ma9ADaBZWb2d7/73UQFqCbtAu6IO+mKl5OmLISs/NHEB7klz6rt/5Qlh2X0kUDjjybtZflTJH+qpSyZ18iPYPKc7E9Zade0vcRT266WVV4gCkTevUlkpUsDdY+8Z+AjS+dQFpQz5c8yR3zvIgekV97pvPsZfU0apK3O60uQDtKN/0Bbz++4rJeBKOmYxfbpp5964yVGPJSjYbpIJ3EI014JlIHUHfFD6k5SmbYk2rRryh3y+nUaNP1MLWX0M/P6tNo8hLz45KVd2tVq5bBInLMoKz4afzRtQlnpElpbeWm+vzRuNHVQ085r3GjJK4syvwcx1BAOeUz7QB+kKJr4aPOnjHZVy9FHH+37IUm6zZakwylHt586ftwG12fnRkNM/903u3333uz+sLiDe/u9RgPLRx83GoZGDt7k/sfoje4re2x2T7zcyfXsvsUN2muzGzZos/uXWZ3dmAM3NT3PgUHp17M7u9se/NJopHHzg5PWuzHDN/n7Ei9x//Fn7d2LrzUakFavbedWfdbODeq32Rt3xM3Tr3R0XTo5N3bEJvfmkg7e/ffHf+H//+iTds2u//71Dm6PPluanl+x9f6CNzv4/0lTPTO4/+ZmaSnKKaec4nbddVfXqVMn3ziFx2effebXXMQ6SiUYPHiwX6MTyy3Xw06Bxp8kWKOZ6fgPP/xwdCUfTXxoPKZMmeIr7CuvvOIt+uxLUBRNWF//+tfdwQcf7A444ACf3i+++MI3EKzdzbNa/uqv/sov94AfwBIEkods6ktcioTVt29f7/att97yH215xMuCNTx33313PwKbF+lXvvIV94c//MF/XJGnIVlhaWSjlukSUGKRrv/4j//YJj2acteUl8aNkBUfYenSpT4dSfc1cda4EbLyueywNFCO+IkfccJ8RtZA8llkjE4F9xjlIyB3uAmvAW4hqV1iPWLSxcgVyotOIR2Fv/u7v/PX47DGPOGkxb1SJKyyylRTTznwg7DibQIdLNDIvPhD5yz056qrrmrqdAvVymFZUPdQBvFuoZ2StqpLly5Nm5dqZEMjhxo3pP2DDz7wHyKHHnpoUx5z7fHHH/duNHEG4kYbiawSb/GLzjR+aOpXWWmvFgnL6kVt6gUgIwcddJCP8/777++VOFIOUNZ7sEg/Myt/NPEpq/9TlhxST7hXbR9J448m7WX5U2tZLQOT59q0q0KWP7jjflbbK2407WpZ5YWS+y//8i/dhg0b3N///d+7jz76KLrzJVnp0kA7i3KL+O61115eccigSJRV1Eveqbxz5R3LQX+BUerkD+02UKZZfYnvfOc73rBG2qF///7+flzWy4B8at++vVfIsWwQZfXYY4/5vTRQ4kq6kGdJu8Tl3Xff9f9zP97vlu+HDz/8sNn1sO5I+vifQ8q0Fv0W0KZdU+5APc3q15XVz9TmT158NGWBu6w+rTYPIS8+mrTnyaEGbZw1+VxGfCDPH02bUGa6oLWVV56sgsaNtg5KnnHgNt7Oa9xoySuLonqSPFgRCL949qc//Wl0tRGN/Gi/TzX5g/ustJcFxtcTTzzR/du//ds2fZGWpl2PHj3axrppBWB2EsayE6f0iK7UJ8z2mvK99W7Wc5388n6GYRg7Inw4M3KCteKB5YvqVXmEUkCWV0FxwqhRRrlgoDYMw9jR4MOWDXj56AaUsmXOSjIMw6h3GHWMwhRQIF1xxRWljyI2DMOoNcyyQRHO7CDDMFoW6hsGJ/Y9is9ebmlUewwZhmEYxvYCRaMYhVoTKAeIe61f7IZhGLWC9g1DEEuMYQRnZKZhGEZbgtkctH8zZszwCh0zChmG0dph4A9KapZLMwyj5WGpQ2Y8bQ/dkc0YSqC1zBgaNmiT+8bojc32XTIMwzAMwzAMwzAMwzAMw8gj3O9J9lph9QuW1ZpZ4/1ODMOoLWYYSqC1GIYMwzAMwzAMwzAMwzAMwzAqIVwSkxkLzF5gJuSsWbP8NcMwdlzMMGQYhmEYhmEYhmEYhmEYhmEYhtFGsD2GWjE9h45zA75/rdvtz86MrhiGYRiGYRiGYRiGYRiGYRiGYaRjM4ZaMRiE+k34qft43iz37l0XRVcNwzAMwxBuvfXW6L9Gli1b5qZOnRr9yoc1t8eMGRP9aoQN9m+77bbol2EYhmEYhmEYhmEYRuui1BlDQy/8tRv59/OiX8lo3IRg/Oh/ml6BUw+0xjiPHz/enXfeedGvysGfO++80z355JP+uOGGG6I7rQ+UiaQhC42bkLLyeUeHNW6L5OuOjMlh9Vgetm32228/17t37+hXdbAJK/7J5qyGYRiGYRiGYRiGYRitkbpfSm6P8ee53qNPSVwujWsspcaSavVEVpzrlcmTJ7tTTz3VKzsr5fDDD3cXX3yx69Onj1ewslndvHl6I2BbICufuYZBZNiwYdGV5pCnHDLSnfyWazwnoKy+9957/fVHHnnEXXPNNYWVmKIkDw+MfIRp6IjnXz3lYWuRQ/E3PCwPm+chYXCd++KH1dVtefnll90555zjj/hsodNPP71pQAP5GL/PzCB59q677oquGoZhGIZhGIZhGIZhtF7q3jC06vePurVLFrhPX38muvIl3QYMd7uMGu+69h0cXakPsuJcr6AMw4gzd+7c6EpxTj75ZH++4oorvGLt2muvtaV2YmTl86hRo9zxxx/vBg4cGF1J5sADD/TnQw45xJ9DUCSjrAYMc/Pnz3djx4511113nb9WFPzgmDNnjhsyZIi77LLLUpXdxrYsX768KQ9ROtdLHrYmObQ8TM9D8mDatGn++qJFi7w76irhf/Ob34xcGVlgxDv33HNd165dff4tWbLEHXXUUdsYhwzDMAzDMAzDMAzDMHYk6t4wtPTeqW7Rz7/v1v9pcXSl/mmNcb7xxhvd+eef75WwldLQ0OCVas8//3x0xYhTbT6jGGfGAArhESNGbDMj64QTTvB+o+jEMMcMLpSde++9t98noyj4If5Mnz7dL6N0xhlnRHeNPFauXNmUhyia77vvPp+HxxxzTORi+9Ca5NDyMD0Pp0yZ4vNixowZPi7ibtKkSWbYUIIBDy6//HKff8wKev31171xqOgMN8MwDMMwDMMwDMMwjNaCNwyx5w/HAZfPdg2HTHDDLnm02W9guTZxN+LvXnBDfnJX6lJp/Sb8tXeDW/xKcpflhv8lLDlCWD6Oa8wWgn4TfprqNg9NutgXiTjG49z3uHMjF/lxrkcYKY1yMjzisKQYS+ygiGSEPG64lrZM0Zo1a6L/toXlejRLSxEv7leq2JS0EBbxlCWC5DegjBV3hMXSS0lLQkGYdvxKcpflJi+fWTqKa6KgRLGb5nbt2rXe+HbSSSf5fS5CZTLhoCRmyaRQWf3ggw/689ChQ/25UmbNmuXP/fr182eJX1Y+Q1658z/XxL+kckfmOEKSrpEHlKX4Rbjh0lxAWUl8OOLxCZ/NSlclvP/++/7cvXt3fzY5LI7lYWMekm6eY4ZQfGbmwoULo/8ayauD1CPSGqada3F5J324C9OEv0JSnQyvSf4RPuFwSJgcpEngei3qKTPQMASFefbCCy/4c9JMLsMwDMMwDMMwDMMwjB0Bbxj6eN4st+7Dt1zHHr1dw6Enu/Ur33OfLXza/94jMH7gjmP1u6+6Tg17eoNMktFnl+H/w33+5otNfuAuvg9QlhviImHxf5y17y5odu/zt15qcs9RFHkuK11cbzjohGZx3v3Iieo41yPvvPOOH4HOgWIsDUaojxkzxj311FNeCYkyklHsgKIPZSEHm3tzyG8OUfShmJRnCI9lj1j+6Morr/TXQvbcc0+vFGUGUiVIelAisrzde++95xWG/JY4gKSdJZoIEyVuqAQWjj76aPfiiy96P9g/CXehAhOy3OTlMwrh8B55LO454qC0PPLII73CWJTk0KtXL3+OzzwQhWel+ZmGxDkrnzXlzv9cwy/cYHg69NBDo7t6KDvyHUUv8cCvdevWeSU9SmYgPmeddZb/n/u4GzlyZLPluTTpqhQpo9WrV/szEB6HyaEOy8PGPJRl6pYuXerPaWjb3qx2HljaTgxeYZqS0pUH8b/99tt9O8+yd4TJ/xjJoJb1lHBXrVrln+OdhdxIWRA3wzAMwzAMwzAMwzCMHRFvGHr3rovcug8W+QsbP1/h3r71R27xL3/iDRwYROCzN57z7ji4/9Y/NSpae+x7mD+HLP23K/zzHB/MutFfaxjduP+MkOUmDEviFbL8d3c2u/fZH55qcs8BSTN4woNZR1AkXctn39YU54/m3Ofaderqdh51nL+XF+d6BCWjLNH09ttvR1eTuf7665uWKUJpiBIRZC8NDhRrHPKbQ5SXsuyTLNfDskco9VA+xhWzjH6/5JJLEo1GGsL0oPAjzsxCITyJd5h27osiEYVpnKuuuso/z8FyaiAKTCHLTV4+MxMnvIdyU9xzxGFPE5SZr732WnSlkUGDBkX/tQwoa2HZsmX+HMY5LZ/zyh15+f+z9ybQVlVXovYCLp2ACtgERYii2IGUDaKYsnkmBjVKmdhUKr9ilfUPn02QwqqoeerwlZZNvWAhUVOOl0YxeaXoH6OmlJT6ECtGbCifiEVUIk9F0SCgJrTS/H7rnHlZbHYz9znrHM7lzm+Mfc89e6+z2rnWnmuujv+5xxZOuOGzFpA3CM+4Ovfcc/1KA1lRcdppp3kj/FlnneWf446tyYivrDLQpEtLOFCKH+eff75fVXf//ff75yaHxVge5rNw4cLqf+mUaXuz2nlgwBXuvPPOLdJUyzly5M+MGTP8/wzCJAfAml1P+T2Dx7QhZ5xxRvWuYRiGYRiGYRiGYRjG9stWZwyxGkd4Y8rX3bzvVGbM9txtbzf4rOv8tmpcQ8+d4u93H7Cn/wxhkERgECcNjZt6CFfwpF2SzjLpCuO55NH/4T+79ujtP7d3MIgKGNEEjHOcxcCFQY5LvnPJ9mNi/A/9EaNe2gHtnFOEYbBeQoMjAw7ECRiQYAa8bHMkg1CyTVpIGGdJTxKNm1iQN6QDI2hIjPxKIgZ5BlcwuIcG+ZCsfC4qd9mqSe4JSUO5BtkSKnnGVVgeGIwpewz2csnKhJ122sl/hmSlS0s4UMpvWeXCwJWUlclhMZaH+RStainT9oZuwnYenn32WV//b7rpJr9tG3GWweLYNLue9u7d22/Thz+yjZxhGIZhGIZhGIZhGMb2zFYDQ1nsc8Gdrv+fnOw+W/6eXxGjXRUjZxTloXGTxsZ1q6v/bU24giftkkGeWtNldGzYkojD3Vn9gpE0OTCRhebsijLnW4SEW2PVQtb2RxhYIWno1SAGebZxwmiKQT40Hm9LWGlRC6SDga7kxeqN2IQDpazAoCw+/vjj6lOTQw2Wh5sJ85Bt7YCt85oBK3wmTJjgpk+f7rdtO/jgg/1gMYNEebR6PWWwi0FE2jVWU7ECSvJ00aJF/tMwDMMwDMMwDMMwDGN7QzUwxLZsbCn3+9n3+G3UGFj58Il/rj7NZ5exf+4///DbX/vPNDRu0lj7QeUsn7adv+A/y1I2XeG5Q7sHZy8ZxWDcTW5dtM8++/hPMXCGYJAVI2hsOEOCGemcccGs9zLbIf35n1dk9ZlnnvGfaWjcpCFbQtVq6GV1A0ZOzucJ807O13njjTf8Z0hRPotBHsM7RtPkapwiiso9y7iN0TlJaGAmzsntojg7hbDyjPkc9s/KIozL5Fd41brSRSurrHoAjOtgcrgZy8Mt0eQhAxnULwaP5H4aZdvePKgj5C/btrHNG+VB/od1rqieamhEPc1C2o0wfzhrCWbNmuU/DcMwDMMwDMMwDMMwtje67XniBdft8qffcr2+sJ9r6zvAdWnr7vodcIzbuHaVW7fs3YqjXn1d/8O+5tr69Hdd23p8/vxLbo9TJ7uNa/7w+bN+fju2T//zaTdw7DneD77vdMhX3J5n/DfXc9eh7g8LnnFLHpvq/dK4GXTa37kBo8f75xIvcd9j50Fu1TvzvLsNn4c/cPSfuR0GH+T6DB3ldjz4eO+G7d3WLNna+JikbLp67fZF12+/o1z/Q0/5/Henui7d2tySX07x+aSNc0xIc7/9x7o1Hy50n7z6ZPWuHoyJJ510kvvSl77kDYW77LKL23333f33fv36eeMmZz1wH8OrwHOMduE9wC388pe/9J8hGAtHjx7tDW6ExRZEGP8xWv7kJz+puqpAvC6//HJvrMMQWAYMxd/4xjfa09PW1ua3K1u+fLn76KOPvJvu3bu7r33ta/6A9/Xr17vDDjvMTZw40X366ac+3eQBh89L2iVPJk2a5P3FGPrTn/7U+6Vxo8ln+OSTT3y8DjroIJ+/5BVuNm7c6A+Y52wV3LKlk7Dvvvt6N3J/8ODB3lDMAfqERfz4H0MrZ4yE5OVzWrmHaPIZisodtxiVuXfooYf6uLNlFFs79enTpz180hi6Iexly5b582ekvMi/sWPH+hVOBxxwgI8PvyMtTz5ZqR+rV6/2+UE+jxw5st3NV77yFV9m2nQJeXlIeRFHqQ+UEWn9kz/5E79dlZS3yaHlIdSSh+QNMs8AEmcJDR8+3PtBPcM/0q5peyXtee08W0pSTyQt/Ib8/uyzz/yAHHA/r55Sj8I0Sj58+OGHW9yPXU/T8jsEvyV/aH+QRcJ57LHHqi42kywnwzAMwzAMwzAMwzCMjkjX3kNGuJ1HjXO9dh/mb/QdNnqL78C2bEv//ad+AGXQaX/rBh51lvt4/v926/+43A+ADBhdOayZ78DvudavXOE+fPIuvxpH0LjpN/zo9ucSD/lOfIW1v1/kPph5u/ez34HHtrvRok2XwLPee43wYW1Yu8rHW85K0sa5lcAQJluFYQgD+Y5RLyYzZszwh5YD/mNwZFuoq6++2t8LYRslZsvXsvUZ8Q7TwwH0fA/P0mCmPdshYayUme/MDMeoyAz3M88807uT8CVPeE4awvNANG60+cxMeA67x5DKKh1xUwYMtBzSDvyWLeDI58mTJ/t7IY3OZ9CUO/+zbZT4yZZgL730UvVphSlTprS7Oe6449xDDz3k74flxWomtrrDHenGL65hwza3ZQw8sB0VqwQkzly9evXyz7XpEsrmocSbFS8mhxUsD9PR5CEyz6Aa95FhCYf8IE+hTNubR//+/bdIC/GhHlHnBE091RC7nuZBWOTPmjVrvB+scGJQKCx3wzAMwzAMwzAMwzCM7Y0uffv23VT938hg+OU/94M9874Td7CkXtjajgGtj1+Z6bfBM4wQjJuPP/54+2x+w9gWmBzWj+VhfZB/DNYx2AcMPpcZ+GGlGIOCwAosBo+sPAzDMAzDMAzDMAzD6MiozhgyDKPjwYoBtpgKz84wjGZjclg/lof1wbZ5MihUL5QF/sU+68gwDMMwDMMwDMMwDKOZ2IohBa26Yqjf8LGu/+jxbvU7893Sf7+3etcwKjDLnfMyBLaBMoxmY3JYP5aHhmEYhmEYhmEYhmEYRky69ejRwzbSL2Dg2HP8mUMfPvHP1Tutwbpl77pPXn3SrXpnXvWOYWzm5Zdf9gf0d+vWzQ5KN7YZJof1Y3loGIZhGIZhGIZhGIZhxMRWDBmGYRiGYRiGYRiGYRiGYRiGYXQS7IyhDgxbyQ351i1u1z89t3rHMAzDMAzDMAzDMAzDMAzDMAwjG9tKrgOz00HHu12PPc9tWPOp31LOMBoBB95feuml7pvf/Kbbbbfd/LZWhmEYhmEYzQA95JprrvHnqw0YMMC99tpr1SeGYRiGYRiGYRhGrURdMTT88p+7Q/7xleq3dDRuQlgNM/isjjV21RHjbBhpYIyZMmWKN8bssMMO/moGV1xxhXv66aer34xGYfnccRk3bpwvO7nuuuuu6hOjM4EcMHBvGEm2J9kYOnSoHxA65JBD3MUXX2wybxiGYRiGYRiGEYGW30ruC+MudQNGn5G6XRr32EqNLdVaibw4G0ZHAmMMg0GPP/64O/fcc93tt99efVIBY7QMLMggA8YoQZ6nXWUpCkuDrH669957/e+zjOm4+au/+qvqN5frNo9a8ue2225zRx99dNVFx4V0kmbyPA1Je2jgS8ujZlJUXlpi+ZPH22+/7esl19KlS6t3jSRFcgjNKnd5Hl711veJEye6M888M7p8hcTIH23bq+Hss89u9+exxx5z111X20QcTbqI8wMPPNAe1s033+x23XXX6tPmQ/yIa548C3myUcafPJolGzNnzvQ6yIQJE/z3kSNH+k/DMAzDMAzDMAyjdlp+YGjF/3ncrX53vvv09V9X72ym95ARbudR41yv3YdV77QGeXE2jI7EJ598Uv2vNp5//nlvuJ4zZ47//vrrr7cbs7cFp59+ujeULV++vHonHdyMGjWq+q3xSJ6QT/vtt5/fMqdeg922hvw7+eST/eBiHmPGjKn+Z5RhwYIF7pZbbvFXkTx3ZrRy2Exi1ncGK1555RU3d+7c6p3WRNv2FsGgAytGevXq5fPw3Xff9Staax0cyoPBCuIMhDVv3jx31FFHuVtvvdXf2xaUkec82WilelGLbCxZsqT6n2EYhmEYhmEYhlErLT8wtPiB69yb3/+WW/v7RdU7rU9HjLNhpPHcc8/51QgjRoyo3inHj3/8Y2+4lhnFb731Vrsxe1vwyCOPuLPOOstddtll1TtbI7Od33//ff/ZDCRPrrzySjdt2jS/Suucc86pPt1+WbVqldtrr722ixVShqElZn1nFSftWauvGtO0vRoYzIBrr73W5+GFF17oJxwwOBR7Jc8pp5zi85WBKCkvBohos8IVpa3K9igbUk9+9atf+U/DMAzDMAzDMAyjdvzAEGf+cB107SzX//DT3IFXPb7Fd2C7NnE38h+ed/t9+2eZW6UNOu3vvBvc4leauzw3/C9hyRXC9nHcY7UQDDrtbzPdFqFJF+ciEcdknHc/6eKqi+I4G80Boz6DEGz3wmxZLgw48n84K5v7skWM/CZpWGJrFNneRC5+E1LkhjDlPnFg66DkViuES/jijv9lW5YQTZwB/wkrxixqZvFiCNPCli9lSKa9TJzTwspLO6ssioxke+yxh/9kpnUjKMofeT5o0CD/KflCuTOAIrIm3wW2VxLZIP1J2dDkM1v4JLfxSbtHHiPH4hfhIq8gcisGXIyp4o4rhNn+GHXHjx9fvbMlRXWH/3lGunjOVU99T6OsjGWR9CcvD0HTbhRBmvk9nyHit8Sf8kWuJO94xndkSsCNxCd5hRTJoYY0mUveK8qfMnKYRlE91dKI+i5yH15pFMkYNKteaNpeDaywos3AP4GVqXD44Yf7z3qQdJEWBuxeeumlLeLNIAYMHz7cf8aQVcB9sg5yT8pcK89FsqHxR9tuZNFI2ZAt5Ji0YhiGYRiGYRiGYdSHHxj6+JWZbs2Hv3NtfQe4/keMd2uXv+f+sOAZ//0LweAH7rhWvvOq695/Dz8gkzbos/OI/+L+uPCFdj9wlzwHKM8NcZGw+D/J6nfmb/Hsj797sd09V1nkd3np4n7/Q0/ZIs67HTdBHWejufTv39/dfffd3rDDlimzZ8/2/7NlCWC8PO+88/z/zADG2MGhxuEWMWwjI8YT3ISXoHEDco+taBh4wBgTGoZuuOEGv0WNbLVG/I844ojq0wqaOAuEQXrxp1YIDyPh/vvv37BBEkimHQNpMu1lqDftQ4YM8Z+tsjUTeULeYKxlAOW9997zZc93ZrIDZSX/4/7NN9/0eUreCrHyGblFfjHQEg/8WrNmja8HGBKRFYkzsF0W3+VKglEXOc5CfpdVdyBGfS9DvTJWlIeCJu15sGKPVVnJ7fpOPPFE/xnOumfwl/BfeOEFH6eBAwe6888/3xuDQbaFlEvaBAb3BI0cxkTikpY/ZeWwVZA459X38HwpSV8SjYy1Wr3QgP8rVqzw+cEgB+mU1Z3U/VjsuOOO/jP57pMBqbJplPLKq8vUQeoq7RfyyrtXylwrz0WyofGnTLuhJZZsPPXUU/6TQTPkWNonwzAMwzAMwzAMozxd+vbtu4l/WIXDChwGNt75WWVGKStlOL9n3ne27mz33G1vt//f/sIPkiz6ybf9PXG/6IcXuT+88Rt/jwEWBlrEX42bEIlXWhzk2ZJHv+eW/vu91bsVxM8s0sKCvHSF4bB6aNc//X/c8hcf8lvHheTFOSZ5+dZZEWMYBg62fhGDGMaQ8D4zczmjgO1LBIwMGMmuuuoqPxuVWb0YmuR7Gho3STBoyQxtZs/Kdww1bIsjcI9nbJEDmjiHMNN44cKFNc/SJn4YhzBkTZkypa7Z3slyEbRpL4sm7aQvGS5gcMJAxzZCQpbbeiEsjH9hOsW4LvIBGEAx6Ib5F/5W/r/ooovaDZfhvY8++kiVz/wGQjfJe1kyTxmHM8Ulzgwups0gD/1lJvmDDz7o45L3G5EXyZuY9b0s9dQvbR6GJNMeklZuAm4p31A2CJ8BA5FxkZUw3yV/KBe2pAohLvfcc4////LLL0+VubR7nGdCuWQh5ZWWnrw0Qlb+FMlhM5G8qLe+h4jb5H2NjG2rekFaa21PpY4D6cafhx56KPX9Ug95chPGP5asSvmGdYewGVgNy7aMPGfJBhT5o2k3yhJLNpDRE044wb+nY5a5YRiGYRiGYRhGZ2OrM4ZYjSO8MeXr7YMbDJgMPus6P0jCNfTcKf5+9wF7+s8QGfCB5ICNoHFTD+EKnrRL0lkmXWE8lzz6P/xn1x69/afRscCggHEGI4RcGMNgp5128p/PPvusHxi56aabvAENQwlGvBCNG8JhZRGGHy6ZPS9bB8n2N5y/E/Laa69V/6ugiXMIRr16BnMwCrEKY9iwYQ07bFub9rLUk3aMc+EqiGaAkY4LIx1GYmTq/vvvrz7dTDh7HcOZGPyIM8Y0MeCB5CnG+Jj5jGGQsJJG43qM7gw+YsROUlR3tJStOxrqkTFNHsZKu8hReIYNeU2eJwnDZ9UA9OnTx38KxEvag+uvv34LmSuSw3A1Q9oVyncRsfJnW1BvfdegkbFWqxdaevfu7bd0I39kG7nYxExDGVkN6w4ro7YVZdoNLTFkg3qDjFLuDGjaoJBhGIZhGIZhGEbtbDUwlMU+F9zp+v/Jye6z5e+5NR+86S8NckZRHho3aWxct7r639Yw8MQqmqxraXWQp9Z0GR0fjEoY5pKXbCE2Y8YMN2HCBDd9+nS/nc/BBx/sjXgMAAkaNxhRmWG7ZMkSbyRNGufLUBTn2JC+smcMdWTCbWnEeMsFAwYM8DOVGwEzt7nYxokyThrctyVs/1MLK1eurP5XzMMPP+yNjslthjpy3amXWGlHjkj7kUce6b/LwPV//Md/+M8yyKAQ28who8lBhyKIC4bcrCtvcDEph9r8KSOHzaKV6ntHqxcMojGgQn5ddtllfgCTbcpg0aJF/jMGWdvTUQcgb9CmVlnVEEuei/yJ2W7ERMqaVYyNHoA0DMMwDMMwDMPY3lENDLFlGWfs/H72PX57NQZWPnzin6tP89ll7J/7zz/89tf+Mw2NmzTWflA5y6dt5y/4z7KUTRfuhd2Ds5eMjgcrQphRjfELY2R4hcYG/sfwxDY1zE5lRjWDJGyJIuS5Ydse/mflDauJMH7KTHyBWfQgBg+BQaYQbZwFwhcjVj0Q/0atoNGmvSy1pl0OtmblgxhvuQD/kmcuxIKVAFwYDzF2ljW4szKAOIcDW/vss4//JI/L5HNo1CTNyUFBzo0hrLAOpMGWQZAMMw2ZSR6eNaSpO1rK1h0N9dSvojysJe34lwUrGylXBjYPO+wwb1xn0DcJ4QppKx8xcBOvadOmpcpokRyWIU8Oy+RPGTlsFvXWdw2aetpq9SIkyx9JVyhj0i7PmjXLf8aAPKCecA5bGA+ZHPDGG2/4T4glqxpiybPGH227oSWGbDBYBcn2yTAMwzAMwzAMwyhPtz1PvOC6Xf70W67XF/ZzbX0HuC5t3V2/A45xG9eucuuWVYzB3Xr1df0P+5pr69PfdW3r8fnzL7k9Tp3sNq75w+fP+vnt2D79z6fdwLHneD/4vtMhX3F7nvHfXM9dh/rzepY8NtX7pXHD+T0DRo/3zyVe4r7HzoPcqncqW1ls+Dz8gaP/zO0w+CDXZ+got+PBx3s3bO+2ZsnmTnsWZdPVa7cvun77HeX6H3rK57871XXp1uaW/HKKzydtnGNCmvvtP9at+XCh++TVJ6t3Ozf77ruv+9KXvuSNHhg1ODyd/z/88MMt7q9evdrvUf+1r33NDwaw1RbPv/KVr/iBHWClCN8xOvHstNNO88aRzz77zBt3NG66d+/uw+Ag6/Xr1/tnEydOdJ9++qnr16+f23333f35KhhMMNIfeuihfoYyW6WwXQ7bOGFQAk2cBQw5nP2BAQ0DV61g1CLMJ554wh9KXxbicdJJJ3kj3uDBg93GjRt9Ook35cDZN5q0lyEv7RIfwscgumnTJm+45jsrozj0mzCTF3KE0Tt57gH588Mf/tB98Ytf3KoMNCAvu+yyiw8jDfz/xje+4eOIu7a2Nl/uxJW8EzDejR492sshbjGakafE+Sc/+Yk6n8mH0A1hL1u2zK+WQlaRgU8++cSNHTvWD5gdcMAB7XJIWp58cnM7hDtk9aCDDvJ5LXUEGVi8eLF3D7/85S/9J/7L7Pxf//rXfiChqO6QD/gZo76Xod76VZSHmnYjrI8Yr5FBKWP8YUUA+QxsGXjqqaf6lT577rmn++1vf7tFWYkcst0bZcCgBe6JB4NByM93vvMd/4zBhK5du/r4ykUeQ5EcasHPPDl8+eWX1flTJIdlaJX6HrZj4pY08530I/eaetrMelHU9ibTl1e/+I3IGO0Y7ogv79KQesuLdxbyRx4RFnnH/9SBa6+91rshLjFkNU02JK/Ce0XyrJENjT9Q1G6UIZZsEDfalQ0bNtQcF8MwDMMwDMMwDKNC195DRridR41zvXYf5m/0HTZ6i+/AtmxL//2nfgBl0Gl/6wYedZb7eP7/duv/uNwPgAwYfYZ3x3fg91zrV65wHz55l1+NI2jc9Bt+dPtziYd8J77C2t8vch/MvN372e/AY9vdaNGmS+BZ771G+LA2rF3l4y1nJWnjbLQGGCbYLofZxxzuLCtDOIhbYFsrDKTyjNUMuGfbH6HIDduxTJ8+3RuJZEURs5oxdjBz9swzz/Turr76aj8TFsMS/rDlzEsvveSfCZo4C2yDw+zeWGcU4FctYGwijsQXMApJvAVN2suQl3aJj4RPGch3jOK1EhquYiJ5Qr6BlHsyrszivvPOO/3/PMe4NmfOHJ+3giafp0yZ0u7muOOO84e6QyirrG5AvnGHvOMXF2dRhbDigJUlGEnDOpJF8owVbd3RUKbuaKi3fhXlYdm033HHHd4vqV/4kzwjhrLmOb8PVzuEEAZGbsqLgSVkiriAnIfC6geJr1yCRg41FMlhmfwpK4catnV9D9sxcSvf8QM09bSZ9aJM25vnD3FGxtasWeN/izwy6MNqnCxqLS8mdzz44IP+f8IiH5HnyZMn+3sQU1Y1FMmzRjZAWy807YaG2O/l5LajhmEYhmEYhmEYRnm69O3bd1P1fyOD4Zf/3A/2zPvO1oejb0vY2o4BrY9fmem3wTO2L2677TZvyMFos61gpQ+GL2CWNAc+17MNzvYGK8YwXmFcxWBpGK0Mcopxm3PRwq3COBAf4++2bGs6AlbfOxYxy4vBp8cff7x9tXBnIqvdaCashmRFKANsDBx11rIwDMMwDMMwDMOIieqMIcMwmguGD2bbMxizLWG2M7OKmVEOQ4YM8Z/GlpiR2Gh12K6JVSFsl7itjLvbC1bfOxYxyovVLmzZGJ5t1BlotXaDlVY2KGQYhmEYhmEYhhEHWzGkoFVXDPUbPtb1Hz3erX5nvlv67/dW7xodEYwvDAYBW6QwO5fzOtgyh+2ZjNaElRbMYGZ7IMNoNThjhVVAnA/CllsMNJ977rnVp5uxFUM6rL53LGKWF+9ozjMStue6om03DMMwDMMwDMMwjI6NrRjqwHC+EVvI2aBQxyfcU58zIFihw/YtNijU2rC1HrOXDaMVYStKBplZ7cBZKWbcrQ+r7x2LmOXFFqoXXXSR9297lwFrNwzDMAzDMAzDMDoHtmLIMAzDMAzDMAzDMAzDMAzDMAyjk2ArhjowB+69wX377LXuK2M+q94xDMMwDMMwDMMwDMMwDMMwDMPIxlYMdWAYEJr0zbVu5m+6u+/P6Fm9axiGsX3BWSEhS5Yscdddd131W2vBWSRjxoypfqvAllZsRWUYhmEYHQXeZ0OGDPH/t+o71zAMw9j+uOKKK9yiRYtsW32jbtBlhg8f7hYvXuzuv/9+t3Tp0uoTwzCEqCuG/mnyKvevU/9Y/ZaOxk0Igx8XjF9b/WYYhmF0Nvbff39/iHwRHJp+6aWXVr/VDv7ce++97umnn/bXbbfdVn1Sjh122MHHnTPEjO0X5EVkhSs5kNlIYsm80Tkx+THS4J3FO/C8885zxx9/fPWuYRiG0QjQG9EfjQpnn322P3e5b9++1TtGK8MgXj3y2wxdlLMzzzzzTHfPPfd4+TIMY0uirhhi0Gf4kI3u1EnZjbjGTciDt6x0vXtuclP/pad74vnu1bsVGDQ6YOhG9+SLbW7Bom7Vu52HelcM0fG7/PLLfUOJAZODhl944QV3xx13bDGSTuN52mmnub322qvdTThzUOsPDT7PZOY8L5DXX3/dXXjhhf67lqL4AC+oI444ot0g+8orr7j77rvPPffcc/67Fm3ahw0btkVYN9xwQ6nZCAceeKA78cQT/UoDwkrLl1hhgaYsYuShxDlPNpqVLpSOK6+80t9Pg7DOOussVZyhSDaywgvzOWbaNfVC40ZDM8MCypED32+55ZbqnXQee+wxX2Y333yzmzlzZvVuOY4++mh30003tcd59erVvixqWfEjMqCJe63EyGeNzGvkWdOOCYRJvMXt7NmzS+dRTBmrB9J9+umn+/9pM5cvX56Z7tjEkPlYkPcYkSmLU045pXq3gnQY+cSd1DMI6wdt+HHHHeflA3/mzZvnpkyZ0i6HGE8YbA2p5d20PUNdHTVqlHvkkUfcggULqnfTaSX5KcLauua1dVLP0t5dRWnPyj+BfC6jaxWhLYtm9Qs0SNrr1f20/hSlPZY/0CrvZS0mz81pVzVk5XVaHhBmWrva7PKKhbS5zRqIJ5+0ekIMpFy0/SHygwmBlFVIWX+MrWlEHtIeMZBXq/zG0EU16cLNxIkT/f/U/2bIvmF0FFr+jKHHf9PmXnmzm5v3+ZWEQaFxYz9zg3fbWL1jaEEhYsT8qKOO8oYXGtF3333XN+iXXHJJ1VWlAb344otdr169tnAjSqPWH2CUHiWkHoriA/JywjiHmzlz5vhwr7nmGh9fLZqwbr31Vp/2999/37tBMSesq6++uupCB0ZF8oc4ZxErLCgqi6w8nDx5ctVFMVrZaGa6gA4G4chFePDSSy9FqxchyfDYVkwok3biRrh0GpNo4lMmznk0M6yyoFiSh3Pnzq3eKc/48eP95/XXX+/ji3LZStvAIQfSjsXIZ63MC3nyrGnHgEGBO++8089Gp+NHuGU74pq0p9WVRkDHAjnhKkp7bGLIfCwOPvhgLx907iifNHADhx9+uP8MYVAI+QHKFLlALmknk4j88W7ab7/9/Pu9WeXd6vAO4f09dOjQ6p1sWkl+klhbV6HZbR3hYaCkbqUZV7Rpj6FradDEJ4ZOCzHkEGLpvRp/NGmP5U+s/NEQS+ZNnpvbrmrIa3tB0642q7w6KsiLVk9oNvIOYrDP6Bw0Sxdl0GnatGm+nzJhwoTqXcMwoOUHhn70cE/33Tt6uw+Xt3xUOxQoUA8++KC76qqr/Og6nT9m43BfDDeA0gDXXnttuxuULZQnFCutP7zkgU5HPRTFB5htjILHM9wQL+LIS+CEE07wbjRowrrxxht92i+77DLvhk/CRuEqAzN2mBXD77OIFZamLPbZZx8/eyrMQ2Z6k24Ucg1a2WhmuuCtt97y4cjFihCgDLRx1siGkAwvHGQok3YMqcSJTmMSTXzKxDmPZoZVlttvv93nIeVVK/379/dl0GqrD5BvZlI98MAD7Ub1GPmslXkhT5417Rjxwojfp08fnx7cE27ZwTdN2idNmuS3Q2Jv6UbK3bYkhszHgPcCefzUU0/5dwcGlyTyDsGgN3LkyHZDjcAqI9KBoYoyRS4w2DAbmDIMEfnDjXTyzjnnnOpTQ0uryE+ItXVb0uy2TuouhtM0NGmHGLqWBk18Yui0EEu3iaX3avzRpD2WP7HyR0MsmTd5bm67qiGv7SVemna1WeVlxAf5Q745C8boHDRTF2VwiPcbqwUNw9iMH23hzB+u6detdEeNXO/uuqpyDpB8hwP33tDuju3dbrxktd/KLI2/GLfOu8EtfqW5y3PD/xKWXCHfPnutv8dqIWA7taRb8ePav17jw+GSMLlID+w+YKN3I7/lf/F/ewclKmn8ZPZRqAwyExclMVxqKTN3pMOu8WePPfbwn0lDUFk08cFANH/+fP+/sHDhQv+59957+08NmrB4FqadNDPzitlbZcCfopdhmbAwrDD7Im3Wl6YsVqxY4T/DMgQUtWRZ54WlkY1YeViUrrfffnuLWWMCigEKgpRzrHoRQh5xJYmVdk18ysQ5r0xjh1UvxJUOcXglYUsCMSCQLtxwL6sDjZxnwbYbGCzxA7/omCbrSSzwl1UUhEfnFYMd8ossQ6x81sh8SJ48F7VjlAFtNMb8erau0qT91Vdf9fWJWaUYOSmrMkaTENLLWVMiY5QJs3bLopEf/EVeJSwJT4gl84RL+OIH/xN2mn9FSJ7PmjXLz8BNM65gmKGtZXCb2aBhW0yakAtm84YyhBEHODQ2C5GjQYMG+U8tmjItKi9NPmvcAM8lLK402ciLs5SdGPvEWCiXoJEfiJF2LfhrbV06zW7rqEekLQwvpCjtMXUtDZqyKKPT5hFLDvm9VvdD/qhfafqYxh9N2mP5Eyt/NMSSeeJq8lxfeZVJe548h2S1vUXtarPLqwhkkndjMr1Z94vep/XqkFo9QdCWVxHadyATh3j/s61fWj2o512qhXznCkm7l5fPQpFeF/6Oshb/5HtIM8qC/Jc4ERb6ZrIeEn/SIe6S8cE993GDH1wi11yy2lPchVcS8lyrZ5aRDeyEtCNp/hhGZ8UPDHFGzRvvdHUDd97kThqz3r23tKubNbfNf//Lr63zDgF3XGzrNnjXjX5AJm3Q57hD17s587u1+4E7GYgR8tws/n3X9rCIV5Lfvl15Ls+en9/W7p4rpP+OG91PH+/hzykaMWyDm/15ePz/5dGVAa8Lv77OjRmx3vvFb3t9/mz0QZVnnRGWZKMkCjSaKKC8BHgB0ojLioy8mW1Jf4YMGeI/610iqo0Ps6lCys7CgzJp5yXHS4vtGFAsOROhUWjCYpCE+LP6IYmmLPATBZql+qQdxQBD39133111sZm8sNJIyoZQbx4WpYvOALPCQsUBBZu4S0coi3rqBco3ijeXKEdJ6k27Jj5l4pxXprHDqhfpBHKlyZXAqgP2ImdrAowdGKZZmQDEj3hyUdZc8p1LlFjkRX5DeG+++abvwLAPf0wID4WajgFbipB306dPb59FKh3bRuZzVj3VyHMetM109nbcccf2zhKfZf3RpJ0ZaOQZeclgBYYBzrWhk0FZasFv0osRhfhS9mvWrPF5USbeGvnBOC4ddpFruYQYMg+ES/j4gV/Ud84sqAVWAOEPZfvGG2/4cpF6E0Jby6pe3El5AfIASWOOyLr2/aJFU6ba+l6Uz1DkhrAwcAJhESfklXeCUBRn8o57IhOEw3e5BI38xEx7HtbWFdPMtg4oU/SQWompa8WijE6bR2w51Oh+Gh07z58yaa/Xn0bW0yQxZT4Pk+fayEq7Rp7z2t6idrXVyovBJ8qK8gn56le/6j9/9atf+U+hSE8oei8X6ZBaPUEo28evF1n53eqrhTS6OuVVpNdxn7KgDrKV+Xvvvefd8T2pSzWrLCQdtKuEST2kbRCSfQcmk6T1HYgnbRJxpj1Brvlfdj6J1ZepBdoQ2GmnnfynYRjVgaHvz+jp3lpcOcNnxadd3N//sJf73r29HIMlg3evnN+zYFE3746L5383rbe/P2r4lgM+MPW+nv73XHf9vIe/JwMxQp6bMCyJV8gTz3ff4tlzr252zxWCm188XRksWrK0qx9UElgtJINCf3PrDv63bFu37PM86IzwAuNFlFScUBpRuHgBnnHGGdW72aT5w0uDmUzSECfhhcOLMOtCYRWK4sPLhZcGMwr4HZ0GGShauXJl1LCAjtQPfvAD//Jn9hrL1xuFNixmQrFEPmnEgaKyAJ4xGw9IOy/01157rf1eSF5YSbJkLEYeatKV5JhjjvGfbH+URa314pNPPvGyyHYFyCDGLiCN4QyVvLSHsopiBoRXq6xq63JRmcYMq16kE8hVJDdTp0717shLlEuUTUC+iScXZc0l37lkD24OBAbZdgPDpbQ3lGMsCA+lm84k5UA4lEmabDcin9NkXivPRZBXGLM5NJjVIcgxW4LgT9k81KYdAwFlzkGj5CnlLmWpAf8hPHfq3HPP9flAuWjRyA9Gf8Dggxu5wnBiyDzlS7iEL9vR8FkL4pfERWbhpuUxA/d0DHmfhJRZzZsEeYUlS5b4Tw2aMi1T37PyOSTPDfWB+o2hEzfEibqGG6lfRXFGzrkn5UDd4rtcgkZ+Yqc9C2vrdDSrrQPqZ2zq0bViUEanLSKWHCID9erzUOSPNu2x/Kk3f8r00SCGzJfF5DmfvLTnybOm7a2lXd3W5YWf+B0a1xkoQl6Tq5bC9ymDOOH7VPNeLtIhtXqCUNT+lIEt4tLCEMijI4880usR6ClZFPnTDDS6ukav476UBXWRcscd5ZrUpZpRFqF+SFxkAAY9DSgj5I34FfUdSNeMGTP8/ww4p038krCS75skWj1TKxsyAG4Yxma2Wo4TDpwwWHLqpL7+fwZRLhi/1v3T5FX+uvL8Nf7+nrtWBo5CGNgRGMRJQ+Om0RyyX2VQKzn4lDYYtb3DC+r888/3Skr4UoPevXv77Vxo0IsUpix/eIlwL4tw1kDaFb5MiuLDYak8I0wUXRRIUZbZUi5mWMCLjRcRL35+z2zoGC/tNMqEhbKJQpKkqCwAhZzzHpjVIuHRUWSWWprinRVWSJ6MxchDTbpCUG7oTPEbwk+jnnpBnqAsMasRRZzfy2y+Y4891n9CXtpDWUURApQxuVdWVsvU5bwyjR1WswjLGQVcQImkDLjIXy75zkX5gSjDoT+izMY8wBXjOZ0H6pzMgGV2Wlrdi53PWTKvlWcNpItDksl3OkDiT9r5WXlo0k49x+hBHmL0GjhwoK9LZWbW0gGk3MmDEJELLRr5efbZZ/0At5Q7+YPBolayZF62iUl2xpIDNhrk7D5mB2K0oxxJg3ScQ8hD6hTpCil6fyQhHC7eVXRcCa/MDFNNmZap71n5HJLnhk4ushoaQDF0gcxojCWHGmKnPQtr63Q0q62DsnWxiHp1rRiU1WnziCWH5IXEJan7JUEms8qlyB9t2mP5U2/+lOmjxZL5Mpg856NJe5Y8a9veMu1qK5SX6CaUFRAe8UrL7zCOSeP1ttAhIa/9iQmrhZiY8PDDD1fvtC6afNbodSFh20Y9EHkJaXRZEF90MNk6T94BTL6FmH2HMoQyX1bPTGPfffet/mcYhrDVwFAWf3/hGnfy2Mo2cwycaAdP5IyiPDRu0li1tvqPURcoKBzkuGzZMq9ohfDS42VAgywzOVlWCosWLfKfQpY/oZIqxhwuYNk2Sj3+o+BlXWL40MSHFybPeKFy8bKmg8Nv8SdmWCGEixv2xUV5K6ucl6HWsDRlAcwMwW8UECA8FBoUtlpm4uXJWEij0xXCTB7gTIw06q0XzAzDj5CssCAt7aGskv+AMlaLrJaV5yyaGVZnBVkIt0lhawG2WcLwQQdE5D12PufJfFl5zoMtakijUIs/mrTT9rPFiMyAZvbphAkT/IwzadtajRkzZvg4ElfKnVmlDHxQ7q3KYYcd5j95bzAZg4t3BcYYLVnb19BJhWRHUMJhWw4606yiQRY6MqSD+p688rZ9TYOV0R0Fa+uKaXZbR5yzZuPWQj26Vixi6bSN0G2IC/6U1XuTZPlTNu31+BMjf/it6Lhpl+i92+r9bvKcTb1p17a9ZdrVVigv4sr7HX0FZBu5vBVMtTJDqUO2op6ArSZt8ksrQN0K0eZzLL2uWTDYzKAzK/CxNyQHgLYXWGUIrFI0DKOCamCIc4TYUo6zetj6jS3XZjypW+Vz+rGVM4heXJA9kKRxk8Y7H1Siv2v/Tf6zLJxlBIMSq57671ibfx0NDC4Yz5ntwCwZFKJQ0QL2r012VNjnE0TJKvKHswcAf8SYwwX8VvzToIlPCP6z9zKf7FNchrJhCc3ahxfywkLZJd0hZcqCzkKInAGRRlpYwL0iGUujkekSxAD56KOP+k9BE2eNbEycOHGrToZ0UPIU8lrkRxOfsvKcVaaNCKujQIclmS7ZppJZro0AIwiGjosuusjPlsUAIjMDY5WpRuZrleck+MtgbRiPPH/qkUPaMGYP0wnD8IzRQ9P+JJGwiIsG3KahlR/iSFwpd+KNwQdDrTZ8DRKeGIGE5D74GmRwRiZjcLG9BmhnqiLnGKnYpzwsbxnU59yiEAmHDiwGrbKGBE2ZNrO+U+9YEYSxgLwIL5FZrRyyMhqSZVsGa+s6Z1sHGIQwgsVqb+rRtUKy8kdLDJ02lhymUVbvzSLNnzJpF2rxp2z+1ENMmS+DyfPW/sRKu6btxd8y7Wqs8qoXdCTaVXQi9Cy+MyBXhpg6ZBk9oV5Z1YCuRxiNGCyrhXAgiHilTZYoymfkqkivK0sjy4KBWeLPCjwG3hmIJ30hMfsO25IRI0b4PkcrDkIaxraiyxkn9tx0wNCNbp/BG9zwIRvd8/Pb/DlDT77Y1r7d24F7b3Dfu2y14yyex57t7vr0du7koyuDOb17bnKzX25zP3q4p99iDj9m/qYyaDT6oPVu4M6b3Ky5bX5ACTRu/vZh+F8AAOsMSURBVGLcOjewOjgj8RL3bHUnW8+xvd0dV6z2/8+Z382tXVs5G4gBpn47bHKTvrnW/46BrH+d+kf/P78P70t8SBuroBgUYos50iXb6LUqDNiFaSkLAyYoTDSMHOgWgsLCi4uXBC88XmDs5YsCglLCy4+XBmj8SQM/UHJYLqtFEx8UJpaTyzMIn2vRhEWHBGQ2My8aXqpl0yUKETCgIWECS/xRHsuEhX/MoiP/MZoVkSwLlg+TVu4xW4StBtj3F9jHO1Rm88LSyEYz0yWQ18w0rDXOGtmgw0FZpuUhs4z4bZm0owyy1QFbDyQVNU18NG6EvHyOHZYGfoehECU1SVh3JBzcgpSXyDOGZEHKJ7wHuIVk/gMdOmaESbpQjJGVtPICyYesuNcK6SUOscpUI/MaeQ7LIqsdE3/kWZo/Qr1yGAvqHjNK6ShiiJL6iuGMOIQQNjIl+YQbtsWg86GRH/KHPFm9uqLb8HuZZcogCMSSeXHDb1ixg19icEnWiyzIGwwrzJpMtkuUBflFHqXV4WT9SMoGaWdmNJ1rztKBtHTVgqZMNeVVJp/z3EheUAc58FfigyyIPGvlkPK75557/P/MKhdZeuaZZ7wcauQnVtrrhXgSB2vrmtPWgdTptLiAJu0C7urRtYS8/NHER2Q1rUzL6LSx5DCW3qvxR5P2WP40W1ZjoJEfweQ53Z9Yade0vWXa1VjlJflUrxwzQZWVSdStpM6keZ/G0iGBvMnTE4S88ooJK22YDMIAS73UW160h+iepFl0Y0A/RlZY5azJZ4kHMpam1/Gc8pN6J3pdst0RGl0W2M9YrY08PfTQQ36wWQZdKRtJu8hqmD9h30HSLbo95cD/uA/vkx5p6yQPkrqopl6UReIn/RPDMCp0ZVBo3NjP/OAIjBmx3n8fvNvmVTQMEP1sZg8/WMNAxNePX+cHg5Z92sUP6nz9hMog0YpPKytw+D0Xz//nL3q2D/iAxg2DRfJc4iXfia/w4fKu7q6f93DLPu7iTjh882/KcPPdvfxgGOHw214MdM1tqz7dvqGRB4wMNLDhxYsKaJSZ+cs5PdxHmUm+aDX+xEITH+AZ8eEZs09rUQw0YfEMRUDSS17wUuOcozIwQ0v8AF6U8l1mzJYJixc1iogoIWXBT9LKi56wePkysyxtu568sDSy0cx0CaLooHgk0cRZIxsoPaQjLQ+l41Im7SjqKP5J4yto4qOtO5CXz7HDqpew7qA8gnyP3f6wdQDpAvxnJhiKZdn6Xi8iP7HKVCPzGnnWtGPiD4T+YMwIO/RQrxzGgrpHOmkvwvo6bNiwqovN3HHHHd4dsihuZC9xjfzQuSRPJAzCk3wWYsk84RJXfsNvWSkgBigtx1b3/Q8NCQKdy7Q8ygLZ4LwZID6knfxJziCOgaZMm1nfkWeMEZQ1BgmJj9RN0Moh9WjatGneABXKkqCRH2vrOmdbB8iZtAvIpBhuBE3ahXp1LSEvfzTxQW7Js3p12lhyyO/DOpyn+9XrjybtsfxptqzGwOS5Oe2qkOePpu0t067GKi/ho48+qv5XGwwOkMekP60vV0QsHRLIqzw9Qcgrr1hgqCdfpFxjUWt5cVaXvAPZ3o5BEqAustUtaPKZ+pWn1+E/30UPEzfJdkdodFnQdjBgSf1jwIRBOlYOsnVjmHbkTfKH+NbSd4CwrWt0/11gMIqVieSjDIwahlGhS9++fTvHvmkl+PbZa/0g0fa+YsgwDKMjQEeVTgzKKaCEtqqhAaUTZRfocEpnh86sYbQ6MouWDu+2hDpv9cYwtg0YgTh0Wow14Yx0wzCMzoSsUMDIj7HfiAt6J4NcyRVftWLlZSQRmQAGhRjAS5vQZhidmcryHcMwDMNoUTBKyaBQRwLlk7jH6OgYRqPBGEznnK3btjXUHc4bCvfSNwyjOfDOYiAIwxoDtGxhaxiG0ZmxQYbGwEoYzrWJ3Vey8jIEVjihy7AiigFIGxQyjK2xFUMpdJQVQ5z99OXR67c4d8kwDMMwDKOIcH9v2R+dVW5sVcKWJdsS2Utd2NYrmAzDMAzD6Hxwzgnba8U4/8ZoPFZehmEY5enWo0eP1t34dxsx5uANbt+9Nrr/NbNH9U5r8tHHXd0Lr7W5t97rVr1jGIZhGIZRzEknneS3VmCVUM+ePd3bb7/tZ20+/PDDVRfbjpdfftmvUujWrZtbuHChe/bZZ6tPDMMwDMMwmsNuu+3m9RD0EqP1sfIyDMMoj60YMgzDMAzDMAzDMAzDMAzDMAzD6CTYGUMdGLaSY9u7r4z5rHrHMAzDMAzDMAzDMAzDMAzDMAwjG1sx1IFhQGjSN9e6mb/p7r4/o2f1rmEYxvYF+0WHLFmyxF13XWvugsrZKGPGjKl+q8CWWD/+8Y+r3wzDMAyj88B7cciQIf7/Vn13G4ZhNALav+HDh7vFixe7+++/3y1durT6xDAMwzBag6grhv5p8ir3r1P/WP2WjsZNCIMfF4xfW/1mGIZhdDb2339/f5BoEePGjXOXXnpp9Vvt4M+9997rnn76aX/ddttt1Sfl4CB/4i4H/BtGqxKr7hidE5MfIw3efbxLzzvvPHf88cdX7xqGYXQuDjnkEHfmmWe6e+65x5199tnVu4ZhGIbRGkRdMcSgz/AhG92pk/pW72yNxk3Ig7esdL17bnJT/6Wne+L57tW7FRg0OmDoRvfki21uwaJu1budh3pXDNFhu/zyy72yggFz1apV7oUXXnB33HHHFrNZUGBOO+00t9dee7W7CWf8af3BaMAzmTmPwfX11193F154of+upSg+cMUVV7gjjjii3SD7yiuvuPvuu88999xz/rsWbdqHDRu2RVg33HBDqRlBBx54oDvxxBP9SgPCSsuXWGGBpixi5KHEuRmyoQlLk8+gSXuRG4lPXnlp4qxFUy80bjQ0MyxAHh5//HF3yy23VO+k89hjj/l8vPnmm93MmTOrd8tx9NFHu5tuuqk9zqtXr/ZlUcuKH4ylV155pSrutRIjnzVyKGlJEtahMjIfox2LKWPbI5TZqFGj3COPPOIWLFhQvZtOjLoTC8oQIzJlesopp1TvVqAtkE/cSX2FsJ7xTjnuuOO8jOHPvHnz3JQpU9pljFWIDNqGpLXznZmOKj9FWJvZvDZT6lnaO7BIH8vKP4G0n3XWWaqy0BBTP9QQUw7rlQ2tPzH0XtDkYaw+Y7MweW5Ou6ohK6/T8oAwibfk0+zZs31b1Yjyws+JEyf6//lN0XvVMAzDMJpFtx49ekTrEYw7+jM3cKdN7n/N7FG9szUaNyH9+mxy69Z3cY/M7u5Wru5SvVvh1GPWu3FjP3P/uaibe+u9zjcwNGzwRnfUyA1u4bvd3AuvtVXv6kCRYdbK3nvv7ebOneteffVV161bN68c7rbbbu3GF5SYv/mbv3Hr1q1zzzzzTLubL37xi96N1h/4x3/8R/8pRoPzzz/fLVu2zP3yl7/03zUUxQdQck8++WS/ZPvFF1/0YeBm7Nix7t/+7d+80qZBExad3oMPPtgtXLjQvfzyy95vDCl0hMsYRy644AI3fvx493//7/91X/jCF1LzJVZYUFQWWXlIeA888IB3U0QzZUMbliafNfKjyZ+i8iqTP4D7Y4891nXv3t199NFH1bsVNLKqcaOhmWEJyAP5+Oyzz1bvpNO/f3/32Wef+a0atPU8CcaIwYMHu2uvvdb99Kc/9WFSfrWw7777ui996UuquGtBDvr06ePTFyOftXIoaaFjjcyTJq433nijPX80bVSsdkyTdgwjybrSmfjGN77h26n58+f7/M4jRt2JxSWXXOLb1kGDBrkPPvhgi7jTFgB1gLb2z/7sz9xBBx3k7+GOekYdZmYu6UA2Pv30U3fUUUf5QaSHHnrIu8UQtMsuu3iDNb+jDccfBpP+4z/+o1PLjdBR5SeJtZkVmt1mEh71c86cOe6///f/Xr27mSJ9LCv/SD/uSQN5WUaPyqMe/ZDy0OrGEEMOIZZsaPyJofeCNg9j9Bk1xJJ5k+fmtKsaNG0voBMwaEn/btOmTe63v/2te/fdd72bRpQXvyePTzjhBK9/PPnkk9UnhmEYhrFtafkVQ3l8++y1fmAobTVRZ6DeFUPsectslXBWkCiCzIIBtlBCQbzooovaZ7ag+KPk44bZMBp/UBqZeRPOGkRhQuEqM/tLEx9mrqJ4nXvuuf45iKHozjvvdDNmzKjezUcTFh2KnXfeeYu0s20Gs47KbJshHRP8zMqXWGFpyoJ04m84W5uZX4Rz1VVXqWeSNVM2NGFp8lkjP5r80ZSXJs5CWj4JGlnVuNHQzLAEyiot3Y2AeDLrLyz/Wskrs7LgF3KDgVtm5cfK51rraRKNzMdqxzRpl7KcNWuWe/TRR0vLXUdHjD4dYRWHICuAaGsxBCZnHdMWcCErlP2kSZPcmjVrvCyIbNKGr1y50l188cXtZS55MX36dD8DXWQllDmRcfwvO9N5e6Qjyk+ItZlb0uw2U3SiMLwQ0pWnj2XlH2VJmYq/ZfSoPIriA+QP+V6vbhxLDmPJhsYfTdpj+ZNW9lllUi+xZN7kuTntqgZN2ysDUTBt2rSt3nGNLC/qxMCBA7fId8MwDMPYlvgzhjjzh2v6dSvdUSPXu7uuqpwDJN/hwL03tLtje7cbL1ntBybS+Itx67wb3OJXmrs8N/wvYckVwoAQ9xgUAgZHkm7Fj2v/eo0Ph0vC5CI9sPuAjd6N/Jb/xf/tHYwjSaVv+fLlXlkS9ttvP69MiqIHHKQOhx9+uP/U+LPHHnv4T5ao14MmPij4zHANYZYOMKtHiyaspDJImnv16uVnSJYBf4oU5zJhodBiHEPBT6IpixUrVvjPsAyBmVLJss4Lq5myoQlLk88a+dHkj6a8NHHWoJFVjRshr0xjh1UvxJVOb3gloYNKR4wOHOnCDfcwQqdBOWbBdhl0+vADv+gkli0vLfjLoCTh0UGlM0o9efvtt/3zWPlcVg7Jc64kxKNI5jVuNGjSzuxN/OZ8CwwAlFVWmeeBgUVkizLHCJKWfu7xTNxSbhjXQzRukFORMa6kjKXJM9+RTcA/7mHUB2RH/OISiEt4P3wmaOoOcSOO4gf/SxzKImWHkY7t35h9noTtHZnVe/rpp3vDU/juIE204S+99NIWbT3boQEHQGchhiFWKpVBU6ZF7YYmnzVuoEh+IC/OMeUHYqRdC/5am5lOM9tMoB5RB8PwQrifp49RZhhlk7ohWzZR/8XfWHpUUXygjG6cRyw55Pda2UD+qF9pep3Gn1h6r8afWP0CDbFkvkh+TJ6LKZP2PHkOyWp7ed+gK6QNCkEjy4s+JmHX2rYahmEYRmz8wBArTt54p6sbuPMmd9KY9e69pV3drLlt/vtffm2ddwi445r3Zjc3eNeNfkAmbdDnuEPXuznzu7X7gTsZiBHy3Cz+fdf2sIhXkt++XXkuz56f39buniuk/44b3U8f7+HPKRoxbIOb/Xl4/P/l0ZUBrwu/vs6NGbHe+8Vve33+bPRBlWedEQ54R7kTUFxQHFFwMBagXL3//vv+GbODskj6M2TIEP/JUut60MZnn332qf5XIS+uWZRJO4ZDlMxbb73VK4ScZdAoNGHRqSL+bO+SRFMW+Iniy6xt0o4BCQPd3XffXXWxmbyw0miUbKSRDEtLkfyUyZ+yslFLnDWyWkae88o0dlj1Ip03rrx8Y1Yke4izfzhGCgzKrCgA4kc8uch/LvnORRkCBk75DeG9+eab3vDIVhQxITyMExg3WalG3rHSgdmHl112WXuHtJH5nCWHGIsxuHLRKUe2k2hkvmy9SKJJ++233+7zjLxkkIEOPatRwkEULSJj+EP9IP2EKfA/9zCQYNjGLStZyC/JI40b4oWBCniOO+JNPoUgz/yOFTW4YfYpK2zIVwwZ/FbKD3nnu1xCjLoDyD/1AD/wi3aDrVRqYeTIkd4fDFps00L5Sv0LwejEtm+4k3KHHXfc0X8mjTlSZ7TvKS3aMtW0G0X5DEVuNPJTFOeY8hMz7XlYm1lMs9tMypR41gplxkz90GhLHEiHGJ2zqEWP0kCea3W/PGLLoUY2NLp6nj9l0l6vP43sFySJKfN5mDzXRlbaNfKc1/bSz0N/QGeQiQt8iptGlpcM2O20007+0zAMwzC2NX5khW3I3lpcOaNnxadd3N//sJf73r29HIMlg3ff6O8vWNTNu+Pi+d9N6+3vjxq+5YAPTL2vp/89110/r5wlJAMxQp6bMCyJVwjbxoXPnnt1s3uuENz84unKYNGSpV39oJLAaiEZFPqbW3fwv/3uHb3dss/zoDOCwoNSl1R4UPZQlFCwzjjjjOrdbNL8YeYgM5CyZi+hRKKUZV0omkJRfFDGMCow45TfoeyLoZ/tZWKGBXSAfvCDH3hjDLPO3nrrreqT+GjDYgYT2wCkGayLygJ4xiw6IO0o9q+99lr7vZC8sJLUIhu1kiXPRRTJD2jzp6xsJOMcyiodGyC8WmVVW5eLyjRmWPUinTeuovydOnWqd0deYnzEcAWUH/HkIv+55DvX0KFDvTsO8gXOH8IfDI4iL5R1LAgP4ykddsqBcCiTtDrSiHxOqzuffPKJT+uDDz7o6wRGV0C2w1mPGpmP1WZq007HnjLnsF/ylHKXstQQyhj+iMGaMhKIA1x//fV+Bitu2Y6QvKLsQOOGs28oZwxVPMcdeU6ck7NLf/SjH/nn4gaDBekivfxW8pW2gu9yCTHqDnKC/CMbbFODm1q3+hG/JC4yCzetrDAYkl7a3ZAyq4KTIPewZMkS/6lBU6Zl2o2sfA7Jc6ORn6I4x5Sf2GnPwtpMHc1qM4H6GZtjjjnGfz711FP+M41adT8NWt1PQyw51MoG9SFPryvyR5v2GP7E6BeU6etBDJkvi8lzPnlpz5NnTdvLO4gJEbwzWWGMTHAWHW6Q4TRilZcMmhmGYRhGq7DVcpxw4ITBEjkLiEGUC8av9WcEcV15/hp/f89dKwNHIQzsCFln/2jcNJpD9qsMaiUHn9IGo7Z3UJSYbYwyLMYMoXfv3n4bFmaRFimmWf6ggHEvi3DmadoVzv4tis/VV1/tnxEmCiqKnyi5bAkWMyzAOMJ+zBhi+D2zmDWDJLVQJiyMammdqqKyABRp9j5mtp+ERweP2WVpCnNWWCG1ykYt5MlzEUXyA9r8KVNeaXEOZRVDGdDZkXtlZbVMXc4r09hhNQvKQ6ATK2CMpJy4yF8u+c6FwQCQCZ6F/ojRQwaPYoDRmw4tMiUzV9keKa3uxc7nrLqDPGDwZ3Yt+cEzmVV67LHH+k/QyHyZepGHJu100DFWkIcYq1hZQ10qMyMWP8h/Bou5JK4YrwTZSkUGMwSRHdC4wRhFeKEBC0MFJGeXhr+TssKw0Qiy6o5sE5M0/iUHbDRwIDMwAxijHVvFYRwk35KQh8gQAxshZQ2JhCMTABjwI7z777+/+rQYTZmWaTey8jkkz41GfjRxjkXstGdhbaaOZrWZULYuFkG8MFyTz6GshNSj+2koqxvnEUsOy8gGMplVLkX+xNJ7Nf7E6BeU6evFkvkymDzno0l7ljxr217SOnnyZN8HQJcQN+geSWKW17777lv9zzAMwzBag60GhrL4+wvXuJPHVraZY+BEO3giZxTloXGTxqq11X+MukCRueaaa/yB+yhIIRhJMH6hBMkMTJZvw6JFi/ynkOVPqFyKEYYLWG6NMo7/KGZZlxgsNPFBSeQZSi4Xyh4dE36LPzHDCiFc3LC1D52askp1GWoNS1MWwMxb/BbDEeFhYJIZ6WWpRzbKkifPGorkB8rmT1F5ZcU5lFX8B4xqtchqWXnOoplhdVaQl3B7k/fee89vj4TBAsOFyE/sfM6rO8y+5XkI58BkUSTzoHGThSbt1F22BpGZy8wanTBhgp8VLHVXA0YTjCesJKH+JQdBYoNhhXJPXmW31ZEVjh2Fww47zH/SvjIoz0WbijFGS9b2NRh1IDngIOGwfRD5zioaZKoj0xnlx9rMYprZZgJbiJVZ9VUEM/shKw/zyiIWsXTjRuhI9chGSJY/sfTeIn/CeNfTLyBvRVdOu0R/jinzZTB5zqbetGvbXtoo0izktc8xy0sm8LCyyTAMwzBaAdXAEOcIsaUcZ/Ww9Rtbrs14UrfK5/RjK2cQvbggeyBJ4yaNdz6oRH/X/pv8Z1k4ywgGJVY99d+xNv86GhhKULaZXcnsFhSZUEEC9oNPdjDYBx5EOSryhzMDAH/ECMMF/Fb806CJTwj+s2cyn+wvXIayYQmxzzDIIy8slFTSHVKmLFDyQ+TshjTSwgLuxZaNWsOqBfzMkp8y+SMkyytWnDWyWlaes/K5EWF1FJj5nkyXbDPI7NRGgPECA8VFF13kZ7liuJCZ9rHKVCOHEydO9PdDpKOcZ0DWtIdl2zHQpJ06yqxfDMUYjDFWlK1fGBgwbjKTFAMSBiX8SSLxIb5ZaNyQ/6zowIhP2YdXMu7ETWD7kiSywlEMNI1A5D4ZBucUlEUGZ2RQnouzDyAtfWmQTxipOOMolBsxJnJuUYiEw8AfBq2yhkBNmTaz3dDIjybOEEN+rM3sfG2mwEA6BuYiOdMig72PPvqo/xQ0ZRGSlT9aYujGseQwjVpkI400f2LovZDnT8w+o4aYMl8Gk+et/YmVdk3bi78MNIa/z2ufY5UXjBgxwuspjRx4NAzDMIwydDnjxJ6bDhi60e0zeIMbPmSje35+mz9n6MkX29q3eztw7w3ue5etdpzF89iz3V2f3s6dfHRlMKd3z01u9stt7kcP9/RbzOHHzN9UBo1GH7TeDdx5k5s1t80PKIHGzV+MW+cGVgdnJF7inq3uZOs5tre744rV/v8587u5tWsrZwMxwNRvh01u0jfX+t8xkPWvU//o/+f34X2JD2ljFRSDQmwxR7pkG71WhQG7MC1lweCNooNywoG/IRhn6FxjeKKDjZLDHrx06FH+mFGEkQw0/qSBHxgNypxHoIkPiinLwOUZhM+1aMKiIwEyCxllDyNi2XRhtBLllA6QhAkszWcWVpmw8I/Zb+Q/xq4ikmXBdkmklXvMjmeLgCOPPNI/Y/9t4iPkhRVbNuoNS5PPGvnR5I+mvMrkDx0gtihgi4akYVojqxo3Ql4+xw5LA7/DwIdRPklYphIObkHyUMoLA7BARw4ZCO8BbiGt/mKcZrspSRcGU8ovTVZB8iEr7rVCeolDrDLVyKHkV5rMM7uWOGhkPlY7FlvGsqA9YNUB8XvooYe80USMBxicyS9WKlA/mS2KIRQjk6QPoxjxBI0bSRdlwUHY4ob8lnSJPGOE+N3vfufvURb4izFc2mfk5J577vH/Myt49eqKvvTMM894g0SsuiNu+A0rdvBLDC7J+pUFeYNhhdnayfaNMiW/yJe0tiBZzyR+IhvkLzOjyS/O0oG0dNWCpkw17UaZfM5zo5EfTZwhhvzESnu9EE/iYG1m49tMQep0WlwglJ+wvoLoYwLuWNVRa1kIefmjiY/IalqZltGNY8lhLNnQ+KNJeyx/0iBv0tLVKmjkRzB5TvcnVto1ba+4kTinuRFilRdIXolOYxiGYRitQFcGhcaN/cwPjsCYEev998G7bV5FwwDRz2b28IM1DER8/fh1fjBo2add/KDO10+oDBKt+LSyAoffc/H8f/6iZ/uAD2jcMFgkzyVe8p34Ch8u7+ru+nkPt+zjLu6Ewzf/pgw3393LD4YRDr/txUDX3Lbq0+0bjFqAcQDlKLxQcgCFhhm7nLPCfRT8pKKn8ScWmvgAz4gPzzCU1dLp1YTFM2Y5S3rJCwwjnFNTBmZWiR+AEirfZaZrmbAwzqGkSuesLPhJWjHuERbGGWaEpW2zkxdWbNmoNyxNPgPf8+RHkz+a8iqTPxji6BCnrVbQyKq27kBePscOq17CMqUjCvI9dvszY8YMny7Af2bm07krW9/rRTqsscpUI4cY3JHfNJmX+BCPIpnXuBHqlcMYUJ8ZrCDddOKZUcwMWLYgof1guyqgfpIXGALC9A0bNsw/B40b0oVxjbxlMEPcSBmFEA9W5lAWzHAlP8L2mXKZNm2a39oEN+KXEKvuUHakid/wW1YKiAFKy7HVff/JoyQYd8I8KgJZ5bwZID7kNfU0OYM4BpoybWa7oZEfTZwhhvxYm9n52kwBOZN2AZkUI7Wg1cdABuPxL4mmLIS8/NHEhzwnz+rVjWPJYSzZ0PijSXssfzoiJs/NaVeFPH80ba+4gdANA2LiRohVXgxmsZqJeMukC8MwDMNoBbr07du3c+ybVoJvn73WDxJt7yuGDMMwOgJ0MOmoYYwHDM+NMmbVCx0/OuRAR5EOMp1POqGGEYO0FRathsyi3dZxpO2w+mcY2waM0TfccEP7wGErr/gwDMNoBLI6CRgUYoAqbRKMYRiGYWwrKst3DMMwDKNFwZgkg0IdCTqAxD05+9AwtmcwBrMyhK3btjXUQc4bCs8+MAyjOfDuYyCIFUMM0LIVrmEYRmeClUa0f6w+Z5s6GxQyDMMwWg1bMZRCR1kxxNlPXx69fotzlwzDMAzD2H5ptRVDrJJjMAg4p4athFgtx9YybCW2LZFzCIRWXmVlGIZhGIZhGIZhGM3EVgx1YDj7iS3kbFDIMAzDMIxtQXh2AefUsE8/KwS29aAQcCYb58QxW5fLMAzDMAzDMAzDMIwKtmLIMAzDMAzDMAzDMAzDMAzDMAyjk2ArhjowbCXHtndfGfNZ9Y5hGIZhGIZhGIZhGIZhGIZhGEY2tmKoA8OA0KRvrnUzf9PdbylnGIaxPcKZKiFLlixx1113XfVba8GZJmPGjKl+q8CB22xpZRiGsb1C2zdkyBD/f6u2z4ZhGI2A9m/48OFu8eLF7v7773dLly6tPjEMwzAMw6idK664wi1atKih27RHXTH0T5NXuX+d+sfqt3Q0bkIY/Lhg/NrqN8MwDKOzwUH7AwYMqH7LZty4ce7SSy+tfqsd/Ln33nvd008/7a/bbrut+qQcHMBP3OVgfsPoyMSqX8b2Be0b7eV5553njj/++OpdwzCMzsUhhxzizjzzTHfPPfe4s88+u3rXaDQYzNDVa6Wz6TZMtqsnvxpJRy6LeuUwNq0Wn1bD8qdj08rtWGzQJzjHt2/fvtU7jSHqiiEGfYYP2ehOnZQdaY2bkAdvWel699zkpv5LT/fE892rdyswaHTA0I3uyRfb3IJF3ap3Ow/1rhiiM3/55Zd7RRYD5qpVq9wLL7zg7rjjji1mOiGMp512mttrr73a3YSzQbX+8KLnmcycpzK//vrr7sILL/TftRTFB2jsjzjiiHaD7CuvvOLuu+8+99xzz/nvWrRp58DtMKwbbrih1GyxAw880J144ol+pQFhpeVLrLBAUxYx8lDi3AzZ0ISlcaMpCyiKM8rtlVde6f8PCd1IfGKUqaZeaNxoaGZYQN5ycPwtt9xSvZPOY4895suVg+9nzpxZvVuOo48+2t10003tcV69erUvi1pW/IgMaOJeKzHyWVMvYslzs2XeyIdyHTVqlHvkkUfcggULqnfTiVG/moXVi+bVCzpnDICntXNF79Os/BNI+1lnnaUqCw3a93uzdEgNsWRD609R2mP5A7H6Bc3C5Lk57aqGrLxOywPCJN6ST7Nnz/ZtVSPKCz8nTpzo/+c3Re/VzobkeUy9GPnGaFbrxIQYuk0j0lUrxCVPr5N3drMmchTFJ6QZemaZ+JShXjmMTavFp1Y6S3l1BBpVFrXQyu1YEfhV5n1BWpkgjT4SUtafIlr+jKHHf9PmXnmzm5v3+ZWEQaFxYz9zg3fbWL1jaEHJZUbTUUcd5ebNm+cF6t133/WV65JLLqm6qgjcxRdf7Hr16rWFG+kIaP0BZlFRoeqhKD4gDf3y5cu9mzlz5vhwr7nmGh9fLZqwbr31Vp/2999/37uhs0VYV199ddWFjtNPP93nD3HOIlZYUFQWWXk4efLkqotimikbmrC08dGUBWjjTCeVsORiWzGhTJkSf2QSQ0ASjaxq3GhoZlhloUNBHs6dO7d6pzzjx4/3n9dff72PLy/aWgaFGgVywAUx8llbL4R65TlWO6ZJe1pdMbaEvKetHzp0aPVONjHqV6OwelGh2fWC8OiYoSOkdUq079Nk/pF+eOmll0qXRR6a+MTQfyCGHEIs2dD4o0l7LH+gXt1PSyyZN3lubruqIa/tBSb73HnnnX5FI4YVwk0O5sQsL4zZ06ZN88btCRMmVO8arUwr6za1QP3W6nXNoEx8mlEWrZY/Rj5WXq1DZy6LbZV26WcxoaXRtPzA0I8e7um+e0dv9+Hylo9qhwKl+MEHH3RXXXWVH2mkQ88MK+4ffPDBVVfOVwC49tpr292gQKMQoyxr/UGogY5kPRTFB4477jivtPMMN8SLOKKkn3DCCd6NBk1YN954o0/7ZZdd5t3wSdg0HmVg9JlRYH6fRaywNGWxzz77+BlxYR4yk5N008nS0EzZ0ISljY+mLMrE+a233vJhyRUOMpQp08MPP9zHG0NAEo2satxoaGZYZbn99tt9HlKmtdK/f39fBmVn0jYaZI4ZdA888ICXBYiRz9p6IdQrz7HaMU3aJ02a5Le4Yu//RspdZyFG/YqN1YstaXa9wFgKGE7T0LxPIZl/rNQEfl+2LPLQxCeG/gOx3oOxZEPjjybtsfyJoftpiSXzJs/NbVc15LW9xItJgX369PHvCfKKcJOTfWKXF4ND1AlWGBmtTyvqNp0VKwvDMIzNoGOhw3F2YaPxoy2c+cM1/bqV7qiR691dV1XOAZLvcODeG9rdsb3bjZes9luZpfEX49Z5N7jFrzR3eW74X8KSK+TbZ6/191gtBGynlnQrflz712t8OFwSJhfpgd0HbPRu5Lf8L/5v76AYJ42fzCgLFfz99tvPK/7hkjmZjSVGGI0/e+yxh/+UWVi1ookPA0Dz58/3/wsLFy70n3vvvbf/1KAJi2dh2kkzs+mYkVcG/ClSgsqERYebWTdpM/k0ZbFixQr/GZYh0DAlyzovrGbKhiYsjRtNWZSNM3kkRpCQWPKjkVWNGyGvTGOHVS/EFSNHeCVhCa4YhUgXbriXZRRBzrNgKxWM0PiBXxgbkvUkFvjLVjuEh0ECIywy9/bbb/vnsfJZUy9C6pFnjRsNmrS/+uqr3m9mCmO4pqzKGMJCSC9nTYmMUSbMxA4pkg2NHGpllecSFleaHObFmU/uibFPjIVyCZr6BTHSrgV/rV6k0+x6MWjQIP++DMML4X7e+5QyC2foCxhUMayKv2XLIoui+EAZ/SePWHLI77WygfxRv9Le3Rp/NGmP5U8s3U9DLJkvkh+T52LKpD1PnkOy2l7eN/QJWcGTti1VI8uLfihhp8mZNl1Z8O7kCkm7x3ue9274/ua9GVKkS4S/Iy3in3wvS972YKzsk/DIH/SXZLkSN+Io7pJ5iHvu4wY/uETv4JLVg+IuvJKQn1q9pd5tzzRpTyvj8J5WrxOK0lUkG/wmL39i65m4y9PDi/KwTP4Upb1IDrVoy71IDmPFJ+kP/0u+CfIsr02Ika6OWl5QJKugcVOULuA3UgahXyEaN3mUKYt67SSUP79NllHW/bx6AZr45OVPmbRr0b4vkDf6uGxdm6br1fveSeIHhjij5o13urqBO29yJ41Z795b2tXNmtvmv//l19Z5h4A7LrZ1G7zrRj8gkzboc9yh692c+d3a/cCdDMQIeW4W/75re1jEK8lv3648l2fPz29rd88V0n/Hje6nj/fw5xSNGLbBzf48PP7/8ujKgNeFX1/nxoxY7/3it70+fzb6oMqzzgjL7FH8BZRaOhVUICoGjZjM7subrZj0Z8iQIf6z3qXB2vgwQy6k7MxKKJN2Ki4NE1ts0FmYMmVK9Ul8NGHR4Sb+rH5IoikL/KRTxPYLpJ0XFzPj7r777qqLzeSFlUajZCONZFhpaNwkKRNnXiS8RLh4IVF2SeqVH42slpHnvDKNHVa9SMeeK68c2Vee/eVZiosBi2W5bIsCxI94ciEPXPKdi/IBlAv5DeG9+eab/oXN2QoxITwUF5QStokh76ZPn94+M1iMFY3M56x6EUuemyHzzDwkz8hLtoDB2MP5USh/lKUW/Ca9GMZQAin7NWvW+LyQ9GtlI08OhSI3hIWBEwiLOJE28lIoijOGMO5JGRMO3+USNPUrZtrzsHpRTDPrBVCmxLNWKDNm4IedG+JAOsTonEUt724N5LlW/8kjthxqZEOjj+X5Uybt9frTSN0vSUyZz8PkuTay0q6R57y2l74gxpQdd9yx3TDEp7hpZHmJEWennXbynyFl+021wOQJ8gbkHS6XQFqLdAnuk07Kna2W33vvPe+O72Xe31okjtRT8olyRdYE9Ar0C+KEOyYncH5WEvIWGSefkU/0Dv6XXRdi9B1iU5T2IrR6nVCvngl5+RNTzyQfyI88PRzEn7Q81MZHk3atHGqQ8PPKvUgOY8Un6Q/1KOkP93le1CbUm66OWl4aWdW40aRL085r3BRRpiyk/Lhfi52ESRjoLOgpIV/96lf9569+9Sv/KRS1Y0XxKcqfsu1qTM455xz/2YzVQtDGn+/P6OlXyQwfstGt+LSL/w577rrK34MFi7r5S2ClzY+vXeVGDd/gnnh+y8GYqff1bHfLwBGDPgzEhL/PcyMXSLxCCO+Jz/U1efbcq922ioPw1uJu7hdPd3f/75+tdUuWdvWDSuPGVp6RBhkU+ptbd6jc/Jx/mrzKD1Z1Nqg8NOpJIacjQCNFpUHJfuihh6pP0knzhwaY2WlZM9ukgcwCv1DeoSg+VFwaBkaN2R6Al5oo3ytXrowaFtA5/sEPfuD/J33J1Uox0YbF7DY6PLJSKqSoLIBnzLBkWz5pLHkhcS9JXlhJapGNWsmS5xCNmzQ0cf7kk0+8LJJn5A3KA8ZMXvLkl8w+zCvTNFmlPKRMysqqti4XlWnMsOqFeHIBxgrqfhZTp05td4uBCOUA6DRKngrhd5QCfschz8BWKuIP7QxhUo5yr17Yv5a4iTEnb1ZvI/I5rV7EkGchVpupTTtGHy7C/e53v+s7IpTljBkzqi7yEVng3KmwLKifYlAqIxtZchiS54ZDtMk3DJ0C+UBZMFOKOGrizKfUGdp3uR9CHCQeWfUrdtqzsHqho1n1AjC0xeaYY47xn0899ZT/TKPWd7cG8l6r/xQRSw61slH07i7yR5v2GP7E0P3K6PMQQ+bLYvKcT17a8+RZ0/byDuJ9wTuT84J69+7tjjzySO+G5/IuColVXjJolkaZflOtYHCEvHelRpeg/si7n/KX+iTv+Fpga5w0yJOwTMhjBvJ471Nv+U6YlDvb+Qm4SUL/n3qNUZCyQI8X+YcwrFr7Dkmy0qWhKO0apH0r0uuEMF0MGIcDvBrZELLyRxufMO1ZZSFll6fThv5AMg+18SlKO/WW32vksIiiOIdk5XOZepGH1h9NmxAjXR21vDSyqnGjqYOadl7jpgjixFVUFmX6g3kwMYP3eZgfDBTxPk+mIa8d08SnKH+0aS9L0fsC2UJfYSAqL9/qee8k2Wo5DgMnAoMlp07q6/9nEOWC8Wv9oAnXleev8ff33HXLQRsIB4CyBmw0bhrNIftVVigxeBSS/N4ZoIE5//zzfYVDYQ1BkWafZZSqohlUWf5QkbiXRThbJO0ibKEoPhyAyzPCpOFlBF46QLwcYoYFVFYqJQ03v6fzVWZkvAxlwqJx44WSpKgsgBfzKaec4mclSHhsw8HMQxrSJFlhhdQqG7WQJ8+Cxk0WmjiTJyggzFTlBUIYMkPz2GOP9Z+QV6ahrPJiABQbuVdWVsvU5bwyjR1WswhfrCizAkotZcBF/nLJdy5RACh3noX+0PmEmIcRMoOaPe2pczKrmRktaXUvdj5n1YsY8iyUacfy0KQdxQpFmjzEkDlw4EBfl8rMlkZppNzJg5BQMSwjG1lyGJLnBmMm6UI5lYuOAsjsZE2cYxE77VlYvdDRrHoBRe/9shAvOnXkcygrIfW8uzWU1X/yiCWHZWQj791d5I827TH8iaH7ldHnY8l8GUye89GkPUuetW0vaZ08ebLX89iCRtykndcZs7z23Xff6n/p5NXTGDz77LN+4FXelaSdAa0QjS4REtYn8h55iglx4Z2O4Y5L2hQGkUG2LBT9Qnjttdeq/zWGUBbK6i1aitLeCMJ0JQcyy8hGM/JHo9PGysOitMeUwzJxzsrnWPGpxZ+sNiFGurS0WnlpZFXjRlMHNe28xk0sYtlJZIWMyBPvXfIiTe/Ia8c08Wlm/pSB1UJMvnv44YerdxrP1vu0ZfD3F65xJ4+tbDPHwIl28ETOKMpD4yaNVWur/xh1QWXjcM5ly5Z55TmEikJjR4ViqxaUYGZlwaJFi/ynkOVP2PFgtFUuYCk+HTX8R2nPuqSh1MQHRZtnNCZcVHA6rfwWf2KGFUK4uGEfSBqish2uMtQalqYsgJkP+C0vLMLjhUQDJaPvZahHNsqSJ8+Cxk0W2jgzy4FwQmbNmlX9b2vSyjSUVfIfeKHVIqtl5TmLZobVWUEWwq1vWKbPzBmMWSgtIoOx8zmvXsSQ5yS1tmOgSTttPzO5UKQxDrHt2IQJE/wM86Qy3tGgM4ZsJK+y2zKxirajYPWimGbXC7YQo/MaC2ZIQlYe5pVFLGLpP414D9YjGyFZ/pRNe63+hPHO06OKIG9FH0q7REfaVu8Ck+ds6k27tu2ljSLNQl77HLO8+vTp4z9Z2dQMKM+QGTNmeBlH1nlXMtua1TO8K0Ni6RIxYPCSQcwlS5b4vk7SkLs9U2vak+UOsfS6jqZnavNQE59m1YvtVeZjpqszl1dRujTtvPZdoKFZdZl3Nmln6zyQbeTyVvLWijZ/mpV2Adt12uBhI1ENDLHV2+DdK2f1fO/eXn6ruRlP6lb5nH5s5QyiFxdkDyRp3KTxzgeV6O/av7Zt3zjLCAYlVj3137FzbCPHyCsdMUZImfmEkhsqz8BejMnOJ3s5gijORf6MHDnSf+IPK3jkAn4r/mnQxCcE/1lWyCd7T5ehbFhCI/eMTpIXFh0Y0h1SpizoAIawR3cWaWEB92LLRq1hgcZNEdo4T5w40fsfIp3OvJdLLfKjkdWy8pyVz40Iq6PACzqZLrZTAWYuNwIMWxivLrroIj8DGqOWzHKJVaaaetFIeS7bjoEm7bRhzAhHiWYwAUNW2foOEhZxyaKZskEZMduMjgHyEV6SPk2cQbayEQNfLVi96Jz1AugcY5gqkjMtsgXEo48+6j8FTVmEZOWPlhj6Tyw5TKMW2UgjzZ8yaRfK+hOzX6AhpsyXweR5a39ipV3T9uIvA43h7/Pa51jlBSNGjPCDaVlGnXrLNBwQwJ+0AXriiKzzrkTuGRDEHWEDaSnSJZoFA33EjRVdDOQysEvcQ0SfSOorGPI6Mpq0C5pyj6HXxZSNGPEp0mnL5GFRfIrSHksOy8Q5j1jxabV0CR2tvIpkFTRutHWQ/4lHVjsPGjcaisoiZn+QgSHaO1bvUFZ8Z2JKGbTx0eRPjHZMC5OjaN8bMRCWR5czTuy56YChG90+gzf483qen9/mzxl68sW29u3eDtx7g/veZasdZ/E89mx316e3cycfXRnM6d1zk5v9cpv70cM9/RZz+DHzN5VBo9EHrfdn9cya2+YHlEDj5i/GrXMDq4MzEi9xz1Z3svUc29vdccVq//+c+d3c2rVd/P8MMPXbYZM/t4jfMZD1r1P/6P/n9+F9iQ9pYxUUg0JsMUe6ZBu9VkXOZpK0lEX2YURx5dCuECofDQ+NIJWECsP+zFQmKhgVhkYRNP6kgR9UWJaeatHEh8rPFgHyDMLnWjRh0ckEWfpKR4CGpGy6pAEAOscSJrBtAw1hmbDwj5mR5D8z+4pIlgXLY0kr95gNwfYR7HMJl19++RYNc15YsWWj3rA0bjRlkUYyznQi+X1aHjIzAX/LlCkvJ7avYBltUhHRyKrGjZCXz7HD0sDvMP6ihCUJy0vCwS1ImYo8h9teSPmE9wC3kMx/QDlhFomkC+UAeUorL5B8yIp7rZBe4hCrTDX1IpY8x2rHYstYHtQ9ZgmjoGJclLhjDCUOoJENjRxq3EjaKS8OP5X4UCaSdk2cAVm65557/P/MKl+9uqJTPfPMM96gpalfsdJeL1YvmlsvADnDWJoWFwjlh3ySeEHyfYo7VnXUWhZCXv5o4iOymlamZfSfWHIYSzY0/mjSHsufNMibtHS1Chr5EUye0/2JlXZN2ytuJM5pboRY5QWSV7x7+UySly4N1EFWgvF7ts6hLIBBMOLHylrSTnrlnc67X2ZfM+MdJJ6kK02X4DnplrIWXSKvL1Qr9N1Z/Ut5cnYVg5cyiMfED0mXyHOYdhn8Q5eQNInejXzyP+7D+2HdkfQldRsJq5F6C2jTril3IF15ep0mXUWyAdr8KYqPpiyKdFptHkJRfMqkPUsONZSV+bx8jhEfKPJH0ybETBd0tPLS9L80bjTpIr/4ntfOa9xoKSqLsnaSIpjUzwpddExW9IT2L438aOKjzZ+itMeE1UrIFINUzaQrg0Ljxn7mB0dgzIj1/vvg3TavomGA6Gcze/jBGgYivn78Oj8YtOzTLn5Q5+snVAaJVnxaWYHD77l4/j9/0bN9wAc0bhgskucSL/lOfIUPl3d1d/28h1v2cRd3wuGbf1OGm+/u5QfDCIff9mKga25b9en2DQIHNEpUovCi0gAvYw7j4pwe7lMxk50AjT+x0MQHeEZ8eMaM4uRzDZqweEbjIeklL1BmOOeoDMy6Ez+Axke+yyzoMmHx0uNFIi+RsuAnaeWlSVg0sMxu4JC8ZGcgL6zYslFvWBo3mrLQQMeD8knLQ+mMlilTXjq8xJKDQqCRVW3dgbx8jh1WvYTlhYIA8j12+8NyY9IF+M9MHhS6svW9XkR+YpWppl7EkmeNG6FeOYwFdY900qEI4z5s2LCqi+bKBmnHQED+YySQ+Eg5gibOQNlNmzbNK96UqbgTNPXL6kXnrBeAnCFj5AcyyfsypMz7VDrY+JdEUxZCXv5o4kOek2f16j+x5DCWbGj80aQ9lj8dEZPn5rSrQp4/mrZX3EDohgExcSPEKi+M3KxmIt5iREqSly4NnA8l7S7bzWCkBMqf7VUB4xbplXhSZyV/hCJdAv/5Lu9+cVOmL6QFWcTwR3liDMUgxko0tgIM04U8S9qJC6tWZTC0DBrdpllo064pdyjS6zQUyUYZiuKjKYsinVabh1AUH03aY8hhmTgXEateFPkj9/PahJjpgo5WXpr+l8aNJl2adl7jRktRWcyI3B9kQAxdg/dlmv2rCE18tPkTo13VwIAgaRbdpZl06du3b+fYN60E3z57rR8k2t5XDBmGYXQEMD7wQkb5AhS6Rhk66wWjAJ0cwIggL3cMFIZhGNsbdIg5gFcMBbXODDQMw+ioyExlwIiFUQnjn2EYRkdGVkxiDDcMo7FQ3xjASq5qbgaV5TuGYRiG0aJgaJRBoY4ExgHi3uwXu2EYRrOgfWMgiJmNDIKz3alhGEZngpnftH/MKMegY4NChmF0dJj4g5Ga824Mw2g8rCjmHKttYTuyFUMpdJQVQ5z99OXR67c4d8kwDMMwDMMwDMMwDMMwDKOI8LwnOWuF3S/YjottuQzD2H6xgaEUOsrAkGEYhmEYhmEYhmEYhmEYRi2EW2KyYoHVC6yE5LwbwzC2b2xgyDAMwzAMwzAMwzAMwzAMwzAMo5NgZwx1YPoNH+uGfOsWt+ufnlu9YxiGYRiGYRiGYRiGYRiGYRiGkY2tGOrAMCA06LS/dR+/MtO987MrqncNwzAMwxDuuuuu6n8VlixZ4q677rrqt2LYc3vMmDHVbxU4YP/HP/5x9ZthGIZhGIZhGIZhGEbHIuqKoeGX/9wd8o+vVL+lo3ETwuDH4LP0BpxWoCPGedy4ce7SSy+tfqsd/Ln33nvd008/7a/bbrut+qTjgTGRNOShcRMSK5+3d9jjtky+bs+YHNaP5WHnZv/993cDBgyofqsPDmHFPzmc1TAMwzAMwzAMwzAMoyPS8lvJfWHcpW7A6DNSt0vjHlupsaVaK5EX51Zl4sSJ7swzz/TGzlo5+uij3ZVXXukGDhzoDawcVvfKK/pBwM5AXj5zjwGRAw88sHpnS8hTLpnpTn7LPX4nYKx+4IEH/P3HHnvM3XzzzaWNmGIkDy8G+QjT0JHMv1bKw44ih+JveFkebpmHhMF9nosfVle35qWXXnIXXnihv5Krhc4+++z2CQ3kY/I5K4Pktz/72c+qdw3DMAzDMAzDMAzDMDouLT8wtOL/PO5Wvzvfffr6r6t3NtN7yAi386hxrtfuw6p3WoO8OLcqGMMYxJk7d271TnnGjx/vP6+//npvWLvllltsq50Eefk8atQod/LJJ7uhQ4dW76Rz8MEH+8/DDz/cf4ZgSMZYDQzMzZs3zx111FHu1ltv9ffKgh9cc+bMcfvtt5+75pprMo3dxtYsXbq0PQ8xOrdKHnYkObQ8zM5D8mDKlCn+/ptvvundUVcJ/6tf/WrVlZEHg3gXX3yx69Wrl8+/d9991x1//PFbDQ4ZhmEYhmEYhmEYhmFsT7T8wNDiB65zb37/W27t7xdV77Q+HTHOt99+u7vsssu8EbZW+vfv741qzz33XPWOkaTefMYwzooBDMIjR47cakXWKaec4v3G0MnAHCu4MHbutdde/pyMsuCH+DNt2jS/jdI555xTfWoUsXz58vY8xND84IMP+jw88cQTqy62DR1JDi0Ps/Nw0qRJPi+mT5/u4yLuLrroIhvYUMIAHlx77bU+/1gV9Prrr/vBobIr3AzDMAzDMAzDMAzDMDoKfmCIM3+4Drp2lut/+GnuwKse3+I7sF2buBv5D8+7/b79s8yt0gad9nfeDW7xK81dnhv+l7DkCmH7OO6xWggGnfa3mW6L0KSLc5GIYzLOu590cdVFcZxbEWZKY5wMryRsKcYWOxgimSGPG+5lbVO0atWq6n9bw3Y9mq2liBfPazVsSloIi3jKFkHyHTDGijvCYuultC2hIEw7fqW5y3NTlM9sHcU9MVBi2M1yu3r1aj/4dvrpp/tzLkJjMuFgJGbLpNBY/cgjj/jP4cOH+89amTlzpv8cNGiQ/5T45eUzFJU7/3NP/Esrd2SOKyTtHnlAWYpfhBtuzQWUlcSHKxmf8Ld56aqF999/33/26dPHf5oclsfysJKHpJvfsUIouTJzwYIF1f8qFNVB6hFpDdPOvaS8kz7chWnCXyGtTob3JP8In3C4JEwu0iRwvxn1lBVoDASFefb888/7z7SVXIZhGIZhGIZhGIZhGNsDfmDo41dmujUf/s619R3g+h8x3q1d/p77w4Jn/PcvBIMfuONa+c6rrnv/PfyATNqgz84j/ov748IX2v3AXfIcoDw3xEXC4v8kq9+Zv8WzP/7uxXb3XGWR3+Wli/v9Dz1lizjvdtwEdZxbkbffftvPQOfCMJYFM9THjBnjZs+e7Y2QGCOZxQ4Y+jAWcnG4N5d85xJDH4ZJ+Q3hse0R2x/dcMMN/l7IHnvs4Y2irECqBUkPRkS2t3vvvfe8wZDvEgeQtLNFE2FixA2NwMIJJ5zgXnjhBe8H5yfhLjRgQp6bonzGIBw+I4/FPVcSjJbHHXecNxiLkRx23HFH/5lceSAGz1rzMwuJc14+a8qd/7mHX7hh4OmII46oPtVD2ZHvGHqJB36tWbPGG+kxMgPxOe+88/z/PMfdIYccssX2XJp01YqU0cqVK/0nEB6XyaEOy8NKHso2dYsXL/afWWjb3rx2HtjaTga8wjSlpasI4n/33Xf7dp5t7wiT/xkkg2bWU8JdsWKF/x3vLORGyoK4GYZhGIZhGIZhGIZhbI/4gaF3fnaFW/PBm/7G+j8uc2/d9ddu0U++7Qc4GBCBP7zxG++Oi+e/++eKobXvvkf6z5DF/9/1/vdcH8y83d/rP7py/oyQ5yYMS+IVsvTf793i2R/+c3a7ey5IW8ETXqw6gjLpWjrrx+1x/mjOg65L915up1En+WdFcW5FMDLKFk1vvfVW9W46U6dObd+mCKMhRkSQszS4MKxxyXcuMV7Ktk+yXQ/bHmHUw/iYNMwy+/2qq65KHTTSEKYHgx9xZhUK4Um8w7TzXAyJGEyT3Hjjjf73XGynBmLAFPLcFOUzK3HCZxg3xT1XEs40wZj52muvVe9U2Hvvvav/NQaMtbBkyRL/GcY5K5+Lyh154X/usYUTbvisBeQNwjOuzj33XL/SQFZUnHbaad4If9ZZZ/nnuGNrMuIrqww06dISDpTix/nnn+9X1d1///3+uclhMZaH+SxcuLD6Xzpl2t6sdh4YcIU777xzizTVco4c+TNjxgz/P4MwyQGwZtdTfs/gMW3IGWecUb1rGIZhGIZhGIZhGIax/bLVGUOsxhHemPJ1N+87lRmzPXfb2w0+6zq/rRrX0HOn+PvdB+zpP0MYJBEYxElD46YewhU8aZeks0y6wnguefR/+M+uPXr7z+0dDKICRjQB4xxnMXBhkOOS71yy/ZgY/0N/xKiXdkA75xRhGKyX0ODIgANxAgYkmAEv2xzJIJRskxYSxlnSk0TjJhbkDenACBoSI7+SiEGewRUM7qFBPiQrn4vKXbZqkntC0lCuQbaESp5xFZYHBmPKHoO9XLIyYaeddvKfIVnp0hIOlPJbVrkwcCVlZXJYjOVhPkWrWsq0vaGbsJ2HZ5991tf/m266yW/bRpxlsDg2za6nvXv39tv04Y9sI2cYhmEYhmEYhmEYhrE9s9XAUBb7XHCn6/8nJ7vPlr/nV8RoV8XIGUV5aNyksXHd6up/WxOu4Em7ZJCn1nQZHRu2JOJwd1a/YCRNDkxkoTm7osz5FiHh1li1kLX9EQZWSBp6NYhBnm2cMJpikA+Nx9sSVlrUAulgoCt5sXojNuFAKSswKIuPP/64+tTkUIPl4WbCPGRbO2DrvGbACp8JEya46dOn+23bDj74YD9YzCBRHq1eTxnsYhCRdo3VVKyAkjxdtGiR/zQMwzAMwzAMwzAMw9jeUA0MsS0bW8r9fvY9fhs1BlY+fOKfq0/z2WXsn/vPP/z21/4zDY2bNNZ+UDnLp23nL/jPspRNV3ju0O7B2UtGMRh3k1sX7bPPPv5TDJwhGGTFCBobzpBgRjpnXDDrvcx2SH/+5xVZfeaZZ/xnGho3aciWULUaelndgJGT83nCvJPzdd544w3/GVKUz2KQx/CO0TS5GqeIonLPMm5jdE4SGpiJc3K7KM5OIaw8Yz6H/bOyCOMy+RVeta500coqqx4A4zqYHG7G8nBLNHnIQAb1i8EjuZ9G2bY3D+oI+cu2bWzzRnmQ/2GdK6qnGhpRT7OQdiPMH85aglmzZvlPwzAMwzAMwzAMwzCM7Y1ue554wXW7/Om3XK8v7Ofa+g5wXdq6u34HHOM2rl3l1i17t+KoV1/X/7CvubY+/V3Xth6fP/+S2+PUyW7jmj98/qyf347t0/982g0ce473g+87HfIVt+cZ/8313HWo+8OCZ9ySx6Z6vzRuBp32d27A6PH+ucRL3PfYeZBb9c48727D5+EPHP1nbofBB7k+Q0e5HQ8+3rthe7c1S7Y2PiYpm65eu33R9dvvKNf/0FM+/92prku3Nrfkl1N8PmnjHBPS3G//sW7NhwvdJ68+Wb2rB2PiSSed5L70pS95Q+Euu+zidt99d/+9X79+3rjJWQ/cx/Aq8ByjXXgPcAu//OUv/WcIxsLRo0d7gxthsQURxn+Mlj/5yU+qrioQr8svv9wb6zAElgFD8Te+8Y329LS1tfntypYvX+4++ugj76Z79+7ua1/7mj/gff369e6www5zEydOdJ9++qlPN3nA4fOSdsmTSZMmeX8xhv70pz/1fmncaPIZPvnkEx+vgw46yOcveYWbjRs3+gPmOVsFt2zpJOy7777ejdwfPHiwNxRzgD5hET/+x9DKGSMhefmcVu4hmnyGonLHLUZl7h166KE+7mwZxdZOffr0aQ+fNIZuCHvZsmX+/BkpL/Jv7NixfoXTAQcc4OPD70jLk09W6sfq1at9fpDPI0eObHfzla98xZeZNl1CXh5SXsRR6gNlRFr/5E/+xG9XJeVtcmh5CLXkIXmDzDOAxFlCw4cP935Qz/CPtGvaXkl7XjvPlpLUE0kLvyG/P/vsMz8gB9zPq6fUozCNkg8ffvjhFvdj19O0/A7Bb8kf2h9kkXAee+yxqovNJMvJMAzDMAzDMAzDMAyjI9K195ARbudR41yv3Yf5G32Hjd7iO7At29J//6kfQBl02t+6gUed5T6e/7/d+j8u9wMgA0ZXDmvmO/B7rvUrV7gPn7zLr8YRNG76DT+6/bnEQ74TX2Ht7xe5D2be7v3sd+Cx7W60aNMl8Kz3XiN8WBvWrvLxlrOStHFuJTCEyVZhGMJAvmPUi8mMGTP8oeWA/xgc2Rbq6quv9vdC2EaJ2fK1bH1GvMP0cAA938OzNJhpz3ZIGCtl5jszwzEqMsP9zDPP9O4kfMkTnpOG8DwQjRttPjMTnsPuMaSySkfclAEDLYe0A79lCzjyefLkyf5eSKPzGTTlzv9sGyV+siXYSy+9VH1aYcqUKe1ujjvuOPfQQw/5+2F5sZqJre5wR7rxi2vYsM1tGQMPbEfFKgGJM1evXr38c226hLJ5KPFmxYvJYQXLw3Q0eYjMM6jGfWRYwiE/yFMo0/bm0b9//y3SQnyoR9Q5QVNPNcSup3kQFvmzZs0a7wcrnBgUCsvdMAzDMAzDMAzDMAxje6NL3759N1X/NzIYfvnP/WDPvO/EHSypF7a2Y0Dr41dm+m3wDCME4+bjjz/ePpvfMLYFJof1Y3lYH+Qfg3UM9gGDz2UGflgpxqAgsAKLwSMrD8MwDMMwDMMwDMMwOjKqM4YMw+h4sGKALabCszMMo9mYHNaP5WF9sG2eDArVC2WBf7HPOjIMwzAMwzAMwzAMw2gmtmJIQauuGOo3fKzrP3q8W/3OfLf03++t3jWMCsxy57wMgW2gDKPZmBzWj+WhYRiGYRiGYRiGYRiGEZNuPXr0sI30Cxg49hx/5tCHT/xz9U5rsG7Zu+6TV590q96ZV71jGJt5+eWX/QH93bp1s4PSjW2GyWH9WB4ahmEYhmEYhmEYhmEYMbEVQ4ZhGIZhGIZhGIZhGIZhGIZhGJ0EO2OoA8NWckO+dYvb9U/Prd4xDMMwDMMwDMMwDMMwDMMwDMPIxraS68DsdNDxbtdjz3Mb1nzqt5QzjEbAgfeXXnqp++Y3v+l22203v62VYRiGYRhGM0APueaaa/z5agMGDHCvvfZa9YlhGIZhGIZhGIZRK1FXDA2//OfukH98pfotHY2bEFbDDD6rY41ddcQ4G0YaGGOmTJnijTE77LCDv5rBFVdc4Z5++unqN6NRWD53XMaNG+fLTq677rqr+sToTCAHDNwbRpLtSTaGDh3qB4QOOeQQd/HFF5vMG4ZhGIZhGIZhRKDlt5L7wrhL3YDRZ6Rul8Y9tlJjS7VWIi/OhtGRwBjDYNDjjz/uzj33XHf77bdXn1TAGC0DCzLIgDFKkOdpV1mKwtIgq5/uvfde//s0Y3rS4C5XLYb3WvLntttuc0cffXTVRceFdJJm8jwNSXto4EvLo2ZSVF5aYvmTx9tvv+3rJdfSpUurd40kRXIIzSp3eR5e9db3iRMnujPPPDO6fIXEyB9N26vl7LPPbvfnsccec9ddV9tEHE26iPMDDzzQHtbNN9/sdt111+rT5kP8iGuePAt5slHGnzyaJRszZ870OsiECRP895EjR/pPwzAMwzAMwzAMo3ZafmBoxf953K1+d7779PVfV+9spveQEW7nUeNcr92HVe+0BnlxNoyOxCeffFL9rzaef/55b7ieM2eO//7666+3G7O3Baeffro3lC1fvrx6J5swrlykpVFIGOTTfvvt57fMqddgt60ZNWqUO/nkk/3gYh5jxoyp/meUYcGCBe6WW27xl0aeOytaOWwmMes7gxWvvPKKmzt3bvVOa1Km7c2DQQdWjPTq1cvn4bvvvutXtNY6OJQHgxXEGQhr3rx57qijjnK33nqrv7ctKCPPebLRSvWiFtlYsmRJ9T/DMAzDMAzDMAyjVlp+YGjxA9e5N7//Lbf294uqd1qfjhhnw0jjueee86sRRowYUb1Tjh//+MfecC0zit966612Y/a24JFHHnFnnXWWu+yyy6p3sgnjykVaGoWEceWVV7pp06b5VVrnnHNO9en2y6pVq9xee+21XayQMgwtMes7qzhpz1p91ViZtjcPBjPg2muv9Xl44YUX+kF8Bodir+Q55ZRTfL4yECXlxQARbdZf/dVfVV21LtujbEg9+dWvfuU/DcMwDMMwDMMwjNrxA0Oc+cN10LWzXP/DT3MHXvX4Ft+B7drE3ch/eN7t9+2fZW6VNui0v/NucItfae7y3PC/hCVXCNvHcY/VQjDotL/NdFuEJl2ci0Qck3He/aSLqy6K42w0B2YTMwjBdi/MluXCgCP/h7OyuS9bxMhvkoYltkaR7U3k4jchRW4IU+4TB7YOSm61QriEL+74X7ZlCdHEGfCfsGLMomYWL4YwLWz5UoZk2svEOS2svLSzyqKMkQy/kmVVL0X5I88HDRrkPyVfKHcGUETW5LvA9koiG6Q/KRuafGYLn+Q2Pmn3yBPkWPwiXOQVRG7FgIsxVdxxhTDbH6Pu+PHjq3e2pKju8D/PSBfPueqp72mUlbEskv7k5SFo2o0iSDO/5zNE/Jb4U77IleQdz/iOTAm4kfgkr5AiOdSQJnPJe0X5U0YO0yiqp1oaUd9F7sMrjSIZg2bVi7JtbxassKLNwD9BVnMefvjh/rMeJF2khQG7l156aYt4M4gBw4cP958xZBVwn6yD3JMy18pzkWxo/NG2G1k0UjZkCzkmrRiGYRiGYRiGYRj14QeGPn5lplvz4e9cW98Brv8R493a5e+5Pyx4xn//QjD4gTuule+86rr338MPyKQN+uw84r+4Py58od0P3CXPAcpzQ1wkLP5Psvqd+Vs8++PvXmx3z1UW+V1eurjf/9BTtojzbsdNUMfZaC79+/d3d999tzfssGXK7Nmz/f9sWQIYL8877zz/PzOAMXZwqHG4RQzbyIjxBDfhJWjcgNxjK5o99tjDG2NCw9ANN9zgt6iR7cuI/xFHHFF9WkETZ4EwSC/+1ArhYSTcf//9/XY0jSKZdgykybSXIUbagXKlnLgwaCWNZM2CPCFvMNYygPLee+/5suc7M9mBspL/cf/mm2/6PCVvhVj5jNySJxhoiQd+rVmzxucXeYSsSJyB7bL4LlcSjLrIcRbyu6y6AzHqexnqlbGiPBQ0ac+DVW6sykpu13fiiSf6z3DWPYO/hP/CCy/4OA0cONCdf/753hgMsi2kXNImMLgnaOQwJhKXtPwpK4etgsQ5r76H50tJ+pJoZKzV6oUG/F+xYoXPDwY5SOf777/vn1H3Y7Hjjjv6z+S7TwakyqZRyiuvLlMHqau0X8gr714pc608F8mGxp8y7YaWWLLx1FNP+U8GzZBjaZ8MwzAMwzAMwzCM8nTp27fvJv5hFQ4rcBjYeOdnlRmlrJTh/J5539m6s91zt73d/n/7Cz9Isugn3/b3xP2iH17k/vDGb/w9BlgYaBF/NW5CJF5pcZBnSx79nlv67/dW71YQP7NICwvy0hWGw+qhXf/0/3HLX3zIbx0XkhfnmOTlW2dFjGEYONj6RQxiGEPC+8zM5YwCti8RMDJgJLvqqqv8bFRm9WJoku9paNwkwaAlM7SZPSvfMdSwLY7APZ6xRQ5o4hzCTOOFCxfWPEub+GEcwpA1ZcqUumZ7J8tF0Ka9LJq0k75kuMBvMYi/+uqr3g8MWpx/gFGrTDlrwLiF8S9MpxjXRT4AAygG3TD/wt/K/xdddFG74TK899FHH6nymd9A6CZ5L0vmKeNwprjEmcHFtBnkob8MvD344IM+Lnm/EXmRvIlZ38tST/3S5mFIMu0haeUm4JbyDWWD8BkwYKssEFkJ813yh3JhS6oQ4nLPPff4/y+//PJUmUu7x3kmlEsWUl5p6clLI2TlT5EcNhPJi3rre4i4Td7XyNi2qhekNa3t1SB1HEg3/jz00EOp75d6yJObMP6xZFXKN6w7hM3Aali2ZeQ5SzagyB9Nu1GWWLKBjJ5wwgl+IC1mmRuGYRiGYRiGYXQ2tjpjiNU4whtTvt4+uMGAyeCzrvODJFxDz53i73cfsKf/DJEBH0gO2AgaN/UQruBJuySdZdIVxnPJo//Df3bt0dt/Gh0LDAoYZzBCyIUxDHbaaSf/+eyzz/qBkZtuuskb0DCUYMQL0bghHFYWYfjhktnzsnWQbH/DmTYhr732WvW/Cpo4h2DUq2cwB6MQqzCGDRvWsMO2tWkvSz1p57cYpTCGYzBj9jT5AMcee6z/jA1GOi6MdBiJkan777+/+nQz4ex14igGPwyKGNPEgAeSpxjjY+YzhkHCShqNi4yUeTD4iBE7SVHd0VK27mioR8Y0eRgr7SJH4Rk25DV5niQMX87U6tOnj/8UiJe0B9dff/0WMlckh+FqhrQrlO8iYuXPtqDe+q5BI2OtVi+09O7d22/pRv7INnKxiZmGMrIa1h1WRm0ryrQbWmLIBvUGGaXcGdC0QSHDMAzDMAzDMIza2WpgKIt9LrjT9f+Tk91ny99zaz54018a5IyiPDRu0ti4bnX1v61h4IlVNFnX0uogT63pMjo+GJUwzCWvuXPn+uczZsxwEyZMcNOnT/fb+Rx88MHeiMcAkKBxgxGVGbZLlizxRtKkcb4MRXGODekre8ZQR4cZ9cxsDpk1a1b1v8bAzG0utnGijJMG920JK6VqYeXKldX/inn44Ye90TG5zVBHrjv1EivtyBFpP/LII/13Gbj+j//4D/9ZBhkUYps5ZDQ56FAEccGQm3XlDS4m5VCbP2XksFm0Un3vaPWCQTQGVMivyy67zA9gsqoTFi1a5D9jkLU9HXUA8gZtapVVDbHkucifmO1GTKSsmbjR6AFIwzAMwzAMwzCM7R3VwBBblnHGzu9n3+O3V2Ng5cMn/rn6NJ9dxv65//zDb3/tP9PQuElj7QeVs3zadv6C/yxL2XThXtg9OHvJ6HhwLgYzqjF+YYwMr9DYwP8YntimhtmpzKhmkCQcOMhzwyAD/7PihNVEGD9lJr7ALHoQg4fAIFOINs4C4YsRqx6If3iOSEy0aS9LPWmfOHGimzx5cvVbhdNOqwxeN8rIzEoALoyHGDvLGtxZGcBqjfC8hX322cd/ksdl8jk0apKHyUFBzo0hrOTgWRK2DIJkmGnITPLwrCFN3dFStu5oqEfGivKwlrTjXxasbKRc2YLpsMMO88Z1Bn2TEK6QtvIRAzfxmjZtWqqMFslhGfLksEz+lJHDZlFvfdegqaetVi9CsvyRdIUyJmfhxBzAJw+oJ5zDFsaDOgRvvPGG/4RYsqohljxr/NG2G1piyAaDVZBsnwzDMAzDMAzDMIzydNvzxAuu2+VPv+V6fWE/19Z3gOvS1t31O+AYt3HtKrduWcUY3K1XX9f/sK+5tj79Xde2Hp8//5Lb49TJbuOaP3z+rJ/fju3T/3zaDRx7jveD7zsd8hW35xn/zfXcdag/r2fJY1O9Xxo3nN8zYPR4/1ziJe577DzIrXqnspXFhs/DHzj6z9wOgw9yfYaOcjsefLx3w/Zua5Zs7rRnUTZdvXb7ouu331Gu/6GnfP67U12Xbm1uyS+n+HzSxjkmpLnf/mPdmg8Xuk9efbJ6t3Oz7777ui996Uve6IFRg7Ni+P/DDz/c4v7q1av9HvVf+9rX3MiRI/1WWzz/yle+4gd2gC1L+I7RiWcMDmAc+eyzz7xxR+Ome/fuPgwOsl6/fr1/xsDDp59+6vr16+d23313f74KBhOM9IceeqifocxWKWyXwzZOGJRAE2cBQw5nf2BAw8BVKxi1CPOJJ57wh9KXhXicdNJJ3og3ePBgt3HjRp9O4k05cPaNJu1lyEu7xIfwMYhu2rTJG675zsoo4kM8iYfEi/zlokzZAgjjmED+/PCHP3Rf/OIXtyoDDcjLLrvskplO/P/GN77h44i7trY2X+4SVwHj3ejRo70c4hajGXHHUP+Tn/xEnc/kQ+iGsJctW+YGDBjgZRUZ+OSTT9zYsWP9iocDDjigXQ5Jy5NPbm6HcIesHnTQQT6vpY4gA4sXL24fbPvlL3/pP/GfMOHXv/61H0goqjvkA37GqO9lqLd+FeWhpt0I6yPGa2RQyhh/GMQkn4EtA0899VS/0mfPPfd0v/3tb7coK5FDtnujDBi0wD3xYDAI+fnOd77jnzGY0LVrVx9fuchjKJJDLfiZJ4cvv/yyOn+K5LAMrVLfw3ZM3JJmvpN+5F5TT5tZLzRtr1BUv/iNyBjtGO6IL+/SkHrLS94F5BFhkXf8Tx249tprvRviEkNW02RD8iq8VyTPGtnQ+ANF7UYZYskGcaNd2bBhQ81xMQzDMAzDMAzDMCp07T1khNt51DjXa/dh/kbfYaO3+A5sy7b033/qB1AGnfa3buBRZ7mP5/9vt/6Py/0AyIDRZ3h3fAd+z7V+5Qr34ZN3+dU4gsZNv+FHtz+XeMh34ius/f0i98HM272f/Q48tt2NFm26BJ713muED2vD2lU+3nJWkjbORmuAYYLtcph9zOHOsrUPB3ELbGuFgVSesZoB92z7IxS5YTuW6dOneyORrChiVjPGDmbOnnnmmd7d1Vdf7WfCYljCH7aceemll/wzQRNngW1wGMCIdUZBOBhSBoxNxJH4AkYhibegSXsZ8tIu8ZHwKQP5jlEcGNDjvBPKjPuUr5Rp1iz60HAVE8kT8g2k3CWuArO477zzTv8/zzGuzZkzx+etoMnnKVOmtLs57rjj/KHuEMoqqxvIC9wh7/jFxVlUIeQVK0swkoZ1JIvkGSvauqOhTN3RUG/9KsrDsmm/4447vF9Sv/AneUYMZc1zfh+udgghDIzclBcDS8gUcQE5D4XVDxJfuQSNHGooksMy+VNWDjVs6/oetmPiVr7jB2jqaTPrhabtFfL8Ic7I2Jo1a/xvkUcGfViNk0Wt5cW74MEHH/T/Exb5iDyHK0pjyqqGInnWyAZo64Wm3dAQSzaE5LajhmEYhmEYhmEYRnm69O3bd1P1fyOD4Zf/3A/2zPvO1oejb0vY2o4BrY9fmem3wTO2L2677TZvyMFos61gpQ+GL2CWNAc+17MNzvYGK8YwXmFcxWBpGK0Mcopxm3PRwkFODsTH+Lst25qOgNX3jkXM8mLwiQkDslq4M5HVbjQTVkOyIpQBNgaOOmtZGIZhGIZhGIZhxER1xpBhGM0Fwwez7RmM2ZYw25lZxcwohyFDhvhPY0vMSGy0OmzXxKqQ2bNnbzPj7vaC1feORYzyYrULWzaGZxt1Blqt3WCllQ0KGYZhGIZhGIZhxMFWDClo1RVD/YaPdf1Hj3er35nvlv77vdW7RkcE4wuDQcAWKczO5bwOtsxheyajNWGlBTOY2R7IMFoNzlhhFRDng7DlFgPN5557bvXpZmzFkA6r7x2LmOXFO5rzjITtua5o2w3DMAzDMAzDMAyjY2MrhjownG/EFnI2KNTxCffU5wwIVuiwfYsNCrU2bK3H7GXDaEXYipJBZlY7cFaKGXfrw+p7xyJmebGF6kUXXeT9295lwNoNwzAMwzAMwzCMzoGtGDIMwzAMwzAMwzAMwzAMwzAMw+gk2IqhDsyBe29w3z57rfvKmM+qdwzDMAzDMAzDMAzDMAzDMAzDMLKxFUMdGAaEJn1zrZv5m+7u+zN6Vu8ahmFsX3BWSMiSJUvcddddV/3WWnAWyZgxY6rfKrClFVtRGYZhGEZHgffZkCFD/P+t+s41DMMwtj+uuOIKt2jRIttW36gbdJnhw4e7xYsXu/vvv98tXbq0+sQwDCHqiqF/mrzK/evUP1a/paNxE8LgxwXj11a/GYZhGJ2N/fff3x8iXwSHpl966aXVb7WDP/fee697+umn/XXbbbdVn5Rjhx128HHnDDFj+wV5EVnhSg5kNpJYMm90Tkx+jDR4Z/EOPO+889zxxx9fvWsYhmE0AvRG9Eejwtlnn+3PXe7bt2/1jtHKMIhXj/w2Qxfl7MwzzzzT3XPPPV6+DMPYkqgrhhj0GT5kozt1UnYjrnET8uAtK13vnpvc1H/p6Z54vnv1bgUGjQ4YutE9+WKbW7CoW/Vu56HeFUN0/C6//HLfUGLA5KDhF154wd1xxx1bjKTTeJ522mlur732ancTzhzU+kODzzOZOc8L5PXXX3cXXnih/66lKD7AC+qII45oN8i+8sor7r777nPPPfec/65Fm/Zhw4ZtEdYNN9xQajbCgQce6E488US/0oCw0vIlVligKYsYeShxboZsaMIq4yYvnzVuQJOHGnnWoPGnI4YFyAMHvt9yyy3VO+k89thjvlxvvvlmN3PmzOrdchx99NHupptuao/z6tWrfZnWsuIHRffKK69Uxb1WYuSzyHNevZC0JAnrqaZeaNxoiSlj9UD7ffrpp/v/qe/Lly8v/V6rlRgyHwvyHiMyZXHKKadU71aQDiOfuJN6BmH94F1w3HHHednAn3nz5rkpU6a0ywbGEwZbQ9La1c4MdXXUqFHukUcecQsWLKjeTaeV5KcIa+ua19ZJPUt7dxXpq1n5J5D2s846S1UWGjT6MzSrX6Ahlmxo/SlKeyx/IFZfr1mYPDenXdWQlddpeUCYxFvyafbs2b6tanZ5xULa3GYNxJNPWj0hBlIu2v4Q+cGEQMoqpKw/xtY0Ig9pjxjIq1V+Y+iimnThZuLEif5/6n8zZN8wOgotf8bQ479pc6+82c3N+/xKwqDQuLGfucG7bazeMbSgEDFiftRRR3nDC43ou+++6xv0Sy65pOqq0oBefPHFrlevXlu4EaVR6w8wSo8SUg9F8QF5OWGcw82cOXN8uNdcc42PrxZNWLfeeqtP+/vvv+/doJgT1tVXX111oQOjIvlDnLOIFRYUlUVWHk6ePLnqophmyoYmLG18NPmscaORQ42MCfwG93Qak2j8KRNWHs0MqywolpTF3Llzq3fKM378eP95/fXX+/iiXNYyKNQokINa5CcLbb0Q6KDjRi62yRNi1R0NmrSn1ZVGQMcCOeHKa8MbQQyZj8XBBx/s5YPOHeWTBm7g8MMP958hGBR5FwBlijwiK8hMEp5z0a7ut99+vl1tVnm3OtQn3j1Dhw6t3smmleQnibV1FZrd1hEeBkrqVppxRaOvQjL/SD+89NJLpcsiD018Yui0EEMOIZZsaPzRpD2WP1CvPq8llsybPDe3XdWQ1/YCE0vuvPNOv6KRwQPCTQ7mNKu8OirIi1ZPaDbyDmKwz+gcNEsXZdBp2rRpvp8yYcKE6l3DMKCt+tmy/OhhOzunEaBAPfjgg96gFc4ueuCBB9oNN4DSANdee237qDqzOFCeUKy0/vCSBzod9aCJD7ONUfDC2UVicDrhhBPUe9VqwrrxxhvdzjvvvEXa2X6jbKeIGTsYn/FTZlYniRWWpiz22WcfP3sqzEM6CqQdhVwzI62ZsqEJSxsfTT5r3GjkUCNjAoZUmQkjbgWNP2XCyqOZYZXl9ttvr/5XO/379/flFpZtK0A9If/oyMqMqhj5jBtNvRDeeuutzJlYseqOBk3aJ02a5JX/WbNmuUcffbRhcrctiSHzMeC9QL4jN8zeRU6Ts/54t1E+GPRGjhzZbnwUWGVEGWGokrISAxj7g4cDtKEMUjdoG88555zSBtrOTqvIT4i1dVvS7LaOfAcMp2lo9FVI5h9lCfy+bFnkoYlPDJ0WYsghxJINjT+atMfyJ4Y+ryWWzJs8N7dd1ZDX9hIvJoJA3uqCZpWXER/kD/nmLBijc9BMXZQ241vf+pZfLWgYxmb8iiHO/OGaft1Kd9TI9e6uqyrnAMl3OHDvDe3u2N7txktW+63M0viLceu8G9ziV5q7PDf8L2HJFfLts9f6e6wWArZTS7oVP6796zU+HC4Jk4v0wO4DNno38lv+F/+3d1A8k8ojs49QugRm4jLrRhRGkJk7MuNX488ee+zhP2XGTq1o4kNHYf78+f5/YeHChf5z77339p8aNGEllUrSzMwrZm+VAX+KFPAyYdE5Y/ZFmpFMUxYrVqzwn2EZAopasqzzwmqmbGjC0rjR5LPGjUYONTKmQeNPmbDyyjR2WPVCXOk8h1cSOroYOTAuky7ccI8OdBrIeRZsu0HnET/wi85mKD8xwV8GEwkPwzcGO+rJ22+/7Z/HymdNvQghz7mSEI8YdUeDJu2vvvqq95tZpRg5KausMi+C9HLWlMgYZcKgRVk08oO/yKuEJeEJsWSecAlf/OB/wk7zrwjJc4x0zMBNM66wLSODrsyIZjZo2OaTJtpMZvOG70KMOMChsVmIYWjQoEH+U4umTIvKS5PPGjfAcwmLK0028uIsZSfGPtoMccclaOQHYqRdC/5aW5dOs9s66hF1MAwvhPt5+iplFs7QFzDCUP/F37JlkUVRfKCMTptHLDnk91rZQP6oX2n6mMYfTdpj+RNLn9cQS+aL5MfkuZgyac+T55Cstpf3DboCs/7TBoWaXV5FIJO8G5Ppzbpf9D6tV4fU6gmCtryKyBrAS8LEId7/bOuXVg+0/tQD+c4VknYvL5+FIr0u/B1lLf7J95BmlAX5L3EiLPTNZD0k/qRD3CXjg3vu4wY/uESuuWS1p7gLryTkuVbPLCMb2GdoR9L8MYzOih8Y4oyaN97p6gbuvMmdNGa9e29pVzdrbpv//pdfW+cdAu642NZt8K4b/YBM2qDPcYeud3Pmd2v3A3cyECPkuVn8+67tYRGvJL99u/Jcnj0/v63dPVdI/x03up8+3sOfUzRi2AY3+/Pw+P/LoysDXhd+fZ0bM2K994vf9vr82eiDKs86IyzJRkkUaDRRQHkJ8AKkEZeZYHkz25L+DBkyxH/Wu0RUGx9mU4WUnYUHZdLOS46XFtsxoFhyJkKj0IRF54z4s/ohiaYs8BMFmqX6pB3FAEPf3XffXXWxmbyw0miUbKSRDCuNLDeafC5yUySHtdavJBp/yoSVV6axw6oX6QRy5ZU1qxjYi5ytCTB2YJhmZQIQP+LJhTxwyXcuUWLpkMlvCO/NN9/0HRj24Y8J4aFQ0zFghRl5N336dL/X9mWXXdbesW1kPmfVCzqTdCS5RNlPEqPuFKFJOzPQyDPyksEKDAOca0Mng7LUgt+kFyMKnRLKfs2aNT4v0tKfhUZ+MI5Lh13kWi4hhswD4RI+fuAX9Z0zC2qBFUD4Q0f+jTfe8OUi9SYEoxOrKXEn5QU77rij/0wac0TWte8XLZoy1db3onyGIjeEhYETCIs4Ia/UD6EozuQd90QmCIfvcgka+YmZ9jysrSummW0dUKbEs1YoM2bqh0Ya4kA6xOicRVZZ1At5rtVp84gthxrZ0OjYef6USXu9/jRSn08SU+bzMHmujay0a+Q5r+2lX4X+gM4gBnc+xU2rlReDT5QV5RPy1a9+1X/+6le/8p9CkZ5Q9F4u0iG1eoJQto9fL6z8hlZfLaTR1SmvIr2O+5QFdZCtzN977z3vju9JXapZZSHpoF0lTOohbYOQ7DswmSSt70A8aZOIM+0Jcs3/TA6DWH2ZWpBBx5122sl/GoZRHRj6/oye7q3FlTN8Vnzaxf39D3u5793byzFYMnj3yvk9CxZ18+64eP5303r7+6OGbzngA1Pv6+l/z3XXz3v4ezIQI+S5CcOSeIU88Xz3LZ499+pm91whuPnF05XBoiVLu/pBJYHVQjIo9De37uB/+907ertln+dBZ4QXGC+ipOKE0ojCxQvwjDPOqN7NJs0fXhrMZEqb/QG8cHgRZl0orEJRfHi58NJgRgG/o9MgBvqVK1dGDQvoSP3gBz/wL39mr7F8vVFow2Im1FVXXbWVEQeKygJ4xmw8IO280F977bX2eyF5YSWpRTZqJUueQ7LcaPK5yE2RHAp5MhbKKooZ4K5WWdXW5aIyjRlWvUgnkKuo7k2dOtW7Iy9RLlE2AfkmnlzIA5d855I9uDkQGNh2A38wXEo5Iw+xIDyUbjqTlAPhUCZpdaQR+ZxWLz755BOfVrbfQJYx3gLyH864ilF3tGjTjoGAMuegUfKUcpey1ID/EJ47de655/p8oFy0aOQHoz9g8MGNXGE4MWSe8iVcwmc7GtyE29KUQfySuMgs3LQ8xmBIx5D3SUiZ1bxJkFdYsmSJ/9SgKdMy9T0rn0Py3HCINvUbQyduiBN1DTdSv4rijJxzT8qBdwTf5RI08hM77VlYW6ejWW0dUD9jc8wxx/jPp556yn+modHZaqWMTltELDnUygb1IU8fK/JHm/YY/sTQ58v00SCGzJfF5DmfvLTnybOm7eUdxIQI3pmsMEYm+vTp490gw2ls6/LCT/wOjesMFCGvyVVL4fuUQZzwfap5LxfpkFo9QShqf8rAFnFpYQjk0ZFHHun1CPSULIr8aQYaXV2j13FfyoK6SLnjjnJN6lLNKItQPyQuMgCDngaUEfJG/Ir6DqRLjm9gwDlt4peElXzfJNHqmVrZkAFwwzA2s9VynHDghMGSUyf19f8ziHLB+LXunyav8teV56/x9/fctTJwFMLAjsAgThoaN43mkP0qg1rJwae0wajtHV5Q559/vldSwpca9O7d22/nQoNepDBl+cNLhHtZhLMG0q7wZVIUHw5L5RlhouiiQIqyzFZeMcMCXmy8iHjx83tmQ8d4aadRJiyUzbTOWVFZAAo55z0wq0XCo6PILLU0xTsrrJBaZaMW8uRZyHOjyeciN0VyKOTJWCirKEKAMib3yspqmbqcV6axw2oWlJmAAi6gRFKWXOQvl3znoiMFlCXPQn9EmY15gCvGczoP1DmZAcvstLS6Fzufs+oF8oDyzyxd8oNnMjv12GOP9Z8Qo+5o0aSdTgxGD/IQo9fAgQN9XSozs5YOIOWe7MCLXGjRyM+zzz7rDWtS7nQQMVjUSpbMyzYxyc5YcsBGA2emAbMDMdoxG5A0SMc5hDyk7ElXSNH7IwnhyIA7HVfCKzPDVFOmZep7Vj6H5Lmhk4ushgZQDF0gMxpjyaGG2GnPwto6Hc1q66BsXSyCeGG4Jp9DWQnR6Gz1UFanzSOWHJaRDWQyq1yK/NGmPYY/tBuUYT2U6aPFkvkymDzno0l7ljxr217SOnnyZK+7o0uIG1mJENIK5SW6CWUFhEe80vI7jGPSeL0tdEjIa39iwmohJiY8/PDD1TutiyafNXpdSNi2UQ9EXkIaXRbEFx2MSa1c8g5g0B9i9h3KEMp8WT0zjX333bf6n2EYwlYDQ1n8/YVr3MljK9vMMXCiHTyRM4ry0LhJY9Xa6j9GXaCgcJDjsmXLvKIVwkuPlwENsszkZFkpLFq0yH8KWf6ESqoYc7iAZdso9fiPgpd1ieFDEx9emDzjhcrFy5oODr/Fn5hhhRAubtgXF+WtrHJehlrD0pQFMDMEv1FAgPBQaFDYapmJV49slCVPngWNG9Dkc5Yb7ufJIRTJWCir5D+gjNUiq2XlOYtmhtVZQXbCbVLYWoBtljB80AERGYudz3n1gpmOPA/hPJks6qk7GjRpp86xxYjMgGb26YQJE/yMM2nbWo0ZM2b4OBJXyp1ZpQx8UO6tymGHHeY/eW8wCM7FuwJjjJas7WvopEKyIyjhsC0HnWlW0SALHRnSQX1PXmW3ZQpXpLY61tYV0+y2ji3Esmbj1gKzpiErD7X6WD3E0mkbodvUIxshWf6UTXut/oTxrkefJ29Fx027RO/dVu93k+ds6k27tu2ljSLNQl773ArlRVx5v6OvgGwjl7eCqVZmKHXIVtQT6COnTX5pBahbIdp8jqXXNQsGmxl0ZgU+9obkAND2AqsMgVWKhmFUUA0McY4QW8pxVg9bv7Hl2owndat8Tj+2cgbRiwuyB5I0btJ454NK9Hftv8l/loWzjGBQYtVT/x1r86+jgcEFpZ3ZDsySQSEKFS1g/9pkR4V9PkGUrCJ/OHsA8EeMOVzAb8U/DZr4hOA/ey/zyT7FZSgbltCsfXghLyyUXdIdUqYs6CyEyBkQaaSFBdyLLRu1hgUaN2loyjTPDeGmyWGtMpZE40/ZsLLyuRFhdRTosCTTJdsDMsu1EWAEwdBx0UUX+dmyGEBkZmCsMtXUi4kTJ/r7IdLhzutg1lt36pFD2jBmD9MJw/CM0UNT35NIWMRFA27T0MoPcSSulDvxxuCDoVYbvgYJT4xAQnIffA0yOCOD4FxsrwHamarIOUYq9ikPy1uMiZxbFCLh0IHFoFXWkKAp02bWd+odK4IwFpAX4SUyq5VDWZGaLNsyWFvXOds6wCCEESxWeyODvY8++qj/FDRlEZKVP1pi6LSx5DCNWmQjjTR/yqRdKOtPzL6ehpgyXwaT5639iZV2TduLvww0hr/Pa59jlVe9oCPRrqIToWfxnQG5MsTUIcvoCfXKqgZ0PcJoxGBZLYQDQcQrbbJEUT4jV0V6XVkaWRYMzBJ/VuAx8M5APOkLidl32JaMGDHC9zlacRDSMLYVXc44seemA4ZudPsM3uCGD9nonp/f5s8ZevLFtvbt3g7ce4P73mWrHWfxPPZsd9ent3MnH10ZzOndc5Ob/XKb+9HDPf0Wc/gx8zeVQaPRB613A3fe5GbNbfMDSqBx8xfj1rmB1cEZiZe4Z6s72XqO7e3uuGK1/3/O/G5u7drK2UAMMPXbYZOb9M21/ncMZP3r1D/6//l9eF/iQ9pYBcWgEFvMkS7ZRq9VYcAuTEtZMFSjMNEwcqBbCAoLLy5eErzweIGxly8KCEoJLz9eGqDxJw38QMnJ2ps0DU18UJhYTi7PIHyuRRMWHRKQ2cy8aHiplk2XKERAR0rCBJb4ozyWCQv/mEVH/mM0KyJZFiwfJq3cY7YIWw2w7y+wj3eozOaFFVs26g1L40aTzxo3GjnUyJiAMshWB2w9kFTUNP6UCSsvn2OHpYHfYShESU0S1h0JB7cgZSryjCFZoENIXQvvAW4hKXtAh44ZYZIuFGPkKU1WQfIhK+61QnqJQ6wy1dQLya+0NoFZc8QhVt0R6pXDWFD3mFFKRxFDlMQdwxlxCCFsZEryCTdsi0HnQyM/5DN5u3p1Rbfh9zLLlEEQiCXz4obfsGIHv8TgkqwXWZA3GFaYNZlslygL8os8SqvDyfoh8ZP8Ie3MjKZzzVk6kJauWtCUqaa8yuRznhvJC+ogB/5KfJAFkWetHFJ+99xzj/+fWeUiS88884yXQ438xEp7vVhb19y2DqROp8UFQvkJ6yuIvirgjlUdtZaFkJc/mviIrKaVaRmdNpYcxpINjT+atMfyJw3yJi1drYJGfgST53R/YqVd0/aKG4lzmhshVnlJPtXb5jIxkJVJ1K2kzqR5n8bSIYG8ydMThLzyigkrbZgMwgBLvdRbXrSH6J6kWXRjQD9GVljlrMlniQcylqbX8Zzyk3onel2y3REaXRbYLVitjTw99NBDfrBZBl0pG0m7yGqYP2HfQdItuj3lwP+4D++THmnrJA+SuqimXpRF4if9E8MwKnRlUGjc2M/84AiMGbHefx+82+ZVNAwQ/WxmDz9Yw0DE149f5weDln3axQ/qfP2EyiDRik8rK3D4PRfP/+cverYP+IDGDYNF8lziJd+Jr/Dh8q7urp/3cMs+7uJOOHzzb8pw8929/GAY4fDbXgx0zW2rPt2+oZEHjAw0sOHFiwpolJn5y/ko3EeZSb5oNf7EQhMf4Bnx4RmzT2tRDDRh8QxFQNJLXvBS43yZMjBDS/wAXpTyXWbMlgmLFzWKiCghZcFP0sqLnrB4+TKzLG27nrywYstGvWFp3GjyWVsWPMuTQ608A4o6in/S+Aoaf8qElZfPscOql7DuoDyCfI/d/rB1AOkC/GcmGIpl2fpeL9LxjVWmmnqBEo+Mp7UJEh/iEavuQL1yGAvqHumkoxLGfdiwYVUXm7njjju8O2RR3Mhe4hr5oXNJ3koYhCf5LMSSecIlrvyG37JSQAxQWo6t7vsfGhIEOpdpeZQFMsZ5M0B8SDv5k5xBHANNmTazviPPGCMoawwSEh+pm6CVQ+rjtGnTvAEqlCVBIz/W1nXOtg6QM2kXkEkx3AgafVUQoxL+JdGUhZCXP5r4kOfkWb06bSw5jCUbGn80aY/lT0fE5Lk57aqQ54+m7RU3ELphQEzcCLHKS/joo4+q/9UGgwPkMelP68sVEUuHhCI9Qcgrr1hgqCdfpFxjUWt5cVaXvAPZ3o5BEqAustUtaPK5SK/Df76LHiZuku2O0OiyoO1gwJL6x4AJg3SsHGTrxjDtyJvkD/Gtpe8AGl00NgxGsTKRfJSBUcMwKnTp27dv59g3rQTfPnutHyTa3lcMGYZhdAToqNKJQTkFlNBGGcXqBaUTZRfocEpnh86sYbQ6MouWDu+2hDpv9cYwtg0YgTh0Wow14Yx0wzCMzoSsUMDIj7HfiAt6J4NcyRVftWLlZSQRmQAGhRjAS5vQZhidmcryHcMwDMNoUTBKyaBQRwLlk7jH6OgYRqPBGEznnK3btjXUHc4bCvfSNwyjOfDOYiAIwxoDtGxhaxiG0ZmxQYbGwEoYzrWJ3Vey8jIEVjihy7AiigFIGxQyjK2xFUMpdJQVQ5z99OXR67c4d8kwDMMwDKOIcH9v2R+dVW5sVcKWJdsS2Utd2NYrmAzDMAzD6Hxwzgnba8U4/8ZoPFZehmEY5enWo0eP1tyPZxsy5uANbt+9Nrr/NbNH9U5r8tHHXd0Lr7W5t97rVr1jGIZhGIZRzEknneS3VmCVUM+ePd3bb7/tZ20+/PDDVRfbjpdfftmvUujWrZtbuHChe/bZZ6tPDMMwDMMwmsNuu+3m9RD0EqP1sfIyDMMoj60YMgzDMAzDMAzDMAzDMAzDMAzD6CTYGUMdGLaSY9u7r4z5rHrHMAzDMAzDMAzDMAzDMAzDMAwjG1sx1IFhQGjSN9e6mb/p7r4/o2f1rmEYxvYF+0WHLFmyxF13XWvugsrZKGPGjKl+q8CWWD/+8Y+r3wzDMAyj88B7cciQIf7/Vn13G4ZhNALav+HDh7vFixe7+++/3y1durT6xDAMwzBag6grhv5p8ir3r1P/WP2WjsZNCIMfF4xfW/1mGIZhdDb2339/f5BoEePGjXOXXnpp9Vvt4M+9997rnn76aX/ddttt1Sfl4CB/4i4H/BtGqxKr7hidE5MfIw3efbxLzzvvPHf88cdX7xqGYXQuDjnkEHfmmWe6e+65x5199tnVu4ZhGIbRGkRdMcSgz/AhG92pk/pW72yNxk3Ig7esdL17bnJT/6Wne+L57tW7FRg0OmDoRvfki21uwaJu1budh3pXDNFhu/zyy72yggFz1apV7oUXXnB33HHHFrNZUGBOO+00t9dee7W7CWf8af3BaMAzmTmPwfX11193F154of+upSg+cMUVV7gjjjii3SD7yiuvuPvuu88999xz/rsWbdqHDRu2RVg33HBDqRlBBx54oDvxxBP9SgPCSsuXWGGBpixi5KHEuVmykRdnDFdXXnmlv58G8TnrrLP8/5q0F7mRtOeVl7gpyh8NmnqhcaOhmWEB8vD444+7W265pXonnccee8zn48033+xmzpxZvVuOo48+2t10003tcV69erUvi1pW/IjMaeJeKzHyWSOHWfUnrKcaN9BMOezMUB6jRo1yjzzyiFuwYEH1bjox6k4sKEOMyJTpKaecUr1bgbZAPnEn9RXCesY75bjjjvOyjT/z5s1zU6ZMaZdnViEyaBtSyztue6ajyk8R1mY2r82Uepb2DizSe7PyRiCf0dli6VEaPRya1b/QIGmvt1+g9SeG3guaPIzVL2gWJs/NaVc1ZOV1Wh4QJvGWfJo9e7ZvqxpRXvg5ceJE/z+/KXqvGoZhGEazaPkzhh7/TZt75c1ubt7nVxIGhcaN/cwN3m1j9Y6hBUWGWStHHXWUN5jQaXv33Xe9MeaSSy6puqooMRdffLHr1avXFm5E2dP6A8yUwchQD0XxAZTck08+2S1fvty7mTNnjg/3mmuu8fHVognr1ltv9Wl///33vRsUasK6+uqrqy50nH766T5/iHMWscKCorLIysPJkydXXRTTbNnQxpmOAc/lIh/hpZde8p8a+dGEVVReZfIHcI9M0tlLopFVjRsNzQyrLBgnyee5c+dW75Rn/Pjx/vP666/38aWDWMugUKNADkQOY+RzWTlM1h+2yUuS56aZcphWVzoTtDe0U0OHDq3eySZG3YnFwQcf7GUIIwvlnAZu4PDDD/efIRgUeacAsoFcI9+0yUlERmnD99tvP9/Od3a5ETqq/CSxNrNCs9tMwmNQiLqVNjFCo/dCMm9Cna1sWeShiU8M3RhilWmsfoHGnxh6L2h0bIjRL9AQS+ZNnpvbrmooanuZWHLnnXf6FY3sSkC4ycGcmOXFpIlp06Z53WbChAnVu4ZhGIax7Wn5gaEfPdzTffeO3u7D5S0f1Q4Fis+DDz7orrrqKj8jhk4bs2i4LwYXQGGEa6+9tt0NShJKDwqR1h+URqCzUA9F8QFmCaOY8Qw3xIs4ooidcMIJ3o0GTVg33nijT/tll13m3fBJ2GU7M8zIZeYRv88iVliasthnn338rKcwD5mtR7pRpDU0Wza0cX7rrbf8c7lYEQKUAWjkRxNWUXlp80fAAIo7OntJNLKqcaOhmWGV5fbbb/f5TB7WSv/+/X05tdqqAeoJs/EfeOCBdmN4jHwuK4fJ+pM2aJbnpplyOGnSJL+NEfu7N1Lutgdi1J0Y0H5SVk899ZRvYzG4JJG2FoPeyJEj2w01AquMSAeGKmQDucZgw2xgZCFEZBQ3YrA555xzqk8NLa0iPyHWZm5Js9tMqbsYTtPQ6L2Qp7OVLYs8NPGJoRtDrDKN1S/Q+BND7wWNjh2rX6AhlsybPDe3XdWQ164SLwYj+/Tp498T5BXhJtvn2OXF4BDyzwojwzAMw2gV/GgLZ/5wTb9upTtq5Hp311WVc4DkOxy494Z2d2zvduMlq/1WZmn8xbh13g1u8SvNXZ4b/pew5Ar59tlr/T1WCwHbqSXdih/X/vUaHw6XhMlFemD3ARu9G/kt/4v/2zsoP0njJ7OGQiWOGbQod+FyZ5lxIx1tjT977LGH/0wacMqiiQ+di/nz5/v/hYULF/rPvffe239q0ITFszDtpJkZU8y6KgP+oEjmUSYsOlXM4E2braUpixUrVvjPsAyBDkSyrPPCaqZsFMX57bff3mK2l4ByjpIu5ayRH03+aMpLkz8aNLKqcSPklWnssOqFuNKRDa8kbGcjHX/ShRvuZXV8Kccs2C4DQyN+4BcdyrLlpQV/Wf1AeHQ6MbQhv8gyxMrnsnJInnPlkeUmVpw1/rz66qu+zjEbFOMkZVXG2CEwACGyRZlz5lRa2rjHM3FLuTEjN0TjBjkVGeNKyliaPPMd2QT8454Ya8TYI5dAXML74TNBU3eIG3EUP/hf4lAWKbtZs2b5GbhpxhUMM7TZDJKzIiFs00kTbTizecN3KkYc4ADoLGQLtEGDBvlPLZoyLWo3NPmscQNF8gN5cY4pPxAj7Vrw19rMdJrZZgL1iDoYhhfC/Ty9V6uzxdKjiuIDZXTjPGKVKb8PwyVetfQLNP7E0ns1OnasfoGGWDJfJD8mz8WUSXuePIdktau8b5BFJoSkbX/ayPJC/gm71rbVMAzDMGLjB4Y4o+aNd7q6gTtvcieNWe/eW9rVzZrb5r//5dfWeYeAOy62dRu860Y/IJM26HPcoevdnPnd2v3AnQzECHluFv++a3tYxCvJb9+uPJdnz89va3fPFdJ/x43up4/38OcUjRi2wc3+PDz+//LoyoDXhV9f58aMWO/94re9Pn82+qDKs84IS6lR7gQUFxRHFByMBShXMoMrb0Za0p8hQ4b4z3q3GdHGh1lQIWVnz0GZtGM4RMlkGwUUQs4yaBSasOhUEX9WPyTRlAV+oviyxJ60Y0DCQHf33XdXXWwmL6w0GiUbRXFGiWc2V9gBwGBF3KUDIxTJT5n8KSsbyfzRoJHVMvKcV6axw6oX6bxx5eUbqwXYQ5z9wzFSYFBmRQEQP+LJRf5zyXcuyhCQF/kN4b355pve8Mj++TEhPIwTGDfZCoS8mz59evvsT+mQNjKfs+QQYzEGVy465ch2kjw3seKs8YdVDOQZeckgAx16zqMJB1G0iIzhD/WDtBGmwP/cw0CCYRu3a9as8Xkh6de4IV4YqIDnuCPetB8hyDO/Yy973AwcONCdf/75XnYwZPBbKT/kne9yCTHqDiD/1AP8wC/aDc4sqAVWAOEPBq033njDl6/UvxDabGae407KHXbccUf/mTTmSJ3Rvqe0aMtU024U5TMUudHIT1GcY8pPzLTnYW1mMc1uMylTdJ5aKaOzJalFj9JQRvfLI7YcIv/ITK39AiHPn5h6b5GOHatfoCGmzOdh8lwbWWnXyHNeu4oMoj+gM8jEBT7FTSPLSwbsdtppJ/9pGIZhGNsaP7Ly/Rk93VuLK2f4rPi0i/v7H/Zy37u3l2OwZPDulfN7Fizq5t1x8fzvpvX290cN33LAB6be19P/nuuun/fw92QgRshzE4Yl8Qp54vnuWzx77tXN7rlCcPOLpyuDRUuWdvWDSgKrhWRQ6G9u3cH/lm3rln2eB50RFB6UuqTCg7KHooSCdcYZZ1TvZpPmDzMHmYGUNXsJJRKlLOtC0RSK4oMyhlGBGaf8DmVfOiErV66MGhbQAfrBD37gjTHMOmPZeaPQhsUMJpa2pxmsi8oCeMYsOiDtKPavvfZa+72QvLCS1CIbWsrEWTjmmGP8J9sWCUXyA9qwyspGMn9CWaVjA4RXq6xq63JRmcYMq16k88ZVlL9Tp0717shLjI8YroDyI55c5D+XfOeSMzY4yBdkuwwMjiIvlHUsCA/jKR12yoFwKJO0OtKIfE6rp5988olPK9tmUCcwugKyLbMeNW4gVpy1/tCxp8w57Jc8pdylLDWEMoY/YrCmjATiAOHZVOeee67PB8oONG44BJlyxlDFc9yRn8Q5Obv0Rz/6kX8ubjBYkC7Sy2+lPtBW8F0uIUbdQU6Qf8pdtqPhsxbEL4mLzMJNKysMhqSXdjekzKrgJMg9LFmyxH9q0JRpmXYjK59D8txo5KcozjHlJ3bas7A2U0ez2kygfsYmTWdLklYWsdDqfhpilWmMfgEU+aNNe5E/Uv/zdOwY/YIyfT2IIfNlMXnOJy/tefKsaVeRQSZE8M5khTEywbZyuEm+m4RY5SWDZoZhGIbRKmy1HCccOGGw5NRJff3/DKJcMH6t+6fJq/x15flr/P09d60MHIUwsCMwiJOGxk2jOWS/yqBWcvApbTBqewdFidnGKMNizBB69+7tt2FhFmmRYprlDwoY97IIZ56mXeHs36L4cMgpzwgTBRXFT5RctiuIGRZgHGEfZQwx/J5ZzJpBklooExZGtbROVVFZAIo05zQw20/Co4PH7LI0hTkrrJBaZUNL2TijuNMJImzyVSiSH9CGVaa80vInlFUMZUBnR+6VldUydTmvTGOH1SzCcqYTK2CMpJy4yF8u+c6FwQCQCZ6F/ojRQ3NAuxaM3nRokSmZucr2SGlyHDufs+op8oDBn9m15AfPZFbpscce6z81biBWnDX+UM8xVpCHGKtYWUNdKjMjFj/IfwxZXFKHMV4JspUKeRAisgMaNxijCC80YGGogOTs0vB3UlYYNhpBVt2RbWKSxr/kgI0GOV+CGcAY7dgqDuMg+ZaEPKRuMrARUtaQSDhinGTAj/Duv//+6tNiNGVapt3IyueQPDca+dHEORax056FtZk6mtVmQtm6WATxStPZQrLKIhZl9cw8YpUpeSFxKdIzkbescinyJ5beq9GxeUYZ1kOZvl4smS+DyXM+mrRnybO2XSWtkydP9n0AdAlxk3aWa8zy2nfffav/GYZhGEZrsNXAUBZ/f+Ead/LYyjZzDJxoB0/kjKI8NG7SWLW2+o9RFygyHMC4bNkyryCFYCTB+IUSJDMwWb4NixYt8p9Clj+hcilGGC5guTXKOP6jmGVdYrDQxAclkWcouVwoe3RM+C3+xAwrhHBxw9Y+dGrKKtVlqDUsTVkAM2/xG+UaCA8Dk8xIL0s9sqGlbJyZJQacZRFSJD9QNqyi8srKn1BW8R8wqtUiq2XlOYtmhtVZQV7o0NJJp+P+3nvv+e2RMFhguBD5iZ3Pee8CZt/yPCRZdzRumimH1F22BpGZy8wanTBhgp8VLHVXA0YTjCesJKH+JQdBYoNhhXJPXmW31ZHZ1x2Fww47zH/SvmIw5KJNxRijJWv7Gow6kBxwkHDYPoh8ZxUNMtWR6YzyY21mMc1sM4EtxMqs+ioiS2cT8soiFrF049hyCEV6ppYsf2LpvdwnzVk6dhjvevoF5K3oymmX6M8xZb4MJs/Z1Jt2TbsKtFGkWcgqC4hZXjKBh5VNhmEYhtEKqAaGOEeILeU4q4et39hybcaTulU+px9bOYPoxQXZA0kaN2m880El+rv23+Q/y8JZRjAoseqp/461+dfRwFCCss3sSma3oMiEChKwH3yyg8E+8CDKUZE/nBkA+CNGGC7gt+KfBk18QvCfPZP5ZH/hMpQNS4h9hkEeeWGhpJLukDJlgZIfImc3pJEWFnAvtmxkhQVl4iyGw0cffdR/pkE4WfJTJiwhWV5F+aNFI6tl5TkrnxsRVkeBme/JdMkWKMxObQQYLzBQXHTRRX6WK4YLmWkfq0w1cjhx4kR/P0Q6ymJA1rhpphxSR5n1i6EYgzHGirL1CwMDxk1mkmJAwqCEP0kkPsQ3C40b8p8VHRjxKfvwSsaduAlsX5JEZl+LgaYRiNwnw+CcgrLI4IwYDLk4+wDS0pcG+YSRijOOQrkRYyLnFoVIOAz8YdAqawjUlGkz2w2N/GjiDDHkx9rMztdmCgykY2AukjMtWTqbpixCsvJHSwzdOFaZplG2X5BFmj8x9N4Q4pLUsWP2GTXElPkymDxv7U+stGvaVfxloDH8fdJNSKzyghEjRng9pZEDj4ZhGIZRhi5nnNhz0wFDN7p9Bm9ww4dsdM/Pb/PnDD35Ylv7dm8H7r3Bfe+y1Y6zeB57trvr09u5k4+uDOb07rnJzX65zf3o4Z5+izn8mPmbyqDR6IPWu4E7b3Kz5rb5ASXQuPmLcevcwOrgjMRL3LPVnWw9x/Z2d1yx2v8/Z343t3Zt5WwgBpj67bDJTfrmWv87BrL+deof/f/8Prwv8SFtrIJiUIgt5kiXbKPXqjBgF6alLCjjKDooJxz4G4Jxhs41hic62Cg57MFLhx7ljxlFGMlA408a+IHRgOXeWjTxQTFlGbg8g/C5Fk1YdCRAZiGj7GFELJsujFainNIBkjCBpfnMwioTFv4x+438x9hVRLIs2C6JtHKP2fFsEXDkkUf6Z+y/TXyEvLBiy0ZeWGXiTF4zQzDNH438aMLSlFeZ/KEDxBYFbNGQNExrZFXjRsjL59hhaeB3GPgwyicJ646Eg1uQPJTywgAs0JGjroX3ALeQVn8xTrPdlKQLgynllyarIPmQFfdaIb3EIVaZauRQ8itN5pldSxw0bpophzGgPWDVAWl66KGHvNFEjAcYnMkvVipQP5ktiiEUI5PUe4xixBM0biRdlAUHYYsb8lLSJfKMEeJ3v/udv0c+4y/GcGnrkJN77rnH/8+s4NWrK/rSM8884w0SseqOuOE3rNjBLzG4JOtXFuQNhhVmayfbN8qU/CJf0tqCZD2T+IlskL/MjCa/OEsH0tJVC5oy1bQbZfI5z41GfjRxhhjyEyvt9UI8iUOs9sfazGKkTqfFBUL5IQ8kXiB6r4C7LJ2tjB6Vlz+a+IisppVXGd04VpnG6hdo/NGkXeNPrX003KSlq1XQyI9g8pzuT6y0l2l7Jc5pboRY5QWSV6LTGIZhGEYr0O2ME7peN27sZ27gTpWBmMG7bXT77rXR/eeibu6t9yoDQx99XFlZc8iwDe6/jF7vvviFje6pl7q7fn02ub333OgO3Huj+18ze7gxB29o/z0XK3J+PquH+/EjmwctNG7+6vS1bsyIDf65xEvcf/yHru6F19r8vZWru7gVf+ji9h600Y3ar+Ke65mX21zP7s4dNXKDW/huN+/+W+PW+f8/+qTLFvf/z+vd3BcGbmr//bLPn89f2M3/T5pamWGDN26RlrJwOOQuu+ziunfv7meYhtcf/vAH9+yzz/oZoyg7w4YN82cJYEjgfqjoafxJAyM3S65/+ctfVu8Uo4kPCtykSZO8EePll1/2hiL2ni+LJqwvfelLfvubgw46yKd33bp13mjC/sz8Vst//a//1Ruu8ANYZi55OH/+fB+XMmHtvvvu3i1GQxTzIpJlweDDbrvt5mfZovB+8YtfdP/5n//pZ2+TpyF5YcWWjbywysT5z//8z72bf/u3f9vqmUZ+NGFpyqtM/ixevNjnRzK+oJFVjRshL59jh6UBecDPMD+EsO6Ql5DMQwz5PAv3i6d8cJPcQ16M/mntEuemkC5WQ1DuDBIwM/8f/uEf/P0k7CNOOFlxrxUJK1aZauSQCz8IKynzdL5B4yZWnGPLWBYfffSR69q1q1/N8tWvftWn6YknnvDntWD8oH4jQ9RPDBC0H9yTet+zZ09vUACNG9L1wQcf+IEVVr1IOXDvySef9G5Enh9++GE3duxYL48ff/yxN+KHhgnyh3YUOaQ8xC8OTiYuseoO7SFGIAmDd9Y777yzhZsivvWtb3n3//zP/+zzPAQD85577unzKK0tSNYzrr59+/qyIk7kJfUU2ZC6k5auWtCUqabd0OSzxo1GfjRxhhjyEyvt9SJhlWk3rM2sD2Tk0EMP9ek64IADvJFUygE0eq+Qp7OV0aPy8kcTn1i6cawypZ7wTOpwrf0CjT+x9F6Njp1GLX3GZmLy3Jx2VcjzB3c8z2tXxY1MVhA3N95441arWWOVF4NZf/mXf+k+++wz94//+I9b6TqGYRiGsa3o8nnnuXPsm1aCb5+91jFYtr2vGDIMw+gI0Olj9h77gQNb1DTKmFUvdPxkCw06x8yWjb1iyOjcpK2waDVkFu22jiNth9U/w9g2MAhwww03tK8MwSjbqis+DMMwGoGsTgIG0DjL0LaRMwzDMFoJ1RlDhmEYhrGtwJgkg0IdCTqAxD3cksIwtncwBjNblq3btjXUQVbOhGcfGIbRHHj3MRDEFmMM0LJCwTAMozPBaknaP7bKZZs6GxQyDMMwWg1bMZRCR1kxxNlPXx69fotzlwzDMAzD2H5ptRVDrJJjMAg4p4Zt91gtx7YtM2bM8Pe3FXIOgdDKq6wMwzAMwzAMwzAMo5nYiqEOzIJF3fwWcjYoZBiGYRjGtoBBIbZJ4WJP/zfffNOvENjWg0Lw4x//2F100UV+ti6XYRiGYRiGYRiGYRgVbMWQYRiGYRiGYRiGYRiGYRiGYRhGJ8FWDHVg2EqObe++Muaz6h3DMAzDMAzDMAzDMAzDMAzDMIxsbMVQB4YBoUnfXOtm/qa731LOMAxje4QzVUKWLFnirrvuuuq31oIzTcaMGVP9VoEDt9nSyjAMY3uFtm/IkCH+/1Ztnw3DMBoB7d/w4cPd4sWL3f333++WLl1afWIYhmEYhlE7V1xxhVu0aFFDt2mPumLonyavcv869Y/Vb+lo3IQw+HHB+LXVb4ZhGEZng4P2BwwYUP2Wzbhx49yll15a/VY7+HPvvfe6p59+2l+33XZb9Uk5OICfuMvB/IbRkYlVv4ztC9o32svzzjvPHX/88dW7hmEYnYtDDjnEnXnmme6ee+5xZ599dvWu0WgwmKGr10pn022YbFdPfjWSjlwW9cphbFotPq2G5U/HppXbsdigT3COb9++fat3GkPUFUMM+gwfstGdOik70ho3IQ/estL17rnJTf2Xnu6J57tX71Zg0OiAoRvdky+2uQWLulXvdh7qXTFEZ/7yyy/3iiwGzFWrVrkXXnjB3XHHHVvMdEIYTzvtNLfXXnu1uwlng2r94UXPM5k5T2V+/fXX3YUXXui/aymKD9DYH3HEEe0G2VdeecXdd9997rnnnvPftWjTzoHbYVg33HBDqdliBx54oDvxxBP9SgPCSsuXWGGBpixi5KHEuVmyoYlzkRttnGPJYTPrhcaNhmaGBeQJB8ffcsst1TvpPPbYY77MOPh+5syZ1bvlOProo91NN93UHufVq1f7cq9lxQ8dnCuvvFIV91qJkc8amZe0JAllVeMGmimHRj6U2ahRo9wjjzziFixYUL2bToz61SysXjSvXtA5YwA8rZ0r0m2y8kYgn8866yz1e7kIja4FzdIhNUja69X9tP5odaR6/YFY+k+zMHluTruqISuv0/KAMIm35NPs2bN9W9WI8sLPiRMn+v/5TdF7tbMheR5TL0a+MZrVOjEhhm7TiHTVCnHJ0+vknd2siRxF8Qlphp5ZJj5lqFcOY9Nq8amVzlJeHYFGlUUttHI7VgR+lXlfkFYmSKOPhJT1p4iWP2Po8d+0uVfe7ObmfX4lYVBo3NjP3ODdNlbvGFpQcpnRdNRRR7l58+Z5gXr33Xd95brkkkuqrioCd/HFF7tevXpt4UY6Alp/gFlUVKh6KIoPSEO/fPly72bOnDk+3GuuucbHV4smrFtvvdWn/f333/du6GwR1tVXX111oeP000/3+UOcs4gVFhSVRVYeTp48ueqimGbLhibORW5i1QvQ5qE27cSNcDEEJNHER+NGQzPDKgsdCurF3Llzq3fKM378eP95/fXX+/jyoq1lUKhRIAfSjsXI5zL1FDC64EYutslLkuemmXKYVleMLaHtoZ0aOnRo9U42MepXo7B6UaHZ9YLw6JjxfkvrlGh0G0jmDXIGL730UumyyEMTnxj6D8Qq01i6n8YfTdrr8Seph8fQ/TTEknmT5+a2qxqK2l4m+9x5551+RSOGFcJNDubELC+M2dOmTfPG7QkTJlTvGq1MK+s2tUD91up1zaBMfJpRFq2WP0Y+Vl6tQ2cui22VdulnMaGl0bT8wNCPHu7pvntHb/fh8paPaocCpfjBBx90V111lR9ppEPPDCvuH3zwwVVXzlcAuPbaa9vdoECjEKMsa/1BqIGOZD0UxQeOO+44r7TzDDfEiziipJ9wwgnejQZNWDfeeKNP+2WXXebd8EnYNB5lYPSZUWB+n0WssDRlsc8++/gZcWEeMpOTdNPJ0tBs2dDEuciNNs4a2dDEp0zaDz/8cO8HhoAkmvho3GhoZlhluf322329oLxqpX///r5elZ1J22iQFWbQPfDAA14WIEY+a2VeeOutt7wbudIGzfLcNFMOJ02a5Le4Yu//RspdZyFG/YqN1YstaXa9wFgKGE7T0Og2kMwbVmoCvy9bFnlo4hND/4FYZRpL99P4o0m7xh+NHh5L99MQS+ZNnpvbrmrIa1eJF4ORffr08e8J8opwk+1z7PJicAj5Z4WR0fq0om7TWbGyMAzD2Aw6FjocZxc2Gj/awpk/XNOvW+mOGrne3XVV5Rwg+Q4H7r2h3R3bu914yWq/lVkafzFunXeDW/xKc5fnhv8lLLlCvn32Wn+P1ULAdmpJt+LHtX+9xofDJWFykR7YfcBG70Z+y//i//YOinHS+MmMslDB32+//bziHy6Zk9lYYoTR+LPHHnv4T5mFVSua+NDxnD9/vv9fWLhwof/ce++9/acGTVg8C9NOmplNx4y8MuBPkRJUJiw63My6SZvJpymLFStW+M+wDIGGKVnWeWE1UzY0cda4iVUvNGE1s15o3Ah5ZRo7rHohrhg5wisJS3DFKES6cMO9LKMIZZQFW6lghMYP/MLYkCzjWOAvW+0QHgYJjLDIyttvv+2fx8pnjcyHkOdceWS5iRVnjT+vvvqqbyOZKYzhmrIqYwgLIS2cNSUyRpkwEzukSDY0cqiVVZ5LWFxpcpgXZz65J8Y+MRbKJeBHeD98FhIj7VqsXmTT7HoxaNAgr7uE4YVwP0+3oczCGfoCBlUMq+Jv2bLIoig+UEb/ySNWmfL7MFziVYvup/FHk3aNPxo9PJb+oyGWzBfJj8lzMWXSnifPIVntKu8bZJEVPGnbUjWyvJB/wk6TM226suDdyRWSdo/3PO/d8P3NezOkSJcIf0daxD/5Xpa87cFY2SfhkT/oL8lyJW7EUdwl8xD33McNfnCJ3sElqwfFXXglIT+1eku9255p0p5WxuE9rV4nFKWrSDb4TV7+xNYzcZenhxflYZn8KUp7kRxq0ZZ7kRzGik/SH/6XfBPkWV6bECNdHbW8oEhWQeOmKF3Ab6QMQr9CNG7yKFMW9dpJKH9+myyjrPt59QI08cnLnzJp16J9XyBv9HHZujZN16v3vZPEDwxxRs0b73R1A3fe5E4as969t7SrmzW3zX//y6+t8w4Bd1xs6zZ4141+QCZt0Oe4Q9e7OfO7tfuBOxmIEfLcLP591/awiFeS375deS7Pnp/f1u6eK6T/jhvdTx/v4c8pGjFsg5v9eXj8/+XRlQGvC7++zo0Zsd77xW97ff5s9EGVZ50Rltmj+AsotXQqqEBUDBoxmd2XN1sx6c+QIUP8Z71Lg7XxYYZcSNmZlVAm7VRcGia22KCzMGXKlOqT+GjCosNN/Fn9kERTFvhJp4jtF0g7Ly5mxt19991VF5vJCyuNRsmGJs5l0hVSS73QhNXMelFGnvPKNHZY9SIde66wjJKwrzz7y7MUFwMWy3LZFgWIH/Hkoqy55DsXdQ5QLuQ3hPfmm2/6FzZnK8SE8FBcUErYJoa8mz59evvMYDFWNDKfkzIvoBihFHGhYNEWJclzEyvOGn+YeUiekZdsAYOxh/OjUP4oSy34TVowjKEEUvZr1qzx6ZS0aWUjTw6FIjeEhYETCIs4kTbeCUJRnDGEcU/KmHD4LpegqV8x056H1YtimlkvgDJFD6kVyowZ+GHnhjiQDjE6Z5FVFvVSq56QJLYc1qv7CXn+lEl7UXyK9PBY+o+GmDKfh8lzbWSlXSPPee0qMogxZccdd2w3DPEpbhpZXmLE2WmnnfxnSNl+Uy0weYK8AXmHyyWQ1iJdgvukk3Jnq+X33nvPu+N7mfe3Fokj9ZR8olyRNQG9Av2COOGOyQmcn5WEvEXGyWfkE72D/2XXhRh9h9gUpb0IrV4n1KtnQl7+xNQzyQfyI08PB/EnLQ+18dGkXSuHGiT8vHIvksNY8Un6Qz1K+sN9nhe1CfWmq6OWl0ZWNW406dK08xo3RZQpCyk/7tdiJ2ESBjoLekrIV7/6Vf/5q1/9yn8KRe1YUXyK8qdsuxqTc845x382Y7UQtPHn+zN6+lUyw4dsdCs+7eK/w567rvL3YMGibv4SWGnz42tXuVHDN7gnnt9yMGbqfT3b3TJwxKAPAzHh7/PcyAUSrxDCe+JzfU2ePfdqt63iILy1uJv7xdPd3f/7Z2vdkqVd/aDSuLGVZ6RBBoX+5tYdKjc/558mr/KDVZ0NKg+NelLI6QjQSFFpULIfeuih6pN00vyhAWZ2WtbMNmkgs8AvlHcoig8Vl4aBUWO2B+ClJsr3ypUro4YFdI5/8IMf+P9JX3KWZEy0YTG7jQ6PzNAMKSoL4BkzLNkORBpLXkjcS5IXVpJaZEOLJs5l0iXUWi80YdVSL/BL/Csrq9q6XFSmMcOqF+LJBRgrqPtZTJ06td0tBiKUA6DTKHkqhN9RCvgdhzwDW6mIP7QzhEndlHv1wv61xE2MOXmzehuRz2ky/8knn/i2FflFLlCGMc6jtJJu4qhxA7HirPUHow8XZfTd737Xd0QoyxkzZlRd5COywLlTYVlQP8WgVEY2suQwJM8Nh2jTZmDoFMgH8pmZUsRRE2c+pc7QNsn9EOIg8ciqX7HTnoXVCx3NqheAoS02xxxzjP986qmn/GcaWe/lGNSiJ2QRq0wpo3p1PyjyR5v2In+K9HCIofuV0echhsyXxeQ5n7y058mzpl1FBnlf8M7kvKDevXu7I4880rvhOe6SxCovGTRLo0y/qVYwOELeu1KjS1B/5N1P+Ut9knd8LbA1ThrkSVgm5DEDebz3qbd8J0zKne38BNwkod2hXmMUpCzQ40X+IQyr1r5Dkqx0aShKuwZp34r0OiFMFwPG4QCvRjaErPzRxidMe1ZZSNnl6bShP5DMQ218itJOveX3GjksoijOIVn5XKZe5KH1R9MmxEhXRy0vjaxq3GjqoKad17gpgjhxFZVFmf5gHkzM4H0e5gcDRbzPk2nIa8c08SnKH23ay1L0vkC20FcYiMrLt3reO0m2Wo7DwInAYMmpk/r6/xlEuWD8Wj9ownXl+Wv8/T133XLQBsIBoKwBG42bRnPIfpUVSgwehSS/dwZoYM4//3xf4VBYQ1Ck2WcZpapoBlWWP1Qk7mURzhZJuwhbKIoPB+DyjDBpeBmBlw4QL4eYYQGVlUpJw83v6XyVGRkvQ5mwaNx4oSQpKgvgxXzKKaf4WQkSHttwMPOQhjRJVlghtcqGFk2cy6arnnqhCatMveDFACg2cq+srJapy3llGjusZhG+WFFmBZRayoiL/OWS71yiAFBePAv9ofMJMQ8jZAY1e9ojLzKrmRktaTIaO5+zZB55QKFm5jX5wTOZcXzsscf6T40biBVnjT8oVijS5CGGzIEDB/q6VGa2NEoj5U76QkLFsIxsZMlhSJ4bjJmkC+VULjoKILOTNXGORey0Z2H1Qkez6gUUvffLQrzo1JHPoayE5L2XY1BWT8gjVpmSFxKXWnU/KPJHm/Yif4r0cCjSfzSU0edjyXwZTJ7z0aQ9S5617SppnTx5stfz2IJG3KSd1xmzvPbdd9/qf+nk1dMYPPvss37gVd6VpJ0BrRCNLhES1ifyHnmKCXHhnY7hjkvaFAaRQbYsFP1CeO2116r/NYZQFsrqLVqK0t4IwnQlBzLLyEYz8kej08bKw6K0x5TDMnHOyudY8anFn6w2IUa6tLRaeWlkVeNGUwc17bzGTSxi2UlkhYzIE+9d8iJN78hrxzTxaWb+lIHVQky+e/jhh6t3Gs/W+7Rl8PcXrnEnj61sM8fAiXbwRM4oykPjJo1Va6v/GHVBZeNwzmXLlnnlOYSKQmNHhWKrFpRgZmXBokWL/KeQ5U/Y8WC0VS5gKT4dNfxHac+6pKHUxAdFm2c0JlxUcDqt/BZ/YoYVQri4YR9IGqKyHa4y1BqWpiyAmQ/4LS8swuOFRAMlo+9lqEc2tGjiXCZd9daLorDK1gt+C7zQapHVsvKcRTPD6qwgKxg7MOBg1GGZPjNnMGahtIjsxM7nPJln1g7PQ2bNmlX9r4LGTTPlkLafmVwo0hiH2HZswoQJfoZ5UhnvaNAZQzaSV9ltmWT2fkfA6kUxza4XbCFG5zUWzJCEZP4IeWURi1j6T2w5BOKCP8SvHj0zy5+yac/yh/ukOUsPD+Odpf9oIG9FH0q7REfaVu8Ck+ds6k27pl0F2ijSLGSVBcQsrz59+vhPVjY1A8ozZMaMGV7GkXXelcy2ZvUM78qQWLpEDBi8ZBBzyZIlvq+TNORuz9Sa9mS5Qyy9rqPpmdo81MSnWfVie5X5mOnqzOVVlC5NO699F2hoVl3mnU3a2ToPZBu5vJW8taLNn2alXUBnThs8bCSqgSG2ehu8e+Wsnu/d28tvNTfjSd0qn9OPrZxB9OKC7IEkjZs03vmgEv1d+9e27RtnGcGgxKqn/jt2jm3kGHmlI8YIKTOfUHJD5RnYizHZ+WQvRxDFucifkSNH+k/8YeagXMBvxT8NmviE4D/LCvlk7+kylA1LkO0ymkFeWHRgSHdImbKgAxjCHt1ZpIUF3IstG1lhgSbORW6K4gxa2cgLq9n1oqw8Z+VzI8LqKPCCTqaL7VSAmcuNAMMWxquLLrrIz4DGqCWzXGKVqUbmJ06c6O+HiBFFlCWNm2bKIfWPGeEo0QwmYMhKpkuDhEVcsmimbFBGzDajY4B8hJekTxNnkNn7YuCrBasXnbNeAJ1jDFNFcqZFtoB49NFH/aegKYuQrPzRotElhHrKIqRMnMvqflmk+VMm7UJefIhLUg+Pqf9oiCnzZTB53tqfWGnXtKv4y0Bj+Pukm5BY5QUjRozwg2lZRp16yzQcEMCftAF64ois865E7hkQxB1hA2kp0iWaBQN9xI0VXQzkMrBL3ENEn0jqKxjyOjKatAuaco+h18WUjRjxkfZHZDdJmTwsik9R2mPJYZk45xErPq2WLqGjlVeRrILGjbYO8j/xyGrnQeNGQ1FZxOwPMjBEe8fqHcqK70xMKYM2Ppr8idGOaWFyFO17IwbC8uhyxok9Nx0wdKPbZ/AGf17P8/Pb/DlDT77Y1r7d24F7b3Dfu2y14yyex57t7vr0du7koyuDOb17bnKzX25zP3q4p99iDj9m/qYyaDT6oPX+rJ5Zc9v8gBL8/+2dCbRVxZnvixkE1AsKoggqghNIHAhKTNS2NTggbZySzlNM0mvZGoM+taO+VperNQ7pxlajdlwvnTjEfhFNbI2tpDWtmBiHaNsqxqhElogiQXAWUMDnr+75LnU3++xd+5x9zz333v9vrb3OObXr1PhV7drfV0OMn7+e/rEbXjHOWLrMP1vd2dZzbG933Tmr/PfHFvRxa9b08t8xMA3d5FN/bhH/w5D1H1d94L/z/9Dd0kPeWAWFUYgt5siXbaPXrNjZTJaXotg+jAxcObQrhMZHx0MnSCOhwbA/M42JBkaDoVOEmHDSIAwaLEtPY4lJD42fLQLsHoT3Y4mJi5dMsKWvvAjQkRTNl3UAwMuxxQls20BHWCQuwmNmJOXPzL48knXB8ljyihuzIdg+gn0u4ayzzmrXMWfFVbZsZMUVk+YYP2W1iyJlGFIt7zyc2L6CZbTJgUhMemL8GFnlXHZcMfA/lL8MwpKEbcfiwS9YfVld2JJk4CWftha6AX4hrf0yOGEWieWLwQGyklZfYOVQLe21Qn5JQ1l1GiPzVl5p8sxMG9IQ46eRclgWtD1mCTNARblofTDKUNIAMbIRI4cxfizv1BeHn1p6KG/Le0yaAVm66aab/Hdmla9a1Tqmevjhh71CK6Z9lZX3elG7aGy7AOQMZWlaWiCUH8rA0gU2tjHwx6qOWuvCyCqfmPSYrKbVV5HxT1l1WtbYLyacmLzHhFPrOBw/aflqFmLkx5A8p4dTVt6L9L2W5jQ/Rln1BVZWPHv5TJKVrxhog6wE4/9snUNdAEYw0sfKWvJOfu2ZzrPfZl8z4x0sneQrbSzBffJtdW1jiaSslwF9Bqt/qU/OrsJ4aUY8Jn5Yvkyew7yb8Y+xhOXJxt3IJ9/xH7qHbcfylxzbNGLcArF5j6l3IF9Z47qYfOXJBsSWT156Yuoib0wbW4aQl54iea8mhzEUlfmsci4jPZAXTkyfUGa+oKvVV8z7V4yfmHxRXvzO6udj/MSSVxdF9SR5MJmIFbqMMVnRE+q/YuQnJj2x5ZOX9zJhtRIyhZGqkfQ56sDeF02f9okbvlmrIWb0iPVux23Xuz8s6uNeeb3VMPTWO60ra3Yft879xZS1brut1rtfP9nPDR38qdt+m/Vul+3Xu3+b199N3W1d2/+5WJHziwf7ux/fvcFoEePnm0eucVMnrvP3LV3m/533e7snnu/r3T5c1cu9/X4vt/2o9W7y+Fb/XA8/3dcN6OfcPpPWuYWv9fH+vz79Y//9rXd7tXP/nxf7uK2Gf9r2/xWf3V+wsI//Tp6amXGj17fLS1GOOuoot8UWW7h+/fp5i3R4vf/++37PRayjdEjjxo3ze3TSgeFuHRLEhJMGSm4a+z333FNxyScmPTTcM844wzfYp59+2g8AOZegKDFx7bfffm7PPfd0u+66q8/vxx9/7DsI9u7mv7H87d/+rR/sEQawBYGVIYf6kpYicY0cOdL7/dOf/uQHxXkk6wLjw4gRI/wMbDrQ7bbbzv3hD3/wB7NRpiFZcZUtG1lxxaQ5xk9Z7aJIGYZUy/uSJUu8W9p/Y9IT48fIKuey44qBMiFMwkgSth3qDZL1xcCNe8zyMWhP+AndwAZ5af0S+xGTL2auUKcMCpnJ873vfc+7J2GPeeKplvZasbjKqtMYmeciDOJKyjMDLIjxU1aay5axLGh7KJ54ttD/Wh88YMAAr0iCGNmIkcMYP+T9zTff9C81e++9d1td4fbAAw94PzFpBtJGf4Oskm4Li1lKhBHTvsrKe71YXGoXjWkXgIzssccePl8777yzf+m2eoCYsY3x1a9+1Yfzn//5nxs954qMJbLKJyY9ZY1/yqpT2gn36h37xYQTk/eYcGodh9fyXtBIJM+N6VeNrHDwx/2sftX8mDLI/Fx66aUbzV4uq75Qcn/jG99wn3zyifv+97/v3nrrrcqdDWTlKwb6WRRipHebbbbxyiqUlmPGjPHtkmcqz1x7xnIxXmCWOuVDvw3UadZY4uijj/ZKNvIOo0eP9veTsl4GlFPv3r29Qo5tg6ir+++/35+lgRLX8oU8W94tLYsXL/bfuZ8cd9v7w7Jly9q5x4xtGjFugdi8x9Q70E6zxnVljTNjyycvPTF1gb+sMW1sGUJeemLynieHMcSmOaacy0gP5IUT0yeUmS/oavWVJ6sQ4ye2DVqZceE32c/H+Iklry6K6knyYHU5YfHfs88+u+LaSoz8xL6fxpQP/rPyXhYYBA8//HD385//fKOxSEfTa8iQIT1j37QCfOe4NQ5jWXdfMSSEEF0BXpyZ7cFe8cD2RR2l6KwXlAK2vQqKE2a52AxFIYTobvBiywG8vHQDStlmXfEhhBAdgc1UBhRIF198cemziIUQotHYisnYlTVCiNqhvWFwSq5qbgRRZwwJIYQQnQWKRjMKdSVQDpD2Rj/YhRCiUdC/YQhimxuM4MzMFEKIngSrOej/2O4GhY6MQkKIrg4Tf1BSc96NEKLjYatDVjx1hu5IK4ZS6Corhjj76S+nrG137pIQQgghhBBCCCGEEELkEZ73ZGetsPsF22rNnTvXuwshuicyDKXQVQxDQgghhBBCCCGEEEIIUQvhlpisWGD1Aish582b592EEN0XGYaEEEIIIYQQQgghhBBCCCF6CDpjqAszdMI0N+brV7gtv3hCxUUIIYQQQgghhBBCCCGEEKI6WjHUhcEgNGrG2e6dZ+a5xbeeU3EVQgghhHHDDTdUvrWydOlSd9FFF1V+5cOe21OnTq38aoUD9n/84x9XfgkhhBBCCCGEEEJ0LUpdMTThrF+43b//TOVXOjF+QjB+jD42XoHTDHTFNE+fPt2ddtpplV+1Qzi33HKLe+ihh/x19dVXV+50PVAmkocsYvyElFXO3R32uC1Srt0ZyWH9qAx7NjvttJMbNmxY5Vd9cAgr4dnhrEIIIYQQQgghhBBdkabfSm6r6ae5YVOOSt0uDTe2UmNLtWYiK83NyuzZs90xxxzjlZ21su+++7pzzz3XDR8+3CtYOazumWfijYA9gaxyxg2DyC677FJxaQ9lymUz3Slvc+N/Bsrq22+/3bvfe++97vLLLy+sxDQleXhh5CNOEUey/JqpDLuKHFq44aUybF+GxIE79y0MtdWNefLJJ93JJ5/sr+RqoeOOO65tQgPlmLzPyiD776233lpxFUIIIYQQQgghhOi6NL1h6O3/uc+tem2Be+/F31ZcNjBozES3+eTpbuDIcRWX5iArzc0KyjCMOE899VTFpTgzZ870nxdffLFXrF1xxRXaaidBVjlPnjzZHXrooW7s2LEVl3R22203/7nXXnv5zxAUySirAcPcs88+6/bZZx935ZVXereiEAbXY4895saPH+8uuOCCqspusTHLly9vK0OUzs1Shl1JDlWG1cuQMpgzZ453f/nll70/2irxf/nLX674EllgxDv11FPdwIEDffm99tpr7oADDtjIOCSEEEIIIYQQQgjRnWh6w9CS2y9yL//g627NnxdVXJqfrpjma6+91p1++uleCVsrLS0tXqn26KOPVlxEknrLGcU4KwZQCE+aNGmjFVmHHXaYDxtFJ4Y5VnCh7Nx22239ORlFIQwL55prrvHbKB1//PGVuyKPlStXtpUhiuY77rjDl+FBBx1U8dE5dCU5VBlWL8MzzjjDl8XNN9/s02L+TjnlFBk2IsGABxdeeKEvP1YFvfjii944VHSFmxBCCCGEEEIIIURXwRuGOPOHa9cLH3Qte81wu5x3X7vfwHZt5m/S9x53479za9Wt0kbN+DvvB7+EleYvyw/fLS67Qtg+DjdWC8GoGWdX9ZtHTL44F4k0JtM88pBTKz7y09yMMFMa5WR4JWFLMbbYQRHJDHn84FZtm6KPPvqo8m1j2K4nZmsp0sX9WhWblhfiIp22RZD9BpSx5o+42HopbUsoCPNOWGn+svzklTNbR+FmCkoUu9X8rlq1yhvfjjzySH/ORahMJh6UxGyZFCqr7777bv85YcIE/1kr8+bN85+jRo3yn5a+rHKGvHrnO24WXlq9I3NcIWlulAF1aWERb7g1F1BXlh6uZHrC/2blqxbeeOMN/zl48GD/KTksjsqwtQzJN/9jhVByZeYLL7xQ+dZKXhukHZHXMO+4JeWd/OEvzBPhGmltMnSz8iN+4uGyOLnIk4F7I9opK9AwBIVl9vjjj/vPtJVcQgghhBBCCCGEEN0Bbxh655l5bvWyP7m+Q4a5lr1nujUrX3fvv/Cw/71VYPzAH9eHi59z/Vq29gaZNKPP5hP/wn2w8Im2MPCXPAcoyw9psbj4nmTV4gXt7n3wp9+3+ecqiv0vK1+4t+xxWLs0j9h/VnSam5FXX33Vz0DnQjFWDWaoT5061c2fP98rIVFGMosdUPShLOTicG8u+81lij4Uk/Yf4mPbI7Y/uuSSS7xbyNZbb+2VoqxAqgXLD0pEtrd7/fXXvcKQ35YGsLyzRRNxosQNlcDGgQce6J544gkfBucn4S9UYEKWn7xyRiEc3qOMzT9XEpSW+++/v1cYm5IcNt10U/+ZXHlgCs9ay7Maluasco6pd77jRlj4wfC09957V+7GQ91R7ih6SQdhrV692ivpUTID6TnxxBP9d+7jb/fdd2+3PVdMvmrF6ujDDz/0n0B8XJLDOFSGrWVo29QtWbLEf1Yjtu/N6ueBre3M4BXmKS1feZD+G2+80ffzbHtHnHzHSAaNbKfE+/bbb/v/8cxCbqwuSJsQQgghhBBCCCFEd8Qbhhbfeo5b/ebL3mHtByvcKzf8jVv0k+94AwcGEXj/pd95f1zc/9MPWxWtQ3b8vP8MWfLzi/3/ud6cd613a5nSev6MkeUnjMvSFbL8N7e0u/f+H+a3+eeCtBU84cWqIyiSr+UP/rgtzW89dofr1W+g22zyIf5eXpqbEZSMtkXTK6+8UnFN56qrrmrbpgilIUpEsLM0uFCscdlvLlNe2rZPtl0P2x6h1EP5mFTMMvv9vPPOSzUaxRDmB4UfaWYVCvFZusO8c98UiShMk1x66aX+/1xspwamwDSy/OSVMytxwnsoN80/VxLONEGZ+fzzz1dcWtl+++0r3zoGlLWwdOlS/xmmuVo559U78sJ33NjCCT981gLyBuEZVyeccIJfaWArKmbMmOGV8Mcee6y/jz+2JiO9tsogJl+xhIZSwjjppJP8qrrbbrvN35cc5qMyzGbhwoWVb+kU6Xur9fOAwRWuv/76dnmq5Rw5ymfu3Ln+O0aYpAGs0e2U/2M8pg856qijKq5CCCGEEEIIIYQQ3ZeNzhhiNY7x0pyvuGe/2zpjdsCI7d3oYy/y26pxjT1hjnfvN2wb/xmCkcTAiJNGjJ96CFfwpF2WzyL5CtO59Jf/6D979x/kP7s7KEQNlGgGyjnOYuBCIcdlv7ls+zFT/ofhmFIv7YB2zilCMVgvocIRgwNpAgwSzIC3bY7MCGXbpIWEabb8JInxUxaUDflACRpSRnklMYU8xhUU7qFCPqRaOefVu23VZG5GUlEeg20JlTzjKqwPFMbUPQp7u2xlwmabbeY/Q6rlK5bQUMp/WeWC4crqSnKYj8owm7xVLUX63tBP2M/DI4884tv/ZZdd5rdtI81mLC6bRrfTQYMG+W36CMe2kRNCCCGEEEIIIYTozmxkGKrGDt+63rV87lD3ycrX/YqY2FUxdkZRFjF+0lj/8arKt40JV/CkXWbkqTVfomvDlkQc7s7qF5SkScNENWLOrihyvkVIuDVWLVTb/ggFKyQVvTGYQp5tnFCaopAPlcedCSstaoF8YOhKXqzeKJvQUMoKDOrinXfeqdyVHMagMtxAWIZsawdsndcIWOEza9Ysd/PNN/tt23bbbTdvLMZIlEWzt1OMXRgR6ddYTcUKKCvTRYsW+U8hhBBCCCGEEEKI7kaUYYht2dhS7s/zb/LbqGFYWXb/Dyt3s9li2lf95/t//K3/TCPGTxpr3mw9y6fv5lv5z6IUzVd47tDI4OwlkQ/K3eTWRTvssIP/NAVnCApZU4KWDWdIMCOdMy6Y9V5kO6SvfrVVVh9++GH/mUaMnzRsS6haFb2sbkDJyfk8YdnZ+TovvfSS/wzJK2dTyKN4R2maXI2TR169V1Nuo3ROEiqYSXNyuyjOTiGuLGU+h/2zsgjlMuUVXrWudImVVVY9AMp1kBxuQGXYnpgyxJBB+8J4ZO5pFO17s6CNUL5s28Y2b9QH5R+2ubx2GkNHtNNqWL8Rlg9nLcGDDz7oP4UQQgghhBBCCCG6G322OehbF23xxa+7gVuNd32HDHO9+vZzQ3f+glu/5iP38YrXWj0NHOJa9jzC9R3c4nr37f/Z/f3c1oef6davfv+ze0P9dmzv/eEhN3za8T4Mfm+2+8Fum6P+3g3Ycqx7/4WH3dJ7r/JhxfgZNePv3LApM/19S5f577/5KPfR4me9v3WfxT98yl+5TUbv6gaPnew23e0A74ft3VYv3Vj5mKRovgaO2M4NHb+Pa9njsM/+d7jr1aevW3rPHF9OsWkuE/I8dKdpbvWyhe7d5x6ouMaDMvGQQw5x++23n1cUbrHFFm7kyJH+99ChQ71yk7MecEfxanAfpV3oBviFe+65x3+GoCycMmWKV7gRF1sQofxHafmTn/yk4qsV0nXWWWd5ZR2KwCKgKD766KPb8tO3b1+/XdnKlSvdW2+95f3069fPHXHEEf6A97Vr17o999zTzZ4927333ns+35QBh89b3q1MzjjjDB8uytCf/vSnPqwYPzHlDO+++65P16677urLl7LCz/r16/0B85ytgl+2dDJ23HFH78fcR48e7RXFHKBPXKSP7yhaOWMkJKuc0+o9JKacIa/e8YtSGbc99tjDp50to9jaafDgwW3xk8fQD3GvWLHCnz9j9UX5TZs2za9w2nnnnX16+B95eeCB1vaxatUqXx6U86RJk9r8HHzwwb7OYvNlZJUh9UUarT1QR+T1c5/7nN+uyupbcqgyhFrKkLJB5jEgcZbQhAkTfBi0M8Ij7zF9r+U9q59nS0naieWF/1Den3zyiTfIAe5Z7ZR2FObRymHZsmXt3Mtup2nlHULYVj70P8gi8dx7770VHxtI1pMQQgghhBBCCCFEV6T3oDET3eaTp7uBI8d5hyHjprT7DWzLtvw3P/UGlFEzznbD9znWvbPgv9zaD1Z6A8iwKa2HNfMb+D/X2g/fdsseuMGvxjFi/AydsG/bfUuH/Sa9xpo/L3JvzrvWhzl0ly+1+YklNl8G9wZtO9HHtW7NRz7ddlZSbJqbCRRhtlUYijCw3yj1ymTu3Ln+0HIgfBSObAt1/vnne7cQtlFitnwtW5+R7jA/HEDP7/AsDWbasx0Sykqb+c7McJSKzHA/5phjvD+L38qE++QhPA8kxk9sOTMTnsPuUaSySsf8FAEFLYe0A/9lCzjK+cwzz/RuIR1dzhBT73xn2ygLky3BnnzyycrdVubMmdPmZ//993d33nmndw/ri9VMbHWHP/JNWFzjxm3oyzA8sB0VqwQszVwDBw7092PzZRQtQ0s3K14kh62oDNOJKUNkHqMa7siwxUN5UKZQpO/NoqWlpV1eSA/tiDZnxLTTGMpup1kQF+WzevVqHwYrnDAKhfUuhBBCCCGEEEII0d3oNWTIkE8r30UVJpz1C2/sefa75RpL6oWt7TBovfPMPL8NnhAhKDfvu+++ttn8QnQGksP6URnWB+WHsQ5jH2B8LmL4YaUYRkFgBRbGI9WHEEIIIYQQQgghujJRZwwJIboerBhgi6nw7AwhGo3ksH5UhvXBtnlmFKoX6oLwyj7rSAghhBBCCCGEEKKRaMVQBM26YmjohGmuZcpMt2rxArf8N7dUXIVohVnunJdhsA2UEI1Gclg/KkMhhBBCCCGEEEIIUSZ9+vfvr430cxg+7Xh/5tCy+39YcWkOPl7xmnv3uQfcR4ufrbgIsYGnn37aH9Dfp08fHZQuOg3JYf2oDIUQQgghhBBCCCFEmWjFkBBCCCGEEEIIIYQQQgghRA9BZwx1YdhKbszXr3BbfvGEiosQQgghhBBCCCGEEEIIIUR1tJVcF2azXQ9wW37pRLdu9Xt+SzkhOgIOvD/ttNPc1772NTdixAi/rZUQQgghRCNgHHLBBRf489WGDRvmnn/++codIYQQQgghhBC1UuqKoQln/cLt/v1nKr/SifETwmqY0cd2LdtVV0yzEGmgjJkzZ45XxmyyySb+agTnnHOOe+ihhyq/REehcu66TJ8+3dedXTfccEPljuhJIAcY7oVI0p1kY+zYsd4gtPvuu7tTTz1VMi+EEEIIIYQQJdD0W8ltNf00N2zKUanbpeHGVmpsqdZMZKVZiK4EyhiMQffdd5874YQT3LXXXlu50wrKaDMsmJEBZZRh99OuouTFFYOtfrrlllv8/7OU6VtuuaX75je/6f3ce++9Ps6i1FI+V199tdt3330rProu5JM8U+ZpWN5DBV9aGTWSvPqKpaxwsnj11Vd9u+Ravnx5xVUkyZNDaFS92/3wqre9z5492x1zzDGly1dIGeVTpO/N47jjjmsLh775ootqm4gTky/SfPvtt7fFdfnll/tnQ2dB+khrljwbWbJRJJwsGiUb8+bN82OQWbNm+d+TJk3yn0IIIYQQQgghaqfpDUNv/899btVrC9x7L/624rKBQWMmus0nT3cDR46ruDQHWWkWoivx7rvvVr7VxuOPP+4V14899pj//eKLL7YpszuDI4880ivKVq5cWXFJB0Xt9ddf70488UQ/S/nZZ5/tUOW7lQnlNH78eL9lTr0Ku85m8uTJ7tBDD/XGxSymTp1a+SaK8MILL7grrrjCX3ny3JOJlcNGUmZ7x1jxzDPPuKeeeqri0pzE9r15YHRgxcjAgQN9Gb722mt+RWutxqEsMFaQZiAungP77LOPu/LKK71bZ1BEnrNko5naRS2ysXTp0so3IYQQQgghhBC10vSGoSW3X+Re/sHX3Zo/L6q4ND9dMc1CpPHoo496g8jEiRMrLsX48Y9/7BXXNqP4lVdeaVNmdwZ33323O/bYY93pp59ecdkYZoOjqB08eLCfHY7/c8891+elo7AyIZ5rrrnGr9I6/vjjK3e7Lx999JHbdtttu8UKKSFiKbO9s4qT/qzZV43F9L0xYMyACy+80JfhySef7CccYBwqeyXPYYcd5ssVQ5TVFwYi+ixWkzY73VE2rJ386le/8p9CCCGEEEIIIWrHG4Y484dr1wsfdC17zXC7nHdfu9/Adm3mb9L3Hnfjv3Nr1a3SRs34O+8Hv4SV5i/LD98tLrtC2D4ON1YLwagZZ1f1m0dMvjgXiTQm0zzykFMrPvLTLBoDs4kxQqDQZ7YsFwoc+x7Oysbdtoix/yQVS2yNYtub2MV/QvL8EKe5kwa2DkputUK8xG/++G7bsoTEpBkIn7jKmEXNLF4UYbGw5UsRknkvkua0uLLyziqLPCUZZYyiFoVt0bzEkBem3R81apT/tHKh3jGgmKzZb4PtlUw2yH9SNmLKmS18ktv4pLlRxsixhUW8yCuY3JoCF2Wq+eMKYbY/St2ZM2dWXNqT13b4zj3yxX2uetp7GkVlrBrJcLLKEGL6jTzIM//nM8TCtvRTv8iVlR33+I1MGfix9CSvkDw5jCFN5pJueeVTRA7TKKvtd0R7N7kPrzTyZAwa1S5i+t4YWGFFn0F4BitTYa+99vKf9WD5Ii88B5588sl26caIARMmTPCfZcgq4D/ZBnGzOo+V5zzZiAkntt+oRkfKhm0hx6QVIYQQQgghhBD14Q1D7zwzz61e9ifXd8gw17L3TLdm5evu/Rce9r+3Cowf+OP6cPFzrl/L1t4gk2b02XziX7gPFj7RFgb+kucAZfkhLRYX35OsWryg3b0P/vT7Nv9cRbH/ZeUL95Y9DmuX5hH7z4pOs2gsLS0t7sYbb/SKHbZMmT9/vv/OliWA8pJtwoAZwCg7ONQ43CKGbWRMeYKf8DJi/IC5sRXN1ltv7ZUxoWLokksu8VvU2FZrpH/vvfeu3G0lJs0GcZBfwqkV4kNJuNNOO/ntaDqKZN5RkCbzXoR6877DDjt4JdWmm27apjDlM6kkaxSUCWWDshYDyuuvv+7TxG9msgN1Zd/x//LLL/sypWyNssoZuUV+UdCSDsJavXq1bweUEbJiaQa2y+K3XUlQ6iLH1bD/VWs7UEZ7L0K9MpZXhkZM3rNglRurspLb9R100EH+M5x1j/GX+J944gmfpuHDh7uTTjrJK4PBtoW0y/oEjHtGjByWiaUlrXyKymGzYGnOau/h+VKWvyQxMtZs7SIGwn/77bd9eWDkIJ9vvPGGv0fbLwv6f0g++8wgVTSPVl9ZbZk2SFul/0JeefZancfKc55sxIRTpN+IpSzZ+PWvf+0/MZohx9Y/CSGEEEIIIYQoTq8hQ4Z8yhdW4bACB8PG4ltbZ5SyUobze5797sYv2wNGbO92OvvfvZFk0U++493M/6IfneLef+l33g0DC4YWCzfGT4ilKy0Ndm/pL//JLf/NLRXXVizMaqTFBVn5CuNh9dCWX/xfbuXv7/Rbx4VkpblMssqtp2LKMBQcbP1iCjGUIaE7M3M5o4DtSwyUDCjJzjvvPD8blVm9KJrsdxoxfpKg0DKDA7Nn7TeKGrbFMXDjHlvkQEyaQ5hpvHDhwppnaZM+lEMosubMmVPXbO9kvRixeS9KTN7JXzJewN2U3QsWLHCDBg1yn//8571S65RTTmk3U71eUG6h/Avzacp1kw9AAYpCNyy/8L/2PUxf6PbWW29FlTP/gdBP0q2azFPH4UxxSzPGxbQZ5GG4zCS/4447fFqy/mPyYmVTZnsvSj3tK7YMQ5J5D0mrNwO/1G8oG8SPwYCtssBkJSx3Kx/qhS2pQkjLTTfd5L+fddZZqTKX5sZ5JtRLNay+0vKTlUeoVj55cthIrCzqbe8h5jfpHiNjndUuyGta3xuDtXEg34Rz5513pj5f6iFLbsL0lyWrVr9h2yFuDKth3RaR52qyAXnhxPQbRSlLNpDRAw880BvSyqxzIYQQQgghhOhpbHTGEKtxjJfmfKXNuIHBZPSxF3kjCdfYE+Z4937DtvGfIWbwgaTBxojxUw/hCp60y/JZJF9hOpf+8h/9Z+/+g/yn6FqgUEA5gxLCLpRhsNlmm/nPRx55xBtGLrvsMq9AQ1GCEi8kxg/xsLIIxQ+XzZ63rYNs+xvO3wl5/vnnK99aiUlzCEq9eow5KIVYhTFu3LgOO2w7Nu9FqTfvKEvPPPNMr3CiTikHsBUoZYOSjgslHUpiZOq2226r3N1AOHsdxZkp/FAookwzBR5YmaKML7OcUQwSV1JpXI/SHeMjSuwkeW0nlqJtJ4Z6ZCymDMvKu8lReIYNZU2ZJwnjtzO1OGsrhHRZf3DxxRe3k7k8OQxXM6RdoXznUVb5dAb1tvcYYmSs2dpFLBjr2dKN8rFt5MqmzDwUkdWw7bAyqrMo0m/EUoZs0G6QUeodg6aMQkIIIYQQQghROxsZhqqxw7eudy2fO9R9svJ1t/rNl/0Vg51RlEWMnzTWf7yq8m1jMDyxiqbatbxi5Kk1X6Lrg1IJxVzyeuqpp/z9uXPnulmzZrmbb77Zb+ez2267eSUeBiAjxg9KVGbYLl261CtJk8r5IuSluWzIX9EzhroD5DlUYD344IOVbx0DM7e52MaJOk4q3DsTVkrVwocfflj5ls9dd93llY7JbYa6ctupl7LyjhyRd1a9gRmu//u//9t/FsGMQmwzh4wmjQ55kBYUudWuLONiUg5jy6eIHDaKZmrvXa1dYETDoEJ5nX766d6AyTZlsGjRIv9ZBtW2p6MNQJbRplZZjaEsec4Lp8x+o0ysrlnF2NEGSCGEEEIIIYTo7kQZhtiyjDN2/jz/Jr+9GoaVZff/sHI3my2mfdV/vv/H3/rPNGL8pLHmzdazfPpuvpX/LErRfOHfGBmcvSS6HmwVxoxqlF8oI8MrVDbwHcUT29QwO5UZ1RhJ2BLFyPLDtj18Z8UJK09QftpMfINZ9GAKDwMjU0hsmg3iNyVWPZD+8ByRMonNe1HqyTtlOWzYsHb/nzGj1XjdUUpmVgJwoTxE2VlU4c7KAFZrhOctcFYSUMZFyjlUalIGSaMg58YQV9gG0mDLIEjGmYbNJA/PGoppO7EUbTsx1CNjeWVYS94JrxqsbKRe2YJpzz339Mp1jL5JiNdIW/mIgpt0XXPNNakymieHRciSwyLlU0QOG0W97T2GmHbabO0ipFo4lq9QxuwsnDIN+JQB7YRz2MJ00IbgpZde8p9QlqzGUJY8x4QT22/EUoZsYKyCZP8khBBCCCGEEKI4fbY56FsXbfHFr7uBW413fYcMc7369nNDd/6CW7/mI/fxilZlcJ+BQ1zLnke4voNbXO++/T+7v5/b+vAz3frV7392b6jfju29Pzzkhk873ofB7812P9htc9TfuwFbjvXn9Sy99yofVowfzu8ZNmWmv2/pMv/9Nx/lPlrcupXFus/iHz7lr9wmo3d1g8dOdpvudoD3w/Zuq5dueGmvRtF8DRyxnRs6fh/Xssdhn/3vcNerT1+39J45vpxi01wm5HnoTtPc6mUL3bvPPVBx7dnsuOOObr/99vNKD5QaHJ7O92XLlrVzX7Vqld+j/ogjjnCTJk3yW21x/+CDD/aGHWDLEn6jdOIexgGUI5988olX7sT46devn4+Dg6zXrl3r782ePdu99957bujQoW7kyJH+fBUUJijp99hjDz9Dma1S2C6HbZxQKEFMmg0UOZz9gQINBVetoNQizvvvv98fSl8U0nHIIYd4Jd7o0aPd+vXrfT5JN/XA2TcxeS9CVt4tPcSPQvTTTz/1imt+s0qI9PCbdJBvvlO+XNQpWwChHDMonx/96Eduu+2226gOYkBetthii6r5JPyjjz7apwN/ffv29fVuaTVQ3k2ZMsXLIX5RmlGmKOp/8pOfRJcz5RD6Ie4VK1Z4Qxmyigy8++67btq0aX7Fw84779wmh+TlgQc29EP4Q1Z33XVXX9bWRpCBJUuWtBnb7rnnHv9J+MQJv/3tb70hIa/tUA6EWUZ7L0K97SuvDGP6jbA9orxGBq2OCQcjJuUMbBl4+OGH+5U+22yzjfvjH//Yrq5MDtnujTrAaIF/0oExCPn57ne/6+9hTOjdu7dPr12UMeTJYSyEmSWHTz/9dHT55MlhEZqlvYf9mPklz/wm/8h9TDttZLuI6XuNvPbFf0zG6MfwR3p5lobUW188s5A/exZQdnynDVx44YXeD2kpQ1bTZMPKKnTLk+cY2YgJB/L6jSKUJRukjX5l3bp1NadFCCGEEEIIIUQrvQeNmeg2nzzdDRw5zjsMGTel3W9gW7blv/mpN6CMmnG2G77Pse6dBf/l1n6w0htAhk05yvvjN/B/rrUfvu2WPXCDX41jxPgZOmHftvuWDvtNeo01f17k3px3rQ9z6C5favMTS2y+DO4N2naij2vdmo98uu2spNg0i+YAxQTb5TD7mMOdbWsfzpYx2NYKBandYzUD/tn2x8jzw3YsN998s1cS2YoiZjWj7GDm7DHHHOP9nX/++X4mLIolwmHLmSeffNLfM2LSbLANDgaMss4oCI0hRUDZRBpJL6AUsnQbMXkvQlbeLT0WP3Vgv1GKAwY9zjsB3KlfyhylVrVZ9KHiqkysTCg3sHq3tBrM4r7++uv9d+6jXHvsscd82Rox5Txnzpw2P/vvv78/1B1CWWV1A/KNP+SdsLg4iyqEsmJlCUrSsI1UI3nGSmzbiaFI24mh3vaVV4ZF837dddf5sKx9EU7yjBjqmvv8P1ztEEIcKLmpLwxLyBRpATsPhdUPll67jBg5jCFPDouUT1E5jKGz23vYj5lf+00YENNOG9kuYvpeIysc0oyMrV692v8XecTow2qcatRaXzwL7rjjDv+duChH5Jnz54wyZTWGPHmOkQ2IbRcx/UYMZcmGkdx2VAghhBBCCCFEcXoNGTLk08p3UYUJZ/3CG3ue/e7Gh6N3Jmxth0HrnWfm+W3wRPfi6quv9ooclDadBSt9UHwBs6Q58LmebXC6G6wYQ3mFchWFpRDNDHKKcptz0UIjJwfio/ztzL6mK6D23rUos74wPjFhwFYL9ySq9RuNhNWQrAjFwIbhqKfWhRBCCCGEEEKUSdQZQ0KIxoLig9n2GGM6E2Y7M6uYGeUwZswY/ynaIyWxaHbYrolVIfPnz+805W53Qe29a1FGfbHahS0bw7ONegLN1m+w0kpGISGEEEIIIYQoB60YiqBZVwwNnTDNtUyZ6VYtXuCW/+aWiqvoiqB8wRgEbJHC7FzO62DLHLZnEs0JKy2Ywcz2QEI0G5yxwiogzgdhyy0MzSeccELl7ga0YigOtfeuRZn1xTOa84yM7txWYvsNIYQQQgghhBBdG60Y6sJwvhFbyMko1PUJ99TnDAhW6LB9i4xCzQ1b69l5REI0G2xFiZGZ1Q6clSLlbn2ovXctyqwvtlA95ZRTfHjdXQbUbwghhBBCCCFEz0ArhoQQQgghhBBCCCGEEEIIIXoIWjHUhdll+3XuO8etcQdP/aTiIoQQQgghhBBCCCGEEEIIUR2tGOrCYBA642tr3Lzf9XM/mDug4iqEEN0LzgoJWbp0qbvooosqv5oLziKZOnVq5VcrbGnFVlRCCCFEV4Hn2ZgxY/z3Zn3mCiGE6H6cc845btGiRdpWX9QNY5kJEya4JUuWuNtuu80tX768ckcIYZS6Yuifz/zI/cdVH1R+pRPjJwTjx7dmrqn8EkII0dPYaaed/CHyeXBo+mmnnVb5VTuEc8stt7iHHnrIX1dffXXlTjE22WQTn3bOEBPdF+TFZIUracjsSMqSedEzkfyINHhm8Qw88cQT3QEHHFBxFUII0REwbmT8KFo57rjj/LnLQ4YMqbiIZgYjXj3y24ixKGdnHnPMMe6mm27y8iWEaE+pK4Yw+kwYs94dfkb1TjzGT8gdV3zoBg341F31/wa4+x/vV3FtBaPRzmPXuwd+39e9sKhPxbXnUO+KIV78zjrrLN9RosDkoOEnnnjCXXfdde0s6XSeM2bMcNtuu22bn3DmYGw4dPjcs5nzPEBefPFFd/LJJ/vfseSlB3hA7b333m0K2Weeecb97Gc/c48++qj/HUts3seNG9curksuuaTQbIRddtnFHXTQQX6lAXGllUtZcUFMXZRRhpbmRslGTJrz/Fia88o5Jq5mklWI8RNDI+MC5IED36+44oqKSzr33nuvl7PLL7/czZs3r+JajH333ddddtllbWletWqVr/daVvww0D333HOj0l4rZZSzyXxWO7W8JAnbaYwfaKQcNgL67yOPPNJ/py2vXLmycN9VK2XIfFlQ9iiRqYvDDjus4tqKvTDyiT9rZxC2D54F+++/v5dJwnn22WfdnDlz2uQQ5QnG1pBa+8zuCu1w8uTJ7u6773YvvPBCxTWdZpKfPNTXNa6vs3aW9uzKG69WKxuDcj722GOj6iKGmPEzNHKslYflvd7xfGw4jRz3ljWebxSS58b0qzFUK+u0MiBO0m3lNH/+fN9XNbq+ysL63EYZ4imn2HFCGVi9xL4PUR5MCKSuQoqGIzamI8qQ/ghDXq3yW8ZYNCZf+Jk9e7b/TvtvhOwL0VVo+jOG7vtdX/fMy33cs59dSTAKTZ/2iRs9Yn3FRcTCgAiL+T777OMVL3Sir732mu/Qv/3tb1d8tXagp556qhs4cGA7PzZojA0HsNIzCKmHvPSAPZxQzuHnscce8/FecMEFPr2xxMR15ZVX+ry/8cYb3g8Dc+I6//zzKz7iQKlI+ZDmapQVF+TVRbUyPPPMMys+8mm0bMSkOcZPTDnHhFO2rPKbMHlpTBITV4yfGBoZV1EYWFJfTz31VMWlODNnzvSfF198sU8vg8tajEIdBXJgslFGORdpp8ALOn7sYpu8JFl+GimHaW2lI+DFAjnhoi03kjJkvix22203X/e83FE/aeAH9tprL/8ZgkKRZwFQp8gjckmfnMRkiz5z/Pjxvs9sVH03OzxDeK6MHTu24lKdZpKfJOrrWml0X0d8KChpW2nKlZjxKiTLBjmDJ598snBdZBGTnjLGtFBWnZY1ni9rvFpPOMnxahnj+RjKknnJc2P71Rjy+l4mllx//fV+RSPGA+JNGnMaVV9dFeQldpzQaOwZhLFP9AwaNRbF6HTNNdf495RZs2ZVXIUQ0PSGoX+9a4D7P9cNcstWNn1SuxQMoO644w533nnnees6L3/MxsHdFDfAoAEuvPDCNj8Mthg8MbCKDYeHPPDSUQ956QFmGzPA4x5+SBdp5CFw4IEHej8xxMR16aWX+ryffvrp3g+fxF30pYgZO8yK4f/VKCuumLrYYYcd/OypsAyZ9Ue+GZDH0GjZiElzjJ+Yco4Jp2xZRZHKfV4ak8TEFeMnhkbGVZRrr73W1xcyVistLS2+Tppt9QHthJlUt99+e5tSvYxyjm2nxiuvvOL92JVmNMvy00g5POOMM/x2SOwt3ZFy15mUIfNlQL9HGf/617/2fSMKlyTWR6LQmzRpUpuixmCVEflAUUWdIo8obJgNTB2GmGzhx17yjj/++MpdEUuzyE+I+rr2NLqvs7aL4jSNmPEqJMuG1bfA/4vWRRYx6SljTAtl1WlZ4/myxqsx4cSMV8saz8dQlsxLnhvbr8aQ1a+SLoyRgwcP9s8Jyop4k/1zo+pLlA/yh3xzFozoGTRyLIpxiGcZqwWFEBvw1hbO/OG6+aIP3T6T1robzms9B8h+wy7br2vzx/Zul357ld/KLI2/nv6x94Nfwkrzl+WH7xaXXSHfOW6Nd2O1ELCdWtKvhXHh36z28XBZnFzkB0YOW+/92H/5buF3dxhEJZWfzD4KB4PMxGWQGC61tJk79sIeE87WW2/tP5OKoKLEpIeXlAULFvjvxsKFC/3n9ttv7z9jiImLe2HeyTMzr5i9VQTCyXsYFomLlzNmX6TN+oqpi7ffftt/hnUIDNSSdZ0VVyNlIybNMX5iyjkmnGaT1Rg/Rladlh1XvZBWXojDKwlbEpgCgXzhB7dqL9DUYzXYdgOFJWEQFi+mSTkoC8JlFQXx8fKKwo528uqrr/r7ZZVzTDsNocy5sqjmp6w0x4Tz3HPP+bbLrFKUnNRVEaVJCHnhrCmTMeqEWbtFiZEfwkVeLS6LzyAt4T2uJDEyT7zEb2HwnbjTwsvDyvzBBx/0M3DTlCsoZngZw7jNbNCwzydP9IfM5g2fhShxgENjq2HbTowaNcp/xhJTp3n1FVPOMX6A+xYXV5psZKXZ6s6UfaYstMuIkR8oI++xEK76unQa3dfRjmiDYXwhuGeNV6mzcIa+gRKG9m/hFq2LauSlB4qMabMoq075fxgv6aplPB8TTlnj3pjxalnj+RjKkvk8+ZE851Mk71nyHFKtX+V5gywyISRty6lG11ceyCTPxmR+q7nnPU/rHUPGjhOM2PrKI3Z7MCYO8fxnW7+0dhAbTj1Q7lwhaW5Z5WzkjevC/1HXFp79DmlEXVD+libiYryZbIekn3yYv2R68I87fgiDy+Say1Z7mr/wSkKZx44zi8gGzzL6kbRwhOipeMMQZ9S8tLi3G775p+6QqWvd68t7uwef6ut/f+OIj71HwB8X27qN3nK9N8ikGX3232Ote2xBn7Yw8GeGGCPLz5I/926Li3Ql+eOrrfft3uML+rb55wpp2XS9++l9/f05RRPHrXPzP4uP7385pdXgdfJXPnZTJ671YfHfgZ/dm7Jr672eCEuyGSQadJoMQHkI8ACkE7eZYFkz25LhjBkzxn/Wu0Q0Nj3MpgopOgsPiuSdhxwPLbZjYGDJmQgdRUxcvJyRflY/JImpC8JkAM1SffLOwABF34033ljxsYGsuNLoKNmISXORfGWVc0w4zSarReQ5q07Ljqte7CWQK5SrJKw6YC9ytiZA2YFimpUJQPpIJxfyyWW/uWwQywuZ/Yf4Xn75Zf8Cwz78ZUJ8DKh5MWBLEcru5ptvbptFai+2HVnOyXZq8DLJiySXDfaTZPkpK80x4TADjTKjLDFWoBjgXBteMqjLWAibvKBE4aWEul+9erXPZ1r+qxEjPyjH7YXd5NouowyZB+IlfsIgLNo7ZxbUAiuACIcX+ZdeesnXi7WbEJROzDzHn9UXbLrppv4zqcwxWY99vsQSU6ex7T2vnCHPD3Gh4ATiIk3IK88fIy/NlB1uJhPEw2+7jBj5KTPvWaivy6eRfR1Qp4x5aoU6YwZ+qKQhDeTDlM7VqFYX9VJk7JdF2XKYNc40YsbYWeEUyXteevLGq2WN52MoU+azkDzXRrW8x8hzVr+KDDJ+YMxgCnc+zU+z1RfGJ+qK+gn58pe/7D9/9atf+U8jb5yQ91zOG0PGjhOMou/49WIrv5t9tVDMWJ36yhvX4U5d0AbZyvz111/3/vidHEs1qi4sH/SrxEk7pG8wku8OTCZJe3cgnfRJpJn+BLnmu+18Uta7TC2Y0XGzzTbzn0KIimHoB3MHuFeWtJ7h8/Z7vdw//Gig+6dbBjqMJaNHtp7f88KiPt4fF/f/7ppB3n3yhPYGH7jqZwP8/7lu+EV/72aGGCPLTxiXpSvk/sf7tbv36HMb/HOF4OffH2o1Fi1d3tsblQxWC5lR6H9fuYn/L9vWrfisDHoiPMB4ECUHTgwaGXDxADzqqKMqrtVJC4eHBjOZ0mZ/AA8cHoTVLgasRl56eLjw0GBGAf/jpcFeZj788MNS4wJepP7lX/7FP/yZvcby9Y4iNi5mQrFEPqnEgby6AO4xGw/IOw/0559/vs0tJCuuJLXIRiwxaY7NV145x4ZTpqwyMAPCqlVWY9tyXp2WGVe92EsgV17bu+qqq7w/ypLBJYNNoP5IJxfyyWW/uWwPbg4EBtt2A8Wl1SEyUxbEx6Cbl0nqgXiok7Q20hHlnNZO3333XZ9Xtt9ATlHeAm3EZlzF+IGy0hwbDgoC6pyDRilT6t3qMgbCh/DcqRNOOMHnkXqJJUZ+UPoDCh/82BXGU4bMU7/ES/y2HQ2ftWBhWVpsFm5aGaMw5MWQ/jKkyArJJMgrLF261H/GEFOnRdp7tXIOyfLDIdq0bxSd+CFNtCP8WNvJSzNyjpvVA88IfttlxMhP2Xmvhvq6OBrV1wHts2y+8IUv+E+2mqxGWl2UReyYLYay6jRvnGnQHrLGY3nhxOY9Lxxr/9XGq1DGeL7IOxqUIfNFkTxnk5X3LHmO6VeRQSZE8MxkhTEywbZy+Ek+m4zOri/CJOxQuY6hCHlNrloKn6cYccLnacxzOW8MGTtOMPL6nyKwRVxaHAZl9PnPf96PIxinVCMvnEYQM1aPGdfhbnVBW6Te8Ue9JsdSjaiLcHxIWswAwzgNqCPkjfTlvTuQr7lz5/rvGJzTJn5ZXMnnTZLYcWasbJgBXAixgY2W44SGE4wlh58xxH/HiPKtmWvcP5/5kb/OPWm1d99my1bDUQiGHQMjThoxfjqa3ce3GrWSxqc0Y1R3hwfUSSed5Acp4UMNBg0a5LdzoUPPGzBVC4eHCG7VCGcNpF3hwyQvPRyWyj3iZKDLANIGy2x7UGZcwIONBxEPfv7PbOgyHtppFImLwWbay1leXQADcs57YFaLxceLIrPU0gbe1eIKqVU2YolJc2y+8so5NpwyZZWBEDAYM7eislqkLWfVadlxNQrq1WAAbjCIpB65KF8u+83FixRQT9wLw7HBbJkHuKI85+UBmbIZsMxOS2t7ZZdztXaKPDD4Z5Yu5cE9m536pS99yX/G+IGy0hwTDi8xKD0oQ5Rew4cP922pyMxaXgCpd/IXYnIRS4z8PPLII16xZvXOCyIKi1qpJvO2TUzyZSxpsInBzpdgdiBKO2YDkgd7cQ6hDGlT5Csk7/mRhHhMOcmLK/EVmWEaU6dF2nu1cg7J8sNLLrIaKkBRdIHNaCxLDmMoO+/VUF8XR6P6OijaFvMgXSiuKedQVkKy3kHKoOiYNouy6pSysLSkjTNDkLdq9ZIXTlnj3rzxKnCv3vF8kXe0smS+CJLnbGLyXk2eY/tV8nrmmWf6sTtjCfOTdgZrM9SXjU2oKyA+0pVW3mEak8rrzhhDQlb/UyasFmJiwl133VVxaV5iyjlmXBcS9m20A5OXkI6uC9LLGIwJAFz2DMDoD2W+OxQhlPmi48w0dtxxx8o3IYSxkWGoGv9w8mp36LTWbeYwnMQaT+yMoixi/KTx0ZrKF1EXDFA4yHHFihV+oBXCQ4+HAR2yzeRkWSksWrTIfxrVwgkHqabM4QKWbTOoJ3wGeNUuU3zEpIcHJvd4oHLxsOYFh/8STplxhRAvftgXl8Fb0cF5EWqNK6YugJkhhM0ABIiPAQ0Dtlpm4tUjG7HEpLlovqqVc0w4Zcsq4QODsVpktag8V6ORcfVUkAtejHnZRwHA1gJss4TigxcQk8OyyznrWcBMR+6HcJ5MSIyfRsoh7YktRmwGNLNPZ82a5WecWdttNphdRxpJK/XOrFIMH9R7s7Lnnnv6T/pFFIZc9IUoY2Kptn0NL6mQfBG0eNiWg5dpVtEgC10Z8kF7T15Ft2Wy2ftdAfV1+TS6r2MLsWqzcWuBWdOQLB8jqy7KoqwxbdlyCKSFcJLjzKJUC6escS/u5LnaeDVMdz3jecrWxrhpl417O+v5LnmuTr15j+lXgT6KPBvV6gKaob5IK893xitg28hlrWCqlbmRY8hmHCfQn6RNfmkGaFshseVc1riuUWBsxujMCnz0DUkDUHeBVYbAKkUhRCtRhiHOEWJLOc7qYes3tlyb+0DcKp8jv9R6BtHvX6huSIrxk8biN1uTv2XLp/6zKJxlBKMSq55aNq0tvK4GChcG7cx2YJYMA6JwoAXsX5t8UWGfT7BBVl44nD0AhGPKHC7gvxZeDDHpCSF89l7mk32Ki1A0LqNR+/BCVlwMdsl3SJG64GUhxM6ASCMtLsCtbNmoFhfEpLlIvoy0cs4Lp9lktWh6qpVzR8TVVeCFJZkv20qFWa4dAUoQFB2nnHKKny2LAsRmBpZVp7jlPQtmz5690UuzvXDbC2aMn0bKIW2U2cO8hKF4RumRzFcMFhdpiQG/acTKD2kkrdQ76Ubhg6I2Nv4YLD5TAhnJffBjMOOMKQy52F4DYmeqIucoqdinPKxvUyZyblGIxcMLLAqtooqEmDptZHun3bEiCGUBZRFeJrOxcmiz95N1WwT1dT2zrwMUQijByupvzNj7y1/+0n8aMXURUq18Yiky9qunLkKKpLnoeL4atYxX08hKD2lJjlfLfNeLoUyZL4LkeeNwysp7TL9KuBgaw/8n/YSUVV/1whiJfpUxEeMsfmOQK0KZY8gi44R6ZTUGxnrE0RHGsloIDUGkK22yRF45I1d547qidGRdYJgl/azAw/COIZ78hZT57tCZTJw40b9zNKMRUojOotdRBw34dOex690Oo9e5CWPWu8cX9PXnDD3w+75t273tsv0690+nr3KcxXPvI/3c4EHOHbpvqzFn0IBP3fyn+7p/vWuA32KOMOb9rtVoNGXXtW745p+6B5/q6w1KEOPnr6d/7IZXjDOWLvPPVne29Rzb2113zir//bEFfdyaNa1nA2FgGrrJp+6Mr63x/8OQ9R9XfeC/8//Q3dJD3lgFhVGILebIl22j16xgsAvzUhQG9QyY6Bg50C2EAQsPLh4SPPB4gLGXLwMQBiU8/HhoQEw4aRAGgxyWy8YSkx4GTCwnt3sQ3o8lJi5eSMBmM/Og4aFaNF82IAJepCxOYIk/g8cicREes+gof5RmeSTrguXD5BU3Zouw1QD7/gL7eIeD2ay4ypaNrLhi0hzjJ6acY8IpW1YZDLLVAVsPJAdqMXHF+DGyyrnsuGLgfygKGaQmCduOxYNfMBmz+kKRbPBCSFsL3QC/kNZ+eaFjRpjli4Ex8p0mq2DlUC3ttUJ+SUNZdRrTTq280mSeWXOkIcZPI+WwLGh7zCjlRRFFlPUNKM5IQwhxI1NWBvhhWwxePmLkhzKk3Fatah3b8H+bZYoRBMqSefPDf1ixQ1imcEm2i2pQNihWmDWZ7JeoC8qLMkprw8n2Yemz8iHvzIzm5ZqzdCAtX7UQU6cx9VWknLP8WFnQBjnw19KDLJg8x8oh9XfTTTf578wqN1l6+OGHvRzGyE9Zea8X9XWN7evA2nRaWiCUH8rA0gU2XjXwx6qOWuvCyCqfmPSYrKbVV5ExbVl1WtZ4vqzxakw4tb5b4SctX81CjPwYkuf0cMrKe5G+19Kc5scoq76snOrtczGisjKJtpUcM8U8T8saQwJlkzVOMLLqq0xYacNkEAws9VJvfdEfMvYkzzY2BsbHyAqrnGPK2dKBjKWN67hP/Vm7s3Fdst8xOrou6ONZrY083Xnnnd7YbEZX6sbybrIalk/47mD5trE99cB3/Ifu5Mf6OiuD5Fg0pl0UxdJn7ydCiFZ6YxSaPu0TbxyBqRPX+t+jR2xYRYOB6NZ5/b2xBkPEVw742BuDVrzXyxt1vnJgq5Ho7fdaV+Dwfy7u/99/H9Bm8IEYPxiL7L6ly36TXmPZyt7uhl/0dyve6eUO3GvDf4pw+Y0DvTGMePjvQAxdT/Wt3O3e0MkDSgY62PDiQQV0ysz8ZS9p3BnMJB+0MeGURUx6gHukh3vMPq1lYBATF/cYCFh+KQseauzFXQRmaFkYwIPSftuM2SJx8aBmIGKDkKIQJnnlQU9cPHyZWZa2XU9WXGXLRlZcMWmO8RNTzjHhlC2rDNQZ+CeVrxATV2x6IKucy46rXsK2w+AR7HfZ/Q9bB5AvIHxmgjGwDGWjEdiLb1l1GtNOGcTTDtJk3tIT46eRclgWtD3ywItK2DeMGzeu4mMD1113nfeHLJof20s8Rn54uaTcLA7iszI0ypJ54iWt/If/slLAFFCxfCk4cyUJL5dpZVQN5IfzZoD0kHfKJzmDuAxi6rSR7R15RhlBXaOQsPRY24RYOaStXXPNNV4BFcqSESM/6ut6Zl8HyJn1C8ikKW6MmPGqYUolwktSZHyYVT4x6UFuKbOsMZtRVl1khcP/wzacNs406g0nJu+x6eFezHi1KyF5bky/amSFU6TvhdAPBjHzY5RVX8Zbb71V+VYbGAcoY/Kf9i6XR1ljSKCsssYJRlZ9lQWKesrF6rUsaq0vzuqyZyDb22EkAdoiW91CTDnTvrLGdYTPbxuHmZ9kv2N0dF3Qd2CwpP1hMMFIx8pBtm4M8468WfmQ3lreHSBmLFo2GKNYmUg5mmFUCNFKryFDhvSMfdMK8J3j1ngjUXdfMSSEEF0BXlR5iWFwCgxCm1UhwaCTwS7wwmkvO7zMCtHs2CxaXng7E9q82o0QnQNKIA6dNmVNOCNdCCF6ErZCASU/yn5RLow7MXIlV3zViupLJDGZAIxCGPDSJrQJ0ZPpXfkUQgghmhKUUmYU6kow+CTtZbzoCNHRoAzm5Zyt2zob2g7nDYV76QshGgPPLAxBKNYw0LKFrRBC9GRkZOgYWAnDuTZlvyupvoTBCifGMqyIwgApo5AQG6MVQyl0lRVDnP30l1PWtjt3SQghhBAij3B/b9sfnVVubFXCliWdie2lbnT2CiYhhBBC9Dw454Tttco4/0Z0PKovIYQoTp/+/ft3/Q2CS2bqbuvcjtuud/82r3/FpTl5653e7onn+7pXXu9TcRFCCCGEyOeQQw7xWyuwSmjAgAHu1Vdf9bM277rrroqPzuPpp5/2qxT69OnjFi5c6B555JHKHSGEEEKIxjBixAg/DmFcIpof1ZcQQhRHK4aEEEIIIYQQQgghhBBCCCF6CDpjSAghhBBCCCGEEEIIIYQQoocgw5AQQgghhBBCCCGEEEIIIUSPwLn/DyfaOW37y+bTAAAAAElFTkSuQmCC;" vertex="1" parent="1">
          <mxGeometry x="10" y="380" width="830.85" height="212.56" as="geometry" />
        </mxCell>
      </root>
    </mxGraphModel>
  </diagram>
</mxfile>
